G04 EAGLE Gerber RS-274X export*
G75*
%MOMM*%
%FSLAX34Y34*%
%LPD*%
%INTop Copper*%
%IPPOS*%
%AMOC8*
5,1,8,0,0,1.08239X$1,22.5*%
G01*
%ADD10P,1.649562X8X292.500000*%
%ADD11R,1.300000X1.500000*%
%ADD12R,1.905000X1.905000*%
%ADD13R,2.200000X0.600000*%
%ADD14R,1.550000X0.600000*%
%ADD15C,1.524000*%
%ADD16R,1.500000X1.500000*%
%ADD17C,0.203200*%
%ADD18C,0.406400*%
%ADD19C,0.756400*%


D10*
X466725Y504825D03*
X492125Y504825D03*
X466725Y479425D03*
X492125Y479425D03*
X466725Y454025D03*
X492125Y454025D03*
X466725Y428625D03*
X492125Y428625D03*
X466725Y403225D03*
X492125Y403225D03*
X466725Y377825D03*
X492125Y377825D03*
X466725Y352425D03*
X492125Y352425D03*
X466725Y327025D03*
X492125Y327025D03*
X466725Y301625D03*
X492125Y301625D03*
X466725Y276225D03*
X492125Y276225D03*
X466725Y250825D03*
X492125Y250825D03*
X466725Y225425D03*
X492125Y225425D03*
X466725Y200025D03*
X492125Y200025D03*
X466725Y174625D03*
X492125Y174625D03*
X466725Y149225D03*
X492125Y149225D03*
X466725Y123825D03*
X492125Y123825D03*
X466725Y98425D03*
X492125Y98425D03*
X466725Y73025D03*
X492125Y73025D03*
X466725Y47625D03*
X492125Y47625D03*
X466725Y22225D03*
X492125Y22225D03*
D11*
X348431Y555625D03*
X329431Y555625D03*
D12*
X234950Y504825D03*
X184150Y504825D03*
X139700Y504825D03*
X88900Y504825D03*
D11*
X379438Y555625D03*
X398438Y555625D03*
X245244Y556419D03*
X226244Y556419D03*
D13*
X334769Y499269D03*
X282769Y499269D03*
X334769Y486569D03*
X334769Y511969D03*
X334769Y524669D03*
X282769Y486569D03*
X282769Y511969D03*
X282769Y524669D03*
D11*
X246038Y528638D03*
X227038Y528638D03*
D14*
X431513Y485775D03*
X431513Y498475D03*
X431513Y511175D03*
X431513Y523875D03*
X377513Y523875D03*
X377513Y511175D03*
X377513Y498475D03*
X377513Y485775D03*
D11*
X297631Y556419D03*
X278631Y556419D03*
D15*
X176213Y546894D03*
X150813Y546894D03*
X125413Y546894D03*
D16*
X465969Y555625D03*
X430969Y555625D03*
D11*
X465163Y532606D03*
X484163Y532606D03*
D17*
X226314Y529209D02*
X226314Y555498D01*
D18*
X226244Y556419D01*
X226314Y529209D02*
X227038Y528638D01*
D17*
X161589Y526206D02*
X140589Y505206D01*
X161589Y526206D02*
X161700Y526315D01*
X161815Y526421D01*
X161931Y526524D01*
X162051Y526625D01*
X162172Y526722D01*
X162296Y526816D01*
X162423Y526908D01*
X162551Y526996D01*
X162682Y527081D01*
X162814Y527163D01*
X162949Y527241D01*
X163086Y527316D01*
X163224Y527388D01*
X163364Y527456D01*
X163506Y527521D01*
X163649Y527583D01*
X163794Y527641D01*
X163940Y527695D01*
X164087Y527746D01*
X164236Y527793D01*
X164385Y527836D01*
X164536Y527876D01*
X164688Y527912D01*
X164840Y527944D01*
X164993Y527973D01*
X165147Y527997D01*
X165302Y528018D01*
X165457Y528035D01*
X165612Y528049D01*
X165767Y528058D01*
X165923Y528064D01*
X166079Y528066D01*
X225171Y528066D01*
D18*
X227038Y528638D01*
X140589Y505206D02*
X139700Y504825D01*
D17*
X352933Y556641D02*
X378333Y556641D01*
X352933Y556641D02*
X349758Y556641D01*
X348615Y556641D01*
X348431Y555625D01*
X378333Y556641D02*
X379438Y555625D01*
X427482Y512064D02*
X430911Y512064D01*
X410782Y531395D02*
X410782Y562012D01*
X410781Y531395D02*
X410783Y531239D01*
X410789Y531083D01*
X410798Y530928D01*
X410812Y530773D01*
X410829Y530618D01*
X410850Y530463D01*
X410874Y530309D01*
X410903Y530156D01*
X410935Y530004D01*
X410971Y529852D01*
X411011Y529701D01*
X411054Y529552D01*
X411101Y529403D01*
X411152Y529256D01*
X411206Y529110D01*
X411264Y528965D01*
X411326Y528822D01*
X411391Y528680D01*
X411459Y528540D01*
X411531Y528402D01*
X411606Y528265D01*
X411684Y528130D01*
X411766Y527998D01*
X411851Y527867D01*
X411939Y527739D01*
X412031Y527612D01*
X412125Y527488D01*
X412222Y527367D01*
X412323Y527247D01*
X412426Y527131D01*
X412532Y527016D01*
X412641Y526905D01*
X427482Y512064D01*
X408922Y566502D02*
X407180Y568243D01*
X408922Y566502D02*
X409031Y566391D01*
X409137Y566276D01*
X409240Y566160D01*
X409341Y566040D01*
X409438Y565919D01*
X409532Y565795D01*
X409624Y565668D01*
X409712Y565540D01*
X409797Y565409D01*
X409879Y565277D01*
X409957Y565142D01*
X410032Y565005D01*
X410104Y564867D01*
X410172Y564727D01*
X410237Y564585D01*
X410299Y564442D01*
X410357Y564297D01*
X410411Y564151D01*
X410462Y564004D01*
X410509Y563855D01*
X410552Y563706D01*
X410592Y563555D01*
X410628Y563403D01*
X410660Y563251D01*
X410689Y563098D01*
X410713Y562944D01*
X410734Y562789D01*
X410751Y562634D01*
X410765Y562479D01*
X410774Y562324D01*
X410780Y562168D01*
X410782Y562012D01*
X387109Y568243D02*
X379632Y560766D01*
X387110Y568243D02*
X387221Y568352D01*
X387336Y568458D01*
X387452Y568561D01*
X387572Y568662D01*
X387693Y568759D01*
X387817Y568853D01*
X387944Y568945D01*
X388072Y569033D01*
X388203Y569118D01*
X388335Y569200D01*
X388470Y569278D01*
X388607Y569353D01*
X388745Y569425D01*
X388885Y569493D01*
X389027Y569558D01*
X389170Y569620D01*
X389315Y569678D01*
X389461Y569732D01*
X389608Y569783D01*
X389757Y569830D01*
X389906Y569873D01*
X390057Y569913D01*
X390209Y569949D01*
X390361Y569981D01*
X390514Y570010D01*
X390668Y570034D01*
X390823Y570055D01*
X390978Y570072D01*
X391133Y570086D01*
X391288Y570095D01*
X391444Y570101D01*
X391600Y570103D01*
X402690Y570103D01*
X402846Y570101D01*
X403002Y570095D01*
X403157Y570086D01*
X403312Y570072D01*
X403467Y570055D01*
X403622Y570034D01*
X403776Y570010D01*
X403929Y569981D01*
X404081Y569949D01*
X404233Y569913D01*
X404384Y569873D01*
X404533Y569830D01*
X404682Y569783D01*
X404829Y569732D01*
X404975Y569678D01*
X405120Y569620D01*
X405263Y569558D01*
X405405Y569493D01*
X405545Y569425D01*
X405683Y569353D01*
X405820Y569278D01*
X405955Y569200D01*
X406087Y569118D01*
X406218Y569033D01*
X406346Y568945D01*
X406473Y568853D01*
X406597Y568759D01*
X406718Y568662D01*
X406838Y568561D01*
X406954Y568458D01*
X407069Y568352D01*
X407180Y568243D01*
X430911Y512064D02*
X431513Y511175D01*
X379438Y555625D02*
X379632Y560766D01*
X344138Y499491D02*
X334899Y499491D01*
X352933Y510916D02*
X352933Y556641D01*
X352933Y510916D02*
X352931Y510760D01*
X352925Y510604D01*
X352916Y510449D01*
X352902Y510294D01*
X352885Y510139D01*
X352864Y509984D01*
X352840Y509830D01*
X352811Y509677D01*
X352779Y509525D01*
X352743Y509373D01*
X352703Y509222D01*
X352660Y509073D01*
X352613Y508924D01*
X352562Y508777D01*
X352508Y508631D01*
X352450Y508486D01*
X352388Y508343D01*
X352323Y508201D01*
X352255Y508061D01*
X352183Y507923D01*
X352108Y507786D01*
X352030Y507651D01*
X351948Y507519D01*
X351863Y507388D01*
X351775Y507260D01*
X351683Y507133D01*
X351589Y507009D01*
X351492Y506888D01*
X351391Y506768D01*
X351288Y506652D01*
X351182Y506537D01*
X351073Y506426D01*
X344138Y499491D01*
X334899Y499491D02*
X334769Y499269D01*
X348431Y555625D02*
X349758Y556641D01*
D18*
X334899Y485775D02*
X377513Y485775D01*
X334899Y485775D02*
X334769Y486569D01*
D17*
X481571Y464833D02*
X491490Y454914D01*
X481571Y464834D02*
X481462Y464945D01*
X481356Y465060D01*
X481253Y465176D01*
X481152Y465296D01*
X481055Y465417D01*
X480961Y465541D01*
X480869Y465668D01*
X480781Y465796D01*
X480696Y465927D01*
X480614Y466059D01*
X480536Y466194D01*
X480461Y466331D01*
X480389Y466469D01*
X480321Y466609D01*
X480256Y466751D01*
X480194Y466894D01*
X480136Y467039D01*
X480082Y467185D01*
X480031Y467332D01*
X479984Y467481D01*
X479941Y467630D01*
X479901Y467781D01*
X479865Y467933D01*
X479833Y468085D01*
X479804Y468238D01*
X479780Y468392D01*
X479759Y468547D01*
X479742Y468702D01*
X479728Y468857D01*
X479719Y469012D01*
X479713Y469168D01*
X479711Y469324D01*
X479711Y512609D01*
D18*
X491490Y454914D02*
X492125Y454025D01*
X470572Y441198D02*
X448559Y441198D01*
X448403Y441200D01*
X448247Y441206D01*
X448092Y441215D01*
X447937Y441229D01*
X447782Y441246D01*
X447627Y441267D01*
X447473Y441291D01*
X447320Y441320D01*
X447168Y441352D01*
X447016Y441388D01*
X446865Y441428D01*
X446716Y441471D01*
X446567Y441518D01*
X446420Y441569D01*
X446274Y441623D01*
X446129Y441681D01*
X445986Y441743D01*
X445844Y441808D01*
X445704Y441876D01*
X445566Y441948D01*
X445429Y442023D01*
X445294Y442101D01*
X445162Y442183D01*
X445031Y442268D01*
X444903Y442356D01*
X444776Y442448D01*
X444652Y442542D01*
X444531Y442639D01*
X444411Y442740D01*
X444295Y442843D01*
X444180Y442949D01*
X444069Y443058D01*
X403212Y483915D01*
X403211Y483915D02*
X403100Y484024D01*
X402985Y484130D01*
X402869Y484233D01*
X402749Y484334D01*
X402628Y484431D01*
X402504Y484525D01*
X402377Y484617D01*
X402249Y484705D01*
X402118Y484790D01*
X401986Y484872D01*
X401851Y484950D01*
X401714Y485025D01*
X401576Y485097D01*
X401436Y485165D01*
X401294Y485230D01*
X401151Y485292D01*
X401006Y485350D01*
X400860Y485404D01*
X400713Y485455D01*
X400564Y485502D01*
X400415Y485545D01*
X400264Y485585D01*
X400112Y485621D01*
X399960Y485653D01*
X399807Y485682D01*
X399653Y485706D01*
X399498Y485727D01*
X399343Y485744D01*
X399188Y485758D01*
X399033Y485767D01*
X398877Y485773D01*
X398721Y485775D01*
X398722Y485775D02*
X377513Y485775D01*
X484547Y446987D02*
X491481Y453920D01*
X491480Y453921D02*
X491515Y453952D01*
X491551Y453981D01*
X491590Y454006D01*
X491631Y454028D01*
X491674Y454046D01*
X491718Y454061D01*
X491763Y454073D01*
X491809Y454080D01*
X491855Y454084D01*
X491901Y454083D01*
X491948Y454079D01*
X491993Y454071D01*
X492038Y454060D01*
X492082Y454044D01*
X492125Y454025D01*
X484547Y446987D02*
X484211Y446658D01*
X483866Y446338D01*
X483515Y446025D01*
X483156Y445722D01*
X482789Y445426D01*
X482416Y445140D01*
X482036Y444863D01*
X481650Y444594D01*
X481257Y444335D01*
X480859Y444086D01*
X480454Y443846D01*
X480044Y443616D01*
X479628Y443395D01*
X479208Y443185D01*
X478782Y442984D01*
X478352Y442794D01*
X477918Y442614D01*
X477479Y442444D01*
X477036Y442285D01*
X476590Y442136D01*
X476140Y441999D01*
X475687Y441871D01*
X475232Y441755D01*
X474773Y441650D01*
X474312Y441555D01*
X473849Y441472D01*
X473385Y441399D01*
X472918Y441338D01*
X472451Y441287D01*
X471982Y441248D01*
X471512Y441220D01*
X471042Y441204D01*
X470572Y441198D01*
D17*
X329184Y556641D02*
X313277Y556641D01*
D18*
X329184Y556641D02*
X329431Y555625D01*
X108154Y485063D02*
X89154Y504063D01*
X108154Y485063D02*
X108265Y484954D01*
X108380Y484848D01*
X108496Y484745D01*
X108616Y484644D01*
X108737Y484547D01*
X108861Y484453D01*
X108988Y484361D01*
X109116Y484273D01*
X109247Y484188D01*
X109379Y484106D01*
X109514Y484028D01*
X109651Y483953D01*
X109789Y483881D01*
X109929Y483813D01*
X110071Y483748D01*
X110214Y483686D01*
X110359Y483628D01*
X110505Y483574D01*
X110652Y483523D01*
X110801Y483476D01*
X110950Y483433D01*
X111101Y483393D01*
X111253Y483357D01*
X111405Y483325D01*
X111558Y483296D01*
X111712Y483272D01*
X111867Y483251D01*
X112022Y483234D01*
X112177Y483220D01*
X112332Y483211D01*
X112488Y483205D01*
X112644Y483203D01*
X230828Y483203D01*
X230827Y483203D02*
X230983Y483201D01*
X231139Y483195D01*
X231294Y483186D01*
X231449Y483172D01*
X231604Y483155D01*
X231759Y483134D01*
X231913Y483110D01*
X232066Y483081D01*
X232218Y483049D01*
X232370Y483013D01*
X232521Y482973D01*
X232670Y482930D01*
X232819Y482883D01*
X232966Y482832D01*
X233112Y482778D01*
X233257Y482720D01*
X233400Y482658D01*
X233542Y482593D01*
X233682Y482525D01*
X233820Y482453D01*
X233957Y482378D01*
X234092Y482300D01*
X234224Y482218D01*
X234355Y482133D01*
X234483Y482045D01*
X234610Y481953D01*
X234734Y481859D01*
X234855Y481762D01*
X234975Y481661D01*
X235091Y481558D01*
X235206Y481452D01*
X235317Y481343D01*
X235318Y481343D02*
X236170Y480491D01*
X236281Y480382D01*
X236396Y480276D01*
X236512Y480173D01*
X236632Y480072D01*
X236753Y479975D01*
X236877Y479881D01*
X237004Y479789D01*
X237132Y479701D01*
X237263Y479616D01*
X237395Y479534D01*
X237530Y479456D01*
X237667Y479381D01*
X237805Y479309D01*
X237945Y479241D01*
X238087Y479176D01*
X238230Y479114D01*
X238375Y479056D01*
X238521Y479002D01*
X238668Y478951D01*
X238817Y478904D01*
X238966Y478861D01*
X239117Y478821D01*
X239269Y478785D01*
X239421Y478753D01*
X239574Y478724D01*
X239728Y478700D01*
X239883Y478679D01*
X240038Y478662D01*
X240193Y478648D01*
X240348Y478639D01*
X240504Y478633D01*
X240660Y478631D01*
X260101Y478631D01*
X260257Y478629D01*
X260413Y478623D01*
X260568Y478614D01*
X260723Y478600D01*
X260878Y478583D01*
X261033Y478562D01*
X261187Y478538D01*
X261340Y478509D01*
X261492Y478477D01*
X261644Y478441D01*
X261795Y478401D01*
X261944Y478358D01*
X262093Y478311D01*
X262240Y478260D01*
X262386Y478206D01*
X262531Y478148D01*
X262674Y478086D01*
X262816Y478021D01*
X262956Y477953D01*
X263094Y477881D01*
X263231Y477806D01*
X263366Y477728D01*
X263498Y477646D01*
X263629Y477561D01*
X263757Y477473D01*
X263884Y477381D01*
X264008Y477287D01*
X264129Y477190D01*
X264249Y477089D01*
X264365Y476986D01*
X264480Y476880D01*
X264591Y476771D01*
X264840Y476522D01*
X264951Y476413D01*
X265066Y476307D01*
X265182Y476204D01*
X265302Y476103D01*
X265423Y476006D01*
X265547Y475912D01*
X265674Y475820D01*
X265802Y475732D01*
X265933Y475647D01*
X266065Y475565D01*
X266200Y475487D01*
X266337Y475412D01*
X266475Y475340D01*
X266615Y475272D01*
X266757Y475207D01*
X266900Y475145D01*
X267045Y475087D01*
X267191Y475033D01*
X267338Y474982D01*
X267487Y474935D01*
X267636Y474892D01*
X267787Y474852D01*
X267939Y474816D01*
X268091Y474784D01*
X268244Y474755D01*
X268398Y474731D01*
X268553Y474710D01*
X268708Y474693D01*
X268863Y474679D01*
X269018Y474670D01*
X269174Y474664D01*
X269330Y474662D01*
X317518Y476522D02*
X327470Y486474D01*
X317518Y476522D02*
X317407Y476413D01*
X317292Y476307D01*
X317176Y476204D01*
X317056Y476103D01*
X316935Y476006D01*
X316811Y475912D01*
X316684Y475820D01*
X316556Y475732D01*
X316425Y475647D01*
X316293Y475565D01*
X316158Y475487D01*
X316021Y475412D01*
X315883Y475340D01*
X315743Y475272D01*
X315601Y475207D01*
X315458Y475145D01*
X315313Y475087D01*
X315167Y475033D01*
X315020Y474982D01*
X314871Y474935D01*
X314722Y474892D01*
X314571Y474852D01*
X314419Y474816D01*
X314267Y474784D01*
X314114Y474755D01*
X313960Y474731D01*
X313805Y474710D01*
X313650Y474693D01*
X313495Y474679D01*
X313340Y474670D01*
X313184Y474664D01*
X313028Y474662D01*
X313028Y474663D02*
X269330Y474663D01*
X89154Y504063D02*
X88900Y504825D01*
D19*
X313277Y556641D03*
D18*
X334769Y511969D02*
X333975Y511175D01*
D17*
X324099Y511175D01*
X323943Y511173D01*
X323787Y511167D01*
X323632Y511158D01*
X323477Y511144D01*
X323322Y511127D01*
X323167Y511106D01*
X323013Y511082D01*
X322860Y511053D01*
X322708Y511021D01*
X322556Y510985D01*
X322405Y510945D01*
X322256Y510902D01*
X322107Y510855D01*
X321960Y510804D01*
X321814Y510750D01*
X321669Y510692D01*
X321526Y510630D01*
X321384Y510565D01*
X321244Y510497D01*
X321106Y510425D01*
X320969Y510350D01*
X320834Y510272D01*
X320702Y510190D01*
X320571Y510105D01*
X320443Y510017D01*
X320316Y509925D01*
X320192Y509831D01*
X320071Y509734D01*
X319951Y509633D01*
X319835Y509530D01*
X319720Y509424D01*
X319609Y509315D01*
X316185Y505891D01*
X316076Y505780D01*
X315970Y505665D01*
X315867Y505549D01*
X315766Y505429D01*
X315669Y505308D01*
X315575Y505184D01*
X315483Y505057D01*
X315395Y504929D01*
X315310Y504798D01*
X315228Y504666D01*
X315150Y504531D01*
X315075Y504394D01*
X315003Y504256D01*
X314935Y504116D01*
X314870Y503974D01*
X314808Y503831D01*
X314750Y503686D01*
X314696Y503540D01*
X314645Y503393D01*
X314598Y503244D01*
X314555Y503095D01*
X314515Y502944D01*
X314479Y502792D01*
X314447Y502640D01*
X314418Y502487D01*
X314394Y502333D01*
X314373Y502178D01*
X314356Y502023D01*
X314342Y501868D01*
X314333Y501713D01*
X314327Y501557D01*
X314325Y501401D01*
X314325Y496343D01*
X314327Y496187D01*
X314333Y496031D01*
X314342Y495876D01*
X314356Y495721D01*
X314373Y495566D01*
X314394Y495411D01*
X314418Y495257D01*
X314447Y495104D01*
X314479Y494952D01*
X314515Y494800D01*
X314555Y494649D01*
X314598Y494500D01*
X314645Y494351D01*
X314696Y494204D01*
X314750Y494058D01*
X314808Y493913D01*
X314870Y493770D01*
X314935Y493628D01*
X315003Y493488D01*
X315075Y493350D01*
X315150Y493213D01*
X315228Y493078D01*
X315310Y492946D01*
X315395Y492815D01*
X315483Y492687D01*
X315575Y492560D01*
X315669Y492436D01*
X315766Y492315D01*
X315867Y492195D01*
X315970Y492079D01*
X316076Y491964D01*
X316185Y491853D01*
X319704Y488333D01*
X319815Y488224D01*
X319930Y488118D01*
X320046Y488015D01*
X320166Y487914D01*
X320287Y487817D01*
X320411Y487723D01*
X320538Y487631D01*
X320666Y487543D01*
X320797Y487458D01*
X320929Y487376D01*
X321064Y487298D01*
X321201Y487223D01*
X321339Y487151D01*
X321479Y487083D01*
X321621Y487018D01*
X321764Y486956D01*
X321909Y486898D01*
X322055Y486844D01*
X322202Y486793D01*
X322351Y486746D01*
X322500Y486703D01*
X322651Y486663D01*
X322803Y486627D01*
X322955Y486595D01*
X323108Y486566D01*
X323262Y486542D01*
X323417Y486521D01*
X323572Y486504D01*
X323727Y486490D01*
X323882Y486481D01*
X324038Y486475D01*
X324194Y486473D01*
X324194Y486474D02*
X327470Y486474D01*
D18*
X334674Y486474D02*
X334769Y486569D01*
X334674Y486474D02*
X327470Y486474D01*
D17*
X479711Y512609D02*
X484163Y532606D01*
X283464Y498348D02*
X283464Y486918D01*
X282769Y486569D01*
X283464Y498348D02*
X282769Y499269D01*
X253111Y555498D02*
X245745Y555498D01*
X277363Y533876D02*
X323030Y533876D01*
X277363Y533876D02*
X277207Y533878D01*
X277051Y533884D01*
X276896Y533893D01*
X276741Y533907D01*
X276586Y533924D01*
X276431Y533945D01*
X276277Y533969D01*
X276124Y533998D01*
X275972Y534030D01*
X275820Y534066D01*
X275669Y534106D01*
X275520Y534149D01*
X275371Y534196D01*
X275224Y534247D01*
X275078Y534301D01*
X274933Y534359D01*
X274790Y534421D01*
X274648Y534486D01*
X274508Y534554D01*
X274370Y534626D01*
X274233Y534701D01*
X274098Y534779D01*
X273966Y534861D01*
X273835Y534946D01*
X273707Y535034D01*
X273580Y535126D01*
X273456Y535220D01*
X273335Y535317D01*
X273215Y535418D01*
X273099Y535521D01*
X272984Y535627D01*
X272873Y535736D01*
X253111Y555498D01*
X333724Y525812D02*
X333756Y525780D01*
X333724Y525812D02*
X327520Y532016D01*
X327519Y532016D02*
X327408Y532125D01*
X327293Y532231D01*
X327177Y532334D01*
X327057Y532435D01*
X326936Y532532D01*
X326812Y532626D01*
X326685Y532718D01*
X326557Y532806D01*
X326426Y532891D01*
X326294Y532973D01*
X326159Y533051D01*
X326022Y533126D01*
X325884Y533198D01*
X325744Y533266D01*
X325602Y533331D01*
X325459Y533393D01*
X325314Y533451D01*
X325168Y533505D01*
X325021Y533556D01*
X324872Y533603D01*
X324723Y533646D01*
X324572Y533686D01*
X324420Y533722D01*
X324268Y533754D01*
X324115Y533783D01*
X323961Y533807D01*
X323806Y533828D01*
X323651Y533845D01*
X323496Y533859D01*
X323341Y533868D01*
X323185Y533874D01*
X323029Y533876D01*
X245745Y555498D02*
X245244Y556419D01*
X333756Y525780D02*
X334769Y524669D01*
X294502Y499930D02*
X282769Y499269D01*
X294502Y499930D02*
X294658Y499941D01*
X294813Y499955D01*
X294968Y499974D01*
X295123Y499996D01*
X295277Y500022D01*
X295430Y500051D01*
X295582Y500085D01*
X295734Y500122D01*
X295884Y500163D01*
X296034Y500207D01*
X296182Y500256D01*
X296330Y500308D01*
X296475Y500363D01*
X296620Y500422D01*
X296763Y500485D01*
X296904Y500551D01*
X297044Y500620D01*
X297182Y500693D01*
X297318Y500770D01*
X297452Y500849D01*
X297584Y500932D01*
X297715Y501018D01*
X297843Y501108D01*
X297968Y501200D01*
X298092Y501295D01*
X298213Y501394D01*
X298331Y501495D01*
X298447Y501600D01*
X298561Y501707D01*
X298561Y501706D02*
X320026Y522479D01*
X320139Y522586D01*
X320255Y522690D01*
X320373Y522791D01*
X320494Y522889D01*
X320617Y522984D01*
X320742Y523077D01*
X320869Y523166D01*
X320999Y523252D01*
X321131Y523334D01*
X321264Y523414D01*
X321400Y523490D01*
X321537Y523563D01*
X321676Y523632D01*
X321817Y523698D01*
X321960Y523761D01*
X322103Y523820D01*
X322249Y523875D01*
X322395Y523927D01*
X322543Y523975D01*
X322692Y524020D01*
X322842Y524061D01*
X322993Y524098D01*
X323145Y524132D01*
X323298Y524162D01*
X323451Y524188D01*
X333724Y525812D01*
D18*
X417530Y495727D02*
X417601Y495653D01*
X417670Y495576D01*
X417736Y495496D01*
X417799Y495414D01*
X417859Y495330D01*
X417915Y495244D01*
X417968Y495155D01*
X418018Y495065D01*
X418065Y494973D01*
X418108Y494879D01*
X418147Y494784D01*
X418183Y494687D01*
X418215Y494589D01*
X418244Y494490D01*
X418269Y494390D01*
X418290Y494289D01*
X418307Y494187D01*
X418321Y494085D01*
X418330Y493982D01*
X418336Y493879D01*
X418338Y493776D01*
X417530Y495727D02*
X400767Y512490D01*
X400658Y512601D01*
X400552Y512716D01*
X400449Y512832D01*
X400348Y512952D01*
X400251Y513073D01*
X400157Y513197D01*
X400065Y513324D01*
X399977Y513452D01*
X399892Y513583D01*
X399810Y513715D01*
X399732Y513850D01*
X399657Y513987D01*
X399585Y514125D01*
X399517Y514265D01*
X399452Y514407D01*
X399390Y514550D01*
X399332Y514695D01*
X399278Y514841D01*
X399227Y514988D01*
X399180Y515137D01*
X399137Y515286D01*
X399097Y515437D01*
X399061Y515589D01*
X399029Y515741D01*
X399000Y515894D01*
X398976Y516048D01*
X398955Y516203D01*
X398938Y516358D01*
X398924Y516513D01*
X398915Y516668D01*
X398909Y516824D01*
X398907Y516980D01*
X398907Y541433D01*
D17*
X398907Y555498D01*
D18*
X418338Y493776D02*
X426339Y485775D01*
X431513Y485775D01*
X398907Y555498D02*
X398438Y555625D01*
X297180Y555498D02*
X297180Y543338D01*
X296767Y542925D01*
X297180Y555498D02*
X297631Y556419D01*
D19*
X296767Y542925D03*
X398907Y541433D03*
D17*
X283464Y524637D02*
X283464Y512064D01*
X282769Y511969D01*
X283464Y524637D02*
X282769Y524669D01*
X243885Y513633D02*
X235458Y505206D01*
X243885Y513633D02*
X243994Y513744D01*
X244100Y513859D01*
X244203Y513975D01*
X244304Y514095D01*
X244401Y514216D01*
X244495Y514340D01*
X244587Y514467D01*
X244675Y514595D01*
X244760Y514726D01*
X244842Y514858D01*
X244920Y514993D01*
X244995Y515130D01*
X245067Y515268D01*
X245135Y515408D01*
X245200Y515550D01*
X245262Y515693D01*
X245320Y515838D01*
X245374Y515984D01*
X245425Y516131D01*
X245472Y516280D01*
X245515Y516429D01*
X245555Y516580D01*
X245591Y516732D01*
X245623Y516884D01*
X245652Y517037D01*
X245676Y517191D01*
X245697Y517346D01*
X245714Y517501D01*
X245728Y517656D01*
X245737Y517811D01*
X245743Y517967D01*
X245745Y518123D01*
X245745Y524637D01*
X245745Y528066D01*
X246038Y528638D01*
X235458Y505206D02*
X234950Y504825D01*
X245745Y524637D02*
X282321Y524637D01*
X282769Y524669D01*
X246038Y528638D02*
X245745Y524637D01*
X356362Y499491D02*
X377190Y499491D01*
X377513Y498475D01*
D19*
X356362Y499491D03*
D17*
X432054Y523494D02*
X440246Y523494D01*
X455980Y490424D02*
X466344Y480060D01*
X455980Y490424D02*
X455871Y490535D01*
X455765Y490650D01*
X455662Y490766D01*
X455561Y490886D01*
X455464Y491007D01*
X455370Y491131D01*
X455278Y491258D01*
X455190Y491386D01*
X455105Y491517D01*
X455023Y491649D01*
X454945Y491784D01*
X454870Y491921D01*
X454798Y492059D01*
X454730Y492199D01*
X454665Y492341D01*
X454603Y492484D01*
X454545Y492629D01*
X454491Y492775D01*
X454440Y492922D01*
X454393Y493071D01*
X454350Y493220D01*
X454310Y493371D01*
X454274Y493523D01*
X454242Y493675D01*
X454213Y493828D01*
X454189Y493982D01*
X454168Y494137D01*
X454151Y494292D01*
X454137Y494447D01*
X454128Y494602D01*
X454122Y494758D01*
X454120Y494914D01*
X454120Y506989D01*
X454118Y507145D01*
X454112Y507301D01*
X454103Y507456D01*
X454089Y507611D01*
X454072Y507766D01*
X454051Y507921D01*
X454027Y508075D01*
X453998Y508228D01*
X453966Y508380D01*
X453930Y508532D01*
X453890Y508683D01*
X453847Y508832D01*
X453800Y508981D01*
X453749Y509128D01*
X453695Y509274D01*
X453637Y509419D01*
X453575Y509562D01*
X453510Y509704D01*
X453442Y509844D01*
X453370Y509982D01*
X453295Y510119D01*
X453217Y510254D01*
X453135Y510386D01*
X453050Y510517D01*
X452962Y510645D01*
X452870Y510772D01*
X452776Y510896D01*
X452679Y511017D01*
X452578Y511137D01*
X452475Y511253D01*
X452369Y511368D01*
X452260Y511479D01*
X440246Y523494D01*
X432054Y523494D02*
X431513Y523875D01*
X466344Y480060D02*
X466725Y479425D01*
X381762Y523494D02*
X378333Y523494D01*
X411250Y494006D02*
X411345Y493908D01*
X411437Y493808D01*
X411526Y493704D01*
X411612Y493599D01*
X411695Y493490D01*
X411775Y493380D01*
X411852Y493267D01*
X411925Y493152D01*
X411995Y493035D01*
X412061Y492916D01*
X412124Y492795D01*
X412184Y492672D01*
X412240Y492548D01*
X412292Y492422D01*
X412340Y492294D01*
X412385Y492166D01*
X412426Y492036D01*
X412463Y491904D01*
X412497Y491772D01*
X412526Y491639D01*
X412552Y491505D01*
X412574Y491370D01*
X412591Y491235D01*
X412605Y491100D01*
X412615Y490964D01*
X412621Y490827D01*
X412623Y490691D01*
X411250Y494006D02*
X381762Y523494D01*
X448400Y454914D02*
X466344Y454914D01*
X448400Y454914D02*
X448244Y454916D01*
X448088Y454922D01*
X447933Y454931D01*
X447778Y454945D01*
X447623Y454962D01*
X447468Y454983D01*
X447314Y455007D01*
X447161Y455036D01*
X447009Y455068D01*
X446857Y455104D01*
X446706Y455144D01*
X446557Y455187D01*
X446408Y455234D01*
X446261Y455285D01*
X446115Y455339D01*
X445970Y455397D01*
X445827Y455459D01*
X445685Y455524D01*
X445545Y455592D01*
X445407Y455664D01*
X445270Y455739D01*
X445135Y455817D01*
X445003Y455899D01*
X444872Y455984D01*
X444744Y456072D01*
X444617Y456164D01*
X444493Y456258D01*
X444372Y456355D01*
X444252Y456456D01*
X444136Y456559D01*
X444021Y456665D01*
X443910Y456774D01*
X414483Y486201D01*
X414374Y486312D01*
X414268Y486427D01*
X414165Y486543D01*
X414064Y486663D01*
X413967Y486784D01*
X413873Y486908D01*
X413781Y487035D01*
X413693Y487163D01*
X413608Y487294D01*
X413526Y487426D01*
X413448Y487561D01*
X413373Y487698D01*
X413301Y487836D01*
X413233Y487976D01*
X413168Y488118D01*
X413106Y488261D01*
X413048Y488406D01*
X412994Y488552D01*
X412943Y488699D01*
X412896Y488848D01*
X412853Y488997D01*
X412813Y489148D01*
X412777Y489300D01*
X412745Y489452D01*
X412716Y489605D01*
X412692Y489759D01*
X412671Y489914D01*
X412654Y490069D01*
X412640Y490224D01*
X412631Y490379D01*
X412625Y490535D01*
X412623Y490691D01*
X378333Y523494D02*
X377513Y523875D01*
X466344Y454914D02*
X466725Y454025D01*
X277749Y556641D02*
X277082Y556641D01*
X171971Y568592D02*
X150876Y547497D01*
X171972Y568592D02*
X172083Y568701D01*
X172198Y568807D01*
X172314Y568910D01*
X172434Y569011D01*
X172555Y569108D01*
X172679Y569202D01*
X172806Y569294D01*
X172934Y569382D01*
X173065Y569467D01*
X173197Y569549D01*
X173332Y569627D01*
X173469Y569702D01*
X173607Y569774D01*
X173747Y569842D01*
X173889Y569907D01*
X174032Y569969D01*
X174177Y570027D01*
X174323Y570081D01*
X174470Y570132D01*
X174619Y570179D01*
X174768Y570222D01*
X174919Y570262D01*
X175071Y570298D01*
X175223Y570330D01*
X175376Y570359D01*
X175530Y570383D01*
X175685Y570404D01*
X175840Y570421D01*
X175995Y570435D01*
X176150Y570444D01*
X176306Y570450D01*
X176462Y570452D01*
X260641Y570452D01*
X260797Y570450D01*
X260953Y570444D01*
X261108Y570435D01*
X261263Y570421D01*
X261418Y570404D01*
X261573Y570383D01*
X261727Y570359D01*
X261880Y570330D01*
X262032Y570298D01*
X262184Y570262D01*
X262335Y570222D01*
X262484Y570179D01*
X262633Y570132D01*
X262780Y570081D01*
X262926Y570027D01*
X263071Y569969D01*
X263214Y569907D01*
X263356Y569842D01*
X263496Y569774D01*
X263634Y569702D01*
X263771Y569627D01*
X263906Y569549D01*
X264038Y569467D01*
X264169Y569382D01*
X264297Y569294D01*
X264424Y569202D01*
X264548Y569108D01*
X264669Y569011D01*
X264789Y568910D01*
X264905Y568807D01*
X265020Y568701D01*
X265131Y568592D01*
X277082Y556641D01*
X277749Y556641D02*
X278631Y556419D01*
X150876Y547497D02*
X150813Y546894D01*
X362522Y512064D02*
X377190Y512064D01*
X377513Y511175D01*
D19*
X362522Y512064D03*
D17*
X410845Y514985D02*
X426339Y499491D01*
X430911Y499491D01*
X431513Y498475D01*
D19*
X418338Y532638D03*
X410845Y514985D03*
D17*
X418338Y532638D02*
X430969Y555625D01*
X465969Y555625D02*
X465163Y532606D01*
M02*
