M48
;GenerationSoftware,Autodesk,EAGLE,9.4.2*%
;CreationDate,2019-08-11T15:58:35Z*%
FMAT,2
ICI,OFF
METRIC,TZ,000.000
T4C0.350
T3C1.016
T2C1.270
T1C3.810
%
G90
M71
T1
X38223Y42673
X6222Y42673
X6222Y10673
X38223Y10673
T2
X8890Y50482
X13970Y50482
X18415Y50482
X23495Y50482
T3
X17621Y54689
X15081Y54689
X12541Y54689
X49212Y47942
X46672Y50482
X49212Y50482
X46672Y47942
X46672Y45402
X49212Y45402
X46672Y42863
X49212Y42863
X46672Y40323
X49212Y40323
X46672Y37783
X49212Y37783
X46672Y35243
X49212Y35243
X46672Y32702
X49212Y32702
X46672Y30162
X49212Y30162
X46672Y27622
X49212Y27622
X46672Y25082
X49212Y25082
X46672Y22542
X49212Y22542
X46672Y20003
X49212Y20003
X46672Y17463
X49212Y17463
X46672Y14922
X49212Y14922
X46672Y12382
X49212Y12382
X46672Y9843
X49212Y9843
X46672Y7302
X49212Y7302
X46672Y4763
X49212Y4763
X46672Y2223
X49212Y2223
T4
X29677Y54292
X39891Y54143
X35636Y49949
X36252Y51206
X31328Y55664
X41085Y51498
X41834Y53264
M30