G04 EAGLE Gerber RS-274X export*
G75*
%MOMM*%
%FSLAX34Y34*%
%LPD*%
%IN*%
%IPPOS*%
%AMOC8*
5,1,8,0,0,1.08239X$1,22.5*%
G01*
%ADD10C,0.254000*%


D10*
X0Y102235D02*
X232Y96922D01*
X926Y91649D01*
X2077Y86457D01*
X3676Y81385D01*
X5711Y76472D01*
X8167Y71755D01*
X11025Y67270D01*
X14262Y63051D01*
X17855Y59130D01*
X21776Y55537D01*
X25995Y52300D01*
X30480Y49442D01*
X35197Y46987D01*
X40110Y44951D01*
X45182Y43352D01*
X50374Y42201D01*
X55647Y41507D01*
X60960Y41275D01*
X428625Y41275D01*
X429732Y41227D01*
X430830Y41082D01*
X431912Y40842D01*
X432969Y40509D01*
X433992Y40085D01*
X434975Y39574D01*
X435909Y38978D01*
X436788Y38304D01*
X437605Y37555D01*
X438354Y36738D01*
X439028Y35859D01*
X439624Y34925D01*
X440135Y33942D01*
X440559Y32919D01*
X440892Y31862D01*
X441132Y30780D01*
X441277Y29682D01*
X441325Y28575D01*
X441325Y12700D01*
X441373Y11593D01*
X441518Y10495D01*
X441758Y9413D01*
X442091Y8356D01*
X442515Y7333D01*
X443026Y6350D01*
X443622Y5416D01*
X444296Y4537D01*
X445045Y3720D01*
X445862Y2971D01*
X446741Y2297D01*
X447675Y1701D01*
X448658Y1190D01*
X449681Y766D01*
X450738Y433D01*
X451820Y193D01*
X452918Y48D01*
X454025Y0D01*
X504625Y0D01*
X505732Y48D01*
X506830Y193D01*
X507912Y433D01*
X508969Y766D01*
X509992Y1190D01*
X510975Y1701D01*
X511909Y2297D01*
X512788Y2971D01*
X513605Y3720D01*
X514354Y4537D01*
X515028Y5416D01*
X515624Y6350D01*
X516135Y7333D01*
X516559Y8356D01*
X516892Y9413D01*
X517132Y10495D01*
X517277Y11593D01*
X517325Y12700D01*
X516602Y531767D01*
X516402Y536194D01*
X515817Y540587D01*
X514852Y544912D01*
X513513Y549136D01*
X511811Y553227D01*
X509759Y557155D01*
X507372Y560889D01*
X504670Y564400D01*
X501671Y567663D01*
X498399Y570652D01*
X494880Y573344D01*
X491139Y575720D01*
X487205Y577760D01*
X483109Y579450D01*
X478881Y580776D01*
X474553Y581729D01*
X470159Y582301D01*
X465802Y582488D01*
X127000Y582488D01*
X115931Y582004D01*
X104947Y580558D01*
X94130Y578160D01*
X83563Y574828D01*
X73327Y570589D01*
X63500Y565473D01*
X54156Y559520D01*
X45366Y552775D01*
X37197Y545290D01*
X29712Y537122D01*
X22968Y528332D01*
X17015Y518988D01*
X11899Y509160D01*
X7659Y498924D01*
X4327Y488358D01*
X1929Y477541D01*
X483Y466556D01*
X0Y455488D01*
X0Y102235D01*
X422250Y264246D02*
X422250Y269155D01*
X422130Y274062D01*
X421889Y278965D01*
X421528Y283861D01*
X421046Y288746D01*
X420445Y293618D01*
X419725Y298474D01*
X418886Y303311D01*
X417928Y308125D01*
X416853Y312915D01*
X415660Y317677D01*
X414351Y322408D01*
X412926Y327106D01*
X411386Y331767D01*
X409732Y336389D01*
X407965Y340969D01*
X406087Y345504D01*
X404097Y349992D01*
X401998Y354430D01*
X399791Y358815D01*
X397477Y363144D01*
X395058Y367415D01*
X392534Y371626D01*
X389908Y375773D01*
X387180Y379855D01*
X384354Y383868D01*
X381429Y387811D01*
X378409Y391681D01*
X375295Y395476D01*
X372089Y399193D01*
X368792Y402830D01*
X365407Y406386D01*
X361936Y409857D01*
X358380Y413242D01*
X354743Y416539D01*
X351026Y419745D01*
X347231Y422859D01*
X343361Y425879D01*
X339418Y428804D01*
X335405Y431630D01*
X331323Y434358D01*
X327176Y436984D01*
X322965Y439508D01*
X318694Y441927D01*
X314365Y444241D01*
X309980Y446448D01*
X305542Y448547D01*
X301054Y450537D01*
X296519Y452415D01*
X291939Y454182D01*
X287317Y455836D01*
X282656Y457376D01*
X277958Y458801D01*
X273227Y460110D01*
X268465Y461303D01*
X263675Y462378D01*
X258861Y463336D01*
X254024Y464175D01*
X249168Y464895D01*
X244296Y465496D01*
X239411Y465978D01*
X234515Y466339D01*
X229612Y466580D01*
X224705Y466700D01*
X219796Y466700D01*
X214888Y466580D01*
X209985Y466339D01*
X205089Y465978D01*
X200204Y465496D01*
X195332Y464895D01*
X190476Y464175D01*
X185639Y463336D01*
X180825Y462378D01*
X176035Y461303D01*
X171273Y460110D01*
X166542Y458801D01*
X161844Y457376D01*
X157183Y455836D01*
X152561Y454182D01*
X147981Y452415D01*
X143446Y450537D01*
X138958Y448547D01*
X134520Y446448D01*
X130135Y444241D01*
X125806Y441927D01*
X121535Y439508D01*
X117324Y436984D01*
X113177Y434358D01*
X109095Y431630D01*
X105082Y428804D01*
X101139Y425879D01*
X97269Y422859D01*
X93474Y419745D01*
X89757Y416539D01*
X86120Y413242D01*
X82564Y409857D01*
X79093Y406386D01*
X75708Y402830D01*
X72411Y399193D01*
X69205Y395476D01*
X66091Y391681D01*
X63071Y387811D01*
X60146Y383868D01*
X57320Y379855D01*
X54592Y375773D01*
X51966Y371626D01*
X49442Y367415D01*
X47023Y363144D01*
X44709Y358815D01*
X42502Y354430D01*
X40403Y349992D01*
X38413Y345504D01*
X36535Y340969D01*
X34768Y336389D01*
X33114Y331767D01*
X31574Y327106D01*
X30149Y322408D01*
X28840Y317677D01*
X27647Y312915D01*
X26572Y308125D01*
X25614Y303311D01*
X24775Y298474D01*
X24055Y293618D01*
X23454Y288746D01*
X22972Y283861D01*
X22611Y278965D01*
X22370Y274062D01*
X22250Y269155D01*
X22250Y264246D01*
X22370Y259338D01*
X22611Y254435D01*
X22972Y249539D01*
X23454Y244654D01*
X24055Y239782D01*
X24775Y234926D01*
X25614Y230089D01*
X26572Y225275D01*
X27647Y220485D01*
X28840Y215723D01*
X30149Y210992D01*
X31574Y206294D01*
X33114Y201633D01*
X34768Y197011D01*
X36535Y192431D01*
X38413Y187896D01*
X40403Y183408D01*
X42502Y178970D01*
X44709Y174585D01*
X47023Y170256D01*
X49442Y165985D01*
X51966Y161774D01*
X54592Y157627D01*
X57320Y153545D01*
X60146Y149532D01*
X63071Y145589D01*
X66091Y141719D01*
X69205Y137924D01*
X72411Y134207D01*
X75708Y130570D01*
X79093Y127014D01*
X82564Y123543D01*
X86120Y120158D01*
X89757Y116861D01*
X93474Y113655D01*
X97269Y110541D01*
X101139Y107521D01*
X105082Y104596D01*
X109095Y101770D01*
X113177Y99042D01*
X117324Y96416D01*
X121535Y93892D01*
X125806Y91473D01*
X130135Y89159D01*
X134520Y86952D01*
X138958Y84853D01*
X143446Y82863D01*
X147981Y80985D01*
X152561Y79218D01*
X157183Y77564D01*
X161844Y76024D01*
X166542Y74599D01*
X171273Y73290D01*
X176035Y72097D01*
X180825Y71022D01*
X185639Y70064D01*
X190476Y69225D01*
X195332Y68505D01*
X200204Y67904D01*
X205089Y67422D01*
X209985Y67061D01*
X214888Y66820D01*
X219796Y66700D01*
X224705Y66700D01*
X229612Y66820D01*
X234515Y67061D01*
X239411Y67422D01*
X244296Y67904D01*
X249168Y68505D01*
X254024Y69225D01*
X258861Y70064D01*
X263675Y71022D01*
X268465Y72097D01*
X273227Y73290D01*
X277958Y74599D01*
X282656Y76024D01*
X287317Y77564D01*
X291939Y79218D01*
X296519Y80985D01*
X301054Y82863D01*
X305542Y84853D01*
X309980Y86952D01*
X314365Y89159D01*
X318694Y91473D01*
X322965Y93892D01*
X327176Y96416D01*
X331323Y99042D01*
X335405Y101770D01*
X339418Y104596D01*
X343361Y107521D01*
X347231Y110541D01*
X351026Y113655D01*
X354743Y116861D01*
X358380Y120158D01*
X361936Y123543D01*
X365407Y127014D01*
X368792Y130570D01*
X372089Y134207D01*
X375295Y137924D01*
X378409Y141719D01*
X381429Y145589D01*
X384354Y149532D01*
X387180Y153545D01*
X389908Y157627D01*
X392534Y161774D01*
X395058Y165985D01*
X397477Y170256D01*
X399791Y174585D01*
X401998Y178970D01*
X404097Y183408D01*
X406087Y187896D01*
X407965Y192431D01*
X409732Y197011D01*
X411386Y201633D01*
X412926Y206294D01*
X414351Y210992D01*
X415660Y215723D01*
X416853Y220485D01*
X417928Y225275D01*
X418886Y230089D01*
X419725Y234926D01*
X420445Y239782D01*
X421046Y244654D01*
X421528Y249539D01*
X421889Y254435D01*
X422130Y259338D01*
X422250Y264246D01*
X381649Y407675D02*
X380500Y407745D01*
X379357Y407883D01*
X378225Y408091D01*
X377107Y408366D01*
X376008Y408709D01*
X374932Y409117D01*
X373882Y409590D01*
X372862Y410125D01*
X371877Y410720D01*
X370930Y411374D01*
X370023Y412084D01*
X369162Y412848D01*
X368348Y413662D01*
X367584Y414523D01*
X366874Y415430D01*
X366220Y416377D01*
X365625Y417362D01*
X365090Y418382D01*
X364617Y419432D01*
X364209Y420508D01*
X363866Y421607D01*
X363591Y422725D01*
X363383Y423857D01*
X363245Y425000D01*
X363175Y426149D01*
X363175Y427301D01*
X363245Y428450D01*
X363383Y429593D01*
X363591Y430725D01*
X363866Y431843D01*
X364209Y432942D01*
X364617Y434018D01*
X365090Y435068D01*
X365625Y436088D01*
X366220Y437073D01*
X366874Y438020D01*
X367584Y438927D01*
X368348Y439788D01*
X369162Y440602D01*
X370023Y441366D01*
X370930Y442076D01*
X371877Y442730D01*
X372862Y443325D01*
X373882Y443860D01*
X374932Y444333D01*
X376008Y444741D01*
X377107Y445084D01*
X378225Y445359D01*
X379357Y445567D01*
X380500Y445706D01*
X381649Y445775D01*
X382801Y445775D01*
X383950Y445706D01*
X385093Y445567D01*
X386225Y445359D01*
X387343Y445084D01*
X388442Y444741D01*
X389518Y444333D01*
X390568Y443860D01*
X391588Y443325D01*
X392573Y442730D01*
X393520Y442076D01*
X394427Y441366D01*
X395288Y440602D01*
X396102Y439788D01*
X396866Y438927D01*
X397576Y438020D01*
X398230Y437073D01*
X398825Y436088D01*
X399360Y435068D01*
X399833Y434018D01*
X400241Y432942D01*
X400584Y431843D01*
X400859Y430725D01*
X401067Y429593D01*
X401206Y428450D01*
X401275Y427301D01*
X401275Y426149D01*
X401206Y425000D01*
X401067Y423857D01*
X400859Y422725D01*
X400584Y421607D01*
X400241Y420508D01*
X399833Y419432D01*
X399360Y418382D01*
X398825Y417362D01*
X398230Y416377D01*
X397576Y415430D01*
X396866Y414523D01*
X396102Y413662D01*
X395288Y412848D01*
X394427Y412084D01*
X393520Y411374D01*
X392573Y410720D01*
X391588Y410125D01*
X390568Y409590D01*
X389518Y409117D01*
X388442Y408709D01*
X387343Y408366D01*
X386225Y408091D01*
X385093Y407883D01*
X383950Y407745D01*
X382801Y407675D01*
X381649Y407675D01*
X61649Y407675D02*
X60500Y407745D01*
X59357Y407883D01*
X58225Y408091D01*
X57107Y408366D01*
X56008Y408709D01*
X54932Y409117D01*
X53882Y409590D01*
X52862Y410125D01*
X51877Y410720D01*
X50930Y411374D01*
X50023Y412084D01*
X49162Y412848D01*
X48348Y413662D01*
X47584Y414523D01*
X46874Y415430D01*
X46220Y416377D01*
X45625Y417362D01*
X45090Y418382D01*
X44617Y419432D01*
X44209Y420508D01*
X43866Y421607D01*
X43591Y422725D01*
X43383Y423857D01*
X43245Y425000D01*
X43175Y426149D01*
X43175Y427301D01*
X43245Y428450D01*
X43383Y429593D01*
X43591Y430725D01*
X43866Y431843D01*
X44209Y432942D01*
X44617Y434018D01*
X45090Y435068D01*
X45625Y436088D01*
X46220Y437073D01*
X46874Y438020D01*
X47584Y438927D01*
X48348Y439788D01*
X49162Y440602D01*
X50023Y441366D01*
X50930Y442076D01*
X51877Y442730D01*
X52862Y443325D01*
X53882Y443860D01*
X54932Y444333D01*
X56008Y444741D01*
X57107Y445084D01*
X58225Y445359D01*
X59357Y445567D01*
X60500Y445706D01*
X61649Y445775D01*
X62801Y445775D01*
X63950Y445706D01*
X65093Y445567D01*
X66225Y445359D01*
X67343Y445084D01*
X68442Y444741D01*
X69518Y444333D01*
X70568Y443860D01*
X71588Y443325D01*
X72573Y442730D01*
X73520Y442076D01*
X74427Y441366D01*
X75288Y440602D01*
X76102Y439788D01*
X76866Y438927D01*
X77576Y438020D01*
X78230Y437073D01*
X78825Y436088D01*
X79360Y435068D01*
X79833Y434018D01*
X80241Y432942D01*
X80584Y431843D01*
X80859Y430725D01*
X81067Y429593D01*
X81206Y428450D01*
X81275Y427301D01*
X81275Y426149D01*
X81206Y425000D01*
X81067Y423857D01*
X80859Y422725D01*
X80584Y421607D01*
X80241Y420508D01*
X79833Y419432D01*
X79360Y418382D01*
X78825Y417362D01*
X78230Y416377D01*
X77576Y415430D01*
X76866Y414523D01*
X76102Y413662D01*
X75288Y412848D01*
X74427Y412084D01*
X73520Y411374D01*
X72573Y410720D01*
X71588Y410125D01*
X70568Y409590D01*
X69518Y409117D01*
X68442Y408709D01*
X67343Y408366D01*
X66225Y408091D01*
X65093Y407883D01*
X63950Y407745D01*
X62801Y407675D01*
X61649Y407675D01*
X61649Y87675D02*
X60500Y87745D01*
X59357Y87883D01*
X58225Y88091D01*
X57107Y88366D01*
X56008Y88709D01*
X54932Y89117D01*
X53882Y89590D01*
X52862Y90125D01*
X51877Y90720D01*
X50930Y91374D01*
X50023Y92084D01*
X49162Y92848D01*
X48348Y93662D01*
X47584Y94523D01*
X46874Y95430D01*
X46220Y96377D01*
X45625Y97362D01*
X45090Y98382D01*
X44617Y99432D01*
X44209Y100508D01*
X43866Y101607D01*
X43591Y102725D01*
X43383Y103857D01*
X43245Y105000D01*
X43175Y106149D01*
X43175Y107301D01*
X43245Y108450D01*
X43383Y109593D01*
X43591Y110725D01*
X43866Y111843D01*
X44209Y112942D01*
X44617Y114018D01*
X45090Y115068D01*
X45625Y116088D01*
X46220Y117073D01*
X46874Y118020D01*
X47584Y118927D01*
X48348Y119788D01*
X49162Y120602D01*
X50023Y121366D01*
X50930Y122076D01*
X51877Y122730D01*
X52862Y123325D01*
X53882Y123860D01*
X54932Y124333D01*
X56008Y124741D01*
X57107Y125084D01*
X58225Y125359D01*
X59357Y125567D01*
X60500Y125706D01*
X61649Y125775D01*
X62801Y125775D01*
X63950Y125706D01*
X65093Y125567D01*
X66225Y125359D01*
X67343Y125084D01*
X68442Y124741D01*
X69518Y124333D01*
X70568Y123860D01*
X71588Y123325D01*
X72573Y122730D01*
X73520Y122076D01*
X74427Y121366D01*
X75288Y120602D01*
X76102Y119788D01*
X76866Y118927D01*
X77576Y118020D01*
X78230Y117073D01*
X78825Y116088D01*
X79360Y115068D01*
X79833Y114018D01*
X80241Y112942D01*
X80584Y111843D01*
X80859Y110725D01*
X81067Y109593D01*
X81206Y108450D01*
X81275Y107301D01*
X81275Y106149D01*
X81206Y105000D01*
X81067Y103857D01*
X80859Y102725D01*
X80584Y101607D01*
X80241Y100508D01*
X79833Y99432D01*
X79360Y98382D01*
X78825Y97362D01*
X78230Y96377D01*
X77576Y95430D01*
X76866Y94523D01*
X76102Y93662D01*
X75288Y92848D01*
X74427Y92084D01*
X73520Y91374D01*
X72573Y90720D01*
X71588Y90125D01*
X70568Y89590D01*
X69518Y89117D01*
X68442Y88709D01*
X67343Y88366D01*
X66225Y88091D01*
X65093Y87883D01*
X63950Y87745D01*
X62801Y87675D01*
X61649Y87675D01*
X381649Y87675D02*
X380500Y87745D01*
X379357Y87883D01*
X378225Y88091D01*
X377107Y88366D01*
X376008Y88709D01*
X374932Y89117D01*
X373882Y89590D01*
X372862Y90125D01*
X371877Y90720D01*
X370930Y91374D01*
X370023Y92084D01*
X369162Y92848D01*
X368348Y93662D01*
X367584Y94523D01*
X366874Y95430D01*
X366220Y96377D01*
X365625Y97362D01*
X365090Y98382D01*
X364617Y99432D01*
X364209Y100508D01*
X363866Y101607D01*
X363591Y102725D01*
X363383Y103857D01*
X363245Y105000D01*
X363175Y106149D01*
X363175Y107301D01*
X363245Y108450D01*
X363383Y109593D01*
X363591Y110725D01*
X363866Y111843D01*
X364209Y112942D01*
X364617Y114018D01*
X365090Y115068D01*
X365625Y116088D01*
X366220Y117073D01*
X366874Y118020D01*
X367584Y118927D01*
X368348Y119788D01*
X369162Y120602D01*
X370023Y121366D01*
X370930Y122076D01*
X371877Y122730D01*
X372862Y123325D01*
X373882Y123860D01*
X374932Y124333D01*
X376008Y124741D01*
X377107Y125084D01*
X378225Y125359D01*
X379357Y125567D01*
X380500Y125706D01*
X381649Y125775D01*
X382801Y125775D01*
X383950Y125706D01*
X385093Y125567D01*
X386225Y125359D01*
X387343Y125084D01*
X388442Y124741D01*
X389518Y124333D01*
X390568Y123860D01*
X391588Y123325D01*
X392573Y122730D01*
X393520Y122076D01*
X394427Y121366D01*
X395288Y120602D01*
X396102Y119788D01*
X396866Y118927D01*
X397576Y118020D01*
X398230Y117073D01*
X398825Y116088D01*
X399360Y115068D01*
X399833Y114018D01*
X400241Y112942D01*
X400584Y111843D01*
X400859Y110725D01*
X401067Y109593D01*
X401206Y108450D01*
X401275Y107301D01*
X401275Y106149D01*
X401206Y105000D01*
X401067Y103857D01*
X400859Y102725D01*
X400584Y101607D01*
X400241Y100508D01*
X399833Y99432D01*
X399360Y98382D01*
X398825Y97362D01*
X398230Y96377D01*
X397576Y95430D01*
X396866Y94523D01*
X396102Y93662D01*
X395288Y92848D01*
X394427Y92084D01*
X393520Y91374D01*
X392573Y90720D01*
X391588Y90125D01*
X390568Y89590D01*
X389518Y89117D01*
X388442Y88709D01*
X387343Y88366D01*
X386225Y88091D01*
X385093Y87883D01*
X383950Y87745D01*
X382801Y87675D01*
X381649Y87675D01*
M02*
