G04 EAGLE Gerber RS-274X export*
G75*
%MOMM*%
%FSLAX34Y34*%
%LPD*%
%INSilkscreen Top*%
%IPPOS*%
%AMOC8*
5,1,8,0,0,1.08239X$1,22.5*%
G01*
%ADD10C,0.203200*%
%ADD11C,0.152400*%
%ADD12C,0.254000*%
%ADD13R,0.425000X0.325000*%
%ADD14R,0.350000X0.350000*%


D10*
X76422Y50229D02*
X76422Y60897D01*
X79386Y60897D01*
X79386Y60896D02*
X79493Y60894D01*
X79600Y60888D01*
X79706Y60879D01*
X79812Y60865D01*
X79918Y60848D01*
X80023Y60827D01*
X80127Y60802D01*
X80230Y60773D01*
X80332Y60741D01*
X80433Y60705D01*
X80532Y60665D01*
X80630Y60622D01*
X80726Y60575D01*
X80821Y60525D01*
X80914Y60472D01*
X81004Y60415D01*
X81093Y60355D01*
X81179Y60292D01*
X81263Y60226D01*
X81345Y60156D01*
X81424Y60084D01*
X81500Y60009D01*
X81574Y59931D01*
X81644Y59851D01*
X81712Y59768D01*
X81777Y59683D01*
X81838Y59596D01*
X81897Y59506D01*
X81952Y59414D01*
X82004Y59321D01*
X82052Y59225D01*
X82097Y59128D01*
X82139Y59030D01*
X82176Y58930D01*
X82211Y58828D01*
X82241Y58726D01*
X82268Y58622D01*
X82291Y58518D01*
X82310Y58412D01*
X82325Y58306D01*
X82337Y58200D01*
X82345Y58093D01*
X82349Y57986D01*
X82349Y57880D01*
X82345Y57773D01*
X82337Y57666D01*
X82325Y57560D01*
X82310Y57454D01*
X82291Y57348D01*
X82268Y57244D01*
X82241Y57140D01*
X82211Y57038D01*
X82176Y56936D01*
X82139Y56836D01*
X82097Y56738D01*
X82052Y56641D01*
X82004Y56545D01*
X81952Y56451D01*
X81897Y56360D01*
X81838Y56270D01*
X81777Y56183D01*
X81712Y56098D01*
X81644Y56015D01*
X81574Y55935D01*
X81500Y55857D01*
X81424Y55782D01*
X81345Y55710D01*
X81263Y55640D01*
X81179Y55574D01*
X81093Y55511D01*
X81004Y55451D01*
X80914Y55394D01*
X80821Y55341D01*
X80726Y55291D01*
X80630Y55244D01*
X80532Y55201D01*
X80433Y55161D01*
X80332Y55125D01*
X80230Y55093D01*
X80127Y55064D01*
X80023Y55039D01*
X79918Y55018D01*
X79812Y55001D01*
X79706Y54987D01*
X79600Y54978D01*
X79493Y54972D01*
X79386Y54970D01*
X76422Y54970D01*
X87895Y50229D02*
X87895Y60897D01*
X86709Y50229D02*
X89080Y50229D01*
X89080Y60897D02*
X86709Y60897D01*
X96446Y60897D02*
X94075Y52599D01*
X100002Y52599D01*
X98224Y50229D02*
X98224Y54970D01*
X111982Y50229D02*
X111982Y60897D01*
X117909Y50229D01*
X117909Y60897D01*
X123624Y54970D02*
X123624Y52599D01*
X123623Y54970D02*
X123625Y55067D01*
X123631Y55163D01*
X123641Y55259D01*
X123655Y55355D01*
X123672Y55450D01*
X123694Y55545D01*
X123719Y55638D01*
X123748Y55730D01*
X123781Y55821D01*
X123818Y55911D01*
X123858Y55999D01*
X123902Y56085D01*
X123949Y56169D01*
X123999Y56252D01*
X124053Y56332D01*
X124111Y56410D01*
X124171Y56486D01*
X124234Y56559D01*
X124300Y56629D01*
X124370Y56697D01*
X124441Y56762D01*
X124516Y56824D01*
X124593Y56882D01*
X124672Y56938D01*
X124753Y56990D01*
X124837Y57039D01*
X124922Y57085D01*
X125009Y57127D01*
X125098Y57165D01*
X125188Y57200D01*
X125280Y57231D01*
X125373Y57258D01*
X125466Y57282D01*
X125561Y57301D01*
X125657Y57317D01*
X125753Y57329D01*
X125849Y57337D01*
X125946Y57341D01*
X126042Y57341D01*
X126139Y57337D01*
X126235Y57329D01*
X126331Y57317D01*
X126427Y57301D01*
X126522Y57282D01*
X126615Y57258D01*
X126708Y57231D01*
X126800Y57200D01*
X126890Y57165D01*
X126979Y57127D01*
X127066Y57085D01*
X127151Y57039D01*
X127235Y56990D01*
X127316Y56938D01*
X127395Y56882D01*
X127472Y56824D01*
X127547Y56762D01*
X127618Y56697D01*
X127688Y56629D01*
X127754Y56559D01*
X127817Y56486D01*
X127877Y56410D01*
X127935Y56332D01*
X127989Y56252D01*
X128039Y56169D01*
X128086Y56085D01*
X128130Y55999D01*
X128170Y55911D01*
X128207Y55821D01*
X128240Y55730D01*
X128269Y55638D01*
X128294Y55545D01*
X128316Y55450D01*
X128333Y55355D01*
X128347Y55259D01*
X128357Y55163D01*
X128363Y55067D01*
X128365Y54970D01*
X128365Y52599D01*
X128363Y52502D01*
X128357Y52406D01*
X128347Y52310D01*
X128333Y52214D01*
X128316Y52119D01*
X128294Y52024D01*
X128269Y51931D01*
X128240Y51839D01*
X128207Y51748D01*
X128170Y51658D01*
X128130Y51570D01*
X128086Y51484D01*
X128039Y51400D01*
X127989Y51317D01*
X127935Y51237D01*
X127877Y51159D01*
X127817Y51083D01*
X127754Y51010D01*
X127688Y50940D01*
X127618Y50872D01*
X127547Y50807D01*
X127472Y50745D01*
X127395Y50687D01*
X127316Y50631D01*
X127235Y50579D01*
X127151Y50530D01*
X127066Y50484D01*
X126979Y50442D01*
X126890Y50404D01*
X126800Y50369D01*
X126708Y50338D01*
X126615Y50311D01*
X126522Y50287D01*
X126427Y50268D01*
X126331Y50252D01*
X126235Y50240D01*
X126139Y50232D01*
X126042Y50228D01*
X125946Y50228D01*
X125849Y50232D01*
X125753Y50240D01*
X125657Y50252D01*
X125561Y50268D01*
X125466Y50287D01*
X125373Y50311D01*
X125280Y50338D01*
X125188Y50369D01*
X125098Y50404D01*
X125009Y50442D01*
X124922Y50484D01*
X124837Y50530D01*
X124753Y50579D01*
X124672Y50631D01*
X124593Y50687D01*
X124516Y50745D01*
X124441Y50807D01*
X124370Y50872D01*
X124300Y50940D01*
X124234Y51010D01*
X124171Y51083D01*
X124111Y51159D01*
X124053Y51237D01*
X123999Y51317D01*
X123949Y51400D01*
X123902Y51484D01*
X123858Y51570D01*
X123818Y51658D01*
X123781Y51748D01*
X123748Y51839D01*
X123719Y51931D01*
X123694Y52024D01*
X123672Y52119D01*
X123655Y52214D01*
X123641Y52310D01*
X123631Y52406D01*
X123625Y52502D01*
X123623Y52599D01*
X135328Y50229D02*
X137698Y50229D01*
X135328Y50229D02*
X135246Y50231D01*
X135164Y50237D01*
X135082Y50246D01*
X135001Y50259D01*
X134921Y50276D01*
X134841Y50297D01*
X134763Y50321D01*
X134686Y50349D01*
X134610Y50380D01*
X134535Y50415D01*
X134463Y50454D01*
X134392Y50495D01*
X134323Y50540D01*
X134257Y50588D01*
X134192Y50639D01*
X134130Y50693D01*
X134071Y50750D01*
X134014Y50809D01*
X133960Y50871D01*
X133909Y50936D01*
X133861Y51002D01*
X133816Y51071D01*
X133775Y51142D01*
X133736Y51214D01*
X133701Y51289D01*
X133670Y51365D01*
X133642Y51442D01*
X133618Y51520D01*
X133597Y51600D01*
X133580Y51680D01*
X133567Y51761D01*
X133558Y51843D01*
X133552Y51925D01*
X133550Y52007D01*
X133550Y55563D01*
X133552Y55645D01*
X133558Y55727D01*
X133567Y55809D01*
X133580Y55890D01*
X133597Y55970D01*
X133618Y56050D01*
X133642Y56128D01*
X133670Y56205D01*
X133701Y56281D01*
X133736Y56356D01*
X133775Y56428D01*
X133816Y56499D01*
X133861Y56568D01*
X133909Y56634D01*
X133960Y56699D01*
X134014Y56761D01*
X134071Y56820D01*
X134130Y56877D01*
X134192Y56931D01*
X134257Y56982D01*
X134323Y57030D01*
X134392Y57075D01*
X134463Y57116D01*
X134535Y57155D01*
X134610Y57190D01*
X134686Y57221D01*
X134763Y57249D01*
X134841Y57273D01*
X134921Y57294D01*
X135001Y57311D01*
X135082Y57324D01*
X135164Y57333D01*
X135246Y57339D01*
X135328Y57341D01*
X137698Y57341D01*
X141223Y57341D02*
X144779Y57341D01*
X142408Y60897D02*
X142408Y52007D01*
X142410Y51925D01*
X142416Y51843D01*
X142425Y51761D01*
X142438Y51680D01*
X142455Y51600D01*
X142476Y51520D01*
X142500Y51442D01*
X142528Y51365D01*
X142559Y51289D01*
X142594Y51214D01*
X142633Y51142D01*
X142674Y51071D01*
X142719Y51002D01*
X142767Y50936D01*
X142818Y50871D01*
X142872Y50809D01*
X142929Y50750D01*
X142988Y50693D01*
X143050Y50639D01*
X143115Y50588D01*
X143181Y50540D01*
X143250Y50495D01*
X143321Y50454D01*
X143393Y50415D01*
X143468Y50380D01*
X143544Y50349D01*
X143621Y50321D01*
X143699Y50297D01*
X143779Y50276D01*
X143859Y50259D01*
X143940Y50246D01*
X144022Y50237D01*
X144104Y50231D01*
X144186Y50229D01*
X144779Y50229D01*
X149913Y52007D02*
X149913Y57341D01*
X149913Y52007D02*
X149915Y51925D01*
X149921Y51843D01*
X149930Y51761D01*
X149943Y51680D01*
X149960Y51600D01*
X149981Y51520D01*
X150005Y51442D01*
X150033Y51365D01*
X150064Y51289D01*
X150099Y51214D01*
X150138Y51142D01*
X150179Y51071D01*
X150224Y51002D01*
X150272Y50936D01*
X150323Y50871D01*
X150377Y50809D01*
X150434Y50750D01*
X150493Y50693D01*
X150555Y50639D01*
X150620Y50588D01*
X150686Y50540D01*
X150755Y50495D01*
X150826Y50454D01*
X150898Y50415D01*
X150973Y50380D01*
X151049Y50349D01*
X151126Y50321D01*
X151204Y50297D01*
X151284Y50276D01*
X151364Y50259D01*
X151445Y50246D01*
X151527Y50237D01*
X151609Y50231D01*
X151691Y50229D01*
X154654Y50229D01*
X154654Y57341D01*
X162186Y54377D02*
X164853Y54377D01*
X162186Y54377D02*
X162097Y54375D01*
X162008Y54369D01*
X161919Y54360D01*
X161831Y54346D01*
X161743Y54329D01*
X161656Y54308D01*
X161571Y54284D01*
X161486Y54255D01*
X161403Y54223D01*
X161321Y54188D01*
X161240Y54149D01*
X161162Y54107D01*
X161085Y54061D01*
X161011Y54012D01*
X160938Y53960D01*
X160868Y53904D01*
X160800Y53846D01*
X160735Y53785D01*
X160673Y53721D01*
X160613Y53655D01*
X160557Y53586D01*
X160503Y53515D01*
X160452Y53441D01*
X160405Y53366D01*
X160361Y53288D01*
X160320Y53209D01*
X160283Y53128D01*
X160249Y53045D01*
X160219Y52961D01*
X160193Y52876D01*
X160170Y52789D01*
X160151Y52702D01*
X160135Y52614D01*
X160124Y52526D01*
X160116Y52437D01*
X160112Y52348D01*
X160112Y52258D01*
X160116Y52169D01*
X160124Y52080D01*
X160135Y51992D01*
X160151Y51904D01*
X160170Y51817D01*
X160193Y51730D01*
X160219Y51645D01*
X160249Y51561D01*
X160283Y51478D01*
X160320Y51397D01*
X160361Y51318D01*
X160405Y51240D01*
X160452Y51165D01*
X160503Y51091D01*
X160557Y51020D01*
X160613Y50951D01*
X160673Y50885D01*
X160735Y50821D01*
X160800Y50760D01*
X160868Y50702D01*
X160938Y50646D01*
X161011Y50594D01*
X161085Y50545D01*
X161162Y50499D01*
X161240Y50457D01*
X161321Y50418D01*
X161403Y50383D01*
X161486Y50351D01*
X161571Y50322D01*
X161656Y50298D01*
X161743Y50277D01*
X161831Y50260D01*
X161919Y50246D01*
X162008Y50237D01*
X162097Y50231D01*
X162186Y50229D01*
X164853Y50229D01*
X164853Y55563D01*
X164851Y55645D01*
X164845Y55727D01*
X164836Y55809D01*
X164823Y55890D01*
X164806Y55970D01*
X164785Y56050D01*
X164761Y56128D01*
X164733Y56205D01*
X164702Y56281D01*
X164667Y56356D01*
X164628Y56428D01*
X164587Y56499D01*
X164542Y56568D01*
X164494Y56634D01*
X164443Y56699D01*
X164389Y56761D01*
X164332Y56820D01*
X164273Y56877D01*
X164211Y56931D01*
X164146Y56982D01*
X164080Y57030D01*
X164011Y57075D01*
X163940Y57116D01*
X163868Y57155D01*
X163793Y57190D01*
X163717Y57221D01*
X163640Y57249D01*
X163562Y57273D01*
X163482Y57294D01*
X163402Y57311D01*
X163321Y57324D01*
X163239Y57333D01*
X163157Y57339D01*
X163075Y57341D01*
X160704Y57341D01*
X176752Y52599D02*
X179123Y60897D01*
X176752Y52599D02*
X182679Y52599D01*
X180901Y50229D02*
X180901Y54970D01*
X188351Y54377D02*
X195463Y54377D01*
X200882Y60897D02*
X203253Y50229D01*
X205623Y57341D01*
X207994Y50229D01*
X210365Y60897D01*
X215148Y57341D02*
X215148Y50229D01*
X214852Y60304D02*
X214852Y60897D01*
X215445Y60897D01*
X215445Y60304D01*
X214852Y60304D01*
X220497Y57341D02*
X220497Y50229D01*
X220497Y57341D02*
X224053Y57341D01*
X224053Y56155D01*
X229796Y50229D02*
X232759Y50229D01*
X229796Y50229D02*
X229714Y50231D01*
X229632Y50237D01*
X229550Y50246D01*
X229469Y50259D01*
X229389Y50276D01*
X229309Y50297D01*
X229231Y50321D01*
X229154Y50349D01*
X229078Y50380D01*
X229003Y50415D01*
X228931Y50454D01*
X228860Y50495D01*
X228791Y50540D01*
X228725Y50588D01*
X228660Y50639D01*
X228598Y50693D01*
X228539Y50750D01*
X228482Y50809D01*
X228428Y50871D01*
X228377Y50936D01*
X228329Y51002D01*
X228284Y51071D01*
X228243Y51142D01*
X228204Y51214D01*
X228169Y51289D01*
X228138Y51365D01*
X228110Y51442D01*
X228086Y51520D01*
X228065Y51600D01*
X228048Y51680D01*
X228035Y51761D01*
X228026Y51843D01*
X228020Y51925D01*
X228018Y52007D01*
X228018Y54970D01*
X228017Y54970D02*
X228019Y55067D01*
X228025Y55163D01*
X228035Y55259D01*
X228049Y55355D01*
X228066Y55450D01*
X228088Y55545D01*
X228113Y55638D01*
X228142Y55730D01*
X228175Y55821D01*
X228212Y55911D01*
X228252Y55999D01*
X228296Y56085D01*
X228343Y56169D01*
X228393Y56252D01*
X228447Y56332D01*
X228505Y56410D01*
X228565Y56486D01*
X228628Y56559D01*
X228694Y56629D01*
X228764Y56697D01*
X228835Y56762D01*
X228910Y56824D01*
X228987Y56882D01*
X229066Y56938D01*
X229147Y56990D01*
X229231Y57039D01*
X229316Y57085D01*
X229403Y57127D01*
X229492Y57165D01*
X229582Y57200D01*
X229674Y57231D01*
X229767Y57258D01*
X229860Y57282D01*
X229955Y57301D01*
X230051Y57317D01*
X230147Y57329D01*
X230243Y57337D01*
X230340Y57341D01*
X230436Y57341D01*
X230533Y57337D01*
X230629Y57329D01*
X230725Y57317D01*
X230821Y57301D01*
X230916Y57282D01*
X231009Y57258D01*
X231102Y57231D01*
X231194Y57200D01*
X231284Y57165D01*
X231373Y57127D01*
X231460Y57085D01*
X231545Y57039D01*
X231629Y56990D01*
X231710Y56938D01*
X231789Y56882D01*
X231866Y56824D01*
X231941Y56762D01*
X232012Y56697D01*
X232082Y56629D01*
X232148Y56559D01*
X232211Y56486D01*
X232271Y56410D01*
X232329Y56332D01*
X232383Y56252D01*
X232433Y56169D01*
X232480Y56085D01*
X232524Y55999D01*
X232564Y55911D01*
X232601Y55821D01*
X232634Y55730D01*
X232663Y55638D01*
X232688Y55545D01*
X232710Y55450D01*
X232727Y55355D01*
X232741Y55259D01*
X232751Y55163D01*
X232757Y55067D01*
X232759Y54970D01*
X232759Y53785D01*
X228018Y53785D01*
X244604Y50229D02*
X244604Y60897D01*
X249345Y60897D01*
X249345Y56155D02*
X244604Y56155D01*
X255912Y54377D02*
X258579Y54377D01*
X255912Y54377D02*
X255823Y54375D01*
X255734Y54369D01*
X255645Y54360D01*
X255557Y54346D01*
X255469Y54329D01*
X255382Y54308D01*
X255297Y54284D01*
X255212Y54255D01*
X255129Y54223D01*
X255047Y54188D01*
X254966Y54149D01*
X254888Y54107D01*
X254811Y54061D01*
X254737Y54012D01*
X254664Y53960D01*
X254594Y53904D01*
X254526Y53846D01*
X254461Y53785D01*
X254399Y53721D01*
X254339Y53655D01*
X254283Y53586D01*
X254229Y53515D01*
X254178Y53441D01*
X254131Y53366D01*
X254087Y53288D01*
X254046Y53209D01*
X254009Y53128D01*
X253975Y53045D01*
X253945Y52961D01*
X253919Y52876D01*
X253896Y52789D01*
X253877Y52702D01*
X253861Y52614D01*
X253850Y52526D01*
X253842Y52437D01*
X253838Y52348D01*
X253838Y52258D01*
X253842Y52169D01*
X253850Y52080D01*
X253861Y51992D01*
X253877Y51904D01*
X253896Y51817D01*
X253919Y51730D01*
X253945Y51645D01*
X253975Y51561D01*
X254009Y51478D01*
X254046Y51397D01*
X254087Y51318D01*
X254131Y51240D01*
X254178Y51165D01*
X254229Y51091D01*
X254283Y51020D01*
X254339Y50951D01*
X254399Y50885D01*
X254461Y50821D01*
X254526Y50760D01*
X254594Y50702D01*
X254664Y50646D01*
X254737Y50594D01*
X254811Y50545D01*
X254888Y50499D01*
X254966Y50457D01*
X255047Y50418D01*
X255129Y50383D01*
X255212Y50351D01*
X255297Y50322D01*
X255382Y50298D01*
X255469Y50277D01*
X255557Y50260D01*
X255645Y50246D01*
X255734Y50237D01*
X255823Y50231D01*
X255912Y50229D01*
X258579Y50229D01*
X258579Y55563D01*
X258577Y55645D01*
X258571Y55727D01*
X258562Y55809D01*
X258549Y55890D01*
X258532Y55970D01*
X258511Y56050D01*
X258487Y56128D01*
X258459Y56205D01*
X258428Y56281D01*
X258393Y56356D01*
X258354Y56428D01*
X258313Y56499D01*
X258268Y56568D01*
X258220Y56634D01*
X258169Y56699D01*
X258115Y56761D01*
X258058Y56820D01*
X257999Y56877D01*
X257937Y56931D01*
X257872Y56982D01*
X257806Y57030D01*
X257737Y57075D01*
X257666Y57116D01*
X257594Y57155D01*
X257519Y57190D01*
X257443Y57221D01*
X257366Y57249D01*
X257288Y57273D01*
X257208Y57294D01*
X257128Y57311D01*
X257047Y57324D01*
X256965Y57333D01*
X256883Y57339D01*
X256801Y57341D01*
X254430Y57341D01*
X264594Y57341D02*
X264594Y50229D01*
X264594Y57341D02*
X267557Y57341D01*
X267639Y57339D01*
X267721Y57333D01*
X267803Y57324D01*
X267884Y57311D01*
X267964Y57294D01*
X268044Y57273D01*
X268122Y57249D01*
X268199Y57221D01*
X268275Y57190D01*
X268350Y57155D01*
X268422Y57116D01*
X268493Y57075D01*
X268562Y57030D01*
X268628Y56982D01*
X268693Y56931D01*
X268755Y56877D01*
X268814Y56820D01*
X268871Y56761D01*
X268925Y56699D01*
X268976Y56634D01*
X269024Y56568D01*
X269069Y56499D01*
X269110Y56428D01*
X269149Y56356D01*
X269184Y56281D01*
X269215Y56205D01*
X269243Y56128D01*
X269267Y56050D01*
X269288Y55970D01*
X269305Y55890D01*
X269318Y55809D01*
X269327Y55727D01*
X269333Y55645D01*
X269335Y55563D01*
X269335Y50229D01*
X283467Y50229D02*
X285837Y50229D01*
X283467Y50228D02*
X283372Y50230D01*
X283276Y50236D01*
X283181Y50245D01*
X283087Y50259D01*
X282993Y50276D01*
X282900Y50297D01*
X282807Y50322D01*
X282716Y50350D01*
X282626Y50382D01*
X282538Y50418D01*
X282451Y50457D01*
X282365Y50500D01*
X282282Y50546D01*
X282200Y50595D01*
X282120Y50648D01*
X282043Y50704D01*
X281967Y50762D01*
X281895Y50824D01*
X281825Y50889D01*
X281757Y50957D01*
X281692Y51027D01*
X281630Y51099D01*
X281572Y51175D01*
X281516Y51252D01*
X281463Y51332D01*
X281414Y51414D01*
X281368Y51497D01*
X281325Y51583D01*
X281286Y51670D01*
X281250Y51758D01*
X281218Y51848D01*
X281190Y51939D01*
X281165Y52032D01*
X281144Y52125D01*
X281127Y52219D01*
X281113Y52313D01*
X281104Y52408D01*
X281098Y52504D01*
X281096Y52599D01*
X281096Y58526D01*
X281098Y58621D01*
X281104Y58717D01*
X281113Y58812D01*
X281127Y58906D01*
X281144Y59000D01*
X281165Y59093D01*
X281190Y59186D01*
X281218Y59277D01*
X281250Y59367D01*
X281286Y59455D01*
X281325Y59542D01*
X281368Y59628D01*
X281414Y59711D01*
X281463Y59793D01*
X281516Y59873D01*
X281572Y59950D01*
X281630Y60026D01*
X281692Y60098D01*
X281757Y60168D01*
X281825Y60236D01*
X281895Y60301D01*
X281967Y60363D01*
X282043Y60421D01*
X282120Y60477D01*
X282200Y60530D01*
X282281Y60579D01*
X282365Y60625D01*
X282451Y60668D01*
X282538Y60707D01*
X282626Y60743D01*
X282716Y60775D01*
X282807Y60803D01*
X282900Y60828D01*
X282993Y60849D01*
X283087Y60866D01*
X283181Y60880D01*
X283276Y60889D01*
X283371Y60895D01*
X283467Y60897D01*
X285837Y60897D01*
X290502Y54970D02*
X290502Y52599D01*
X290501Y54970D02*
X290503Y55067D01*
X290509Y55163D01*
X290519Y55259D01*
X290533Y55355D01*
X290550Y55450D01*
X290572Y55545D01*
X290597Y55638D01*
X290626Y55730D01*
X290659Y55821D01*
X290696Y55911D01*
X290736Y55999D01*
X290780Y56085D01*
X290827Y56169D01*
X290877Y56252D01*
X290931Y56332D01*
X290989Y56410D01*
X291049Y56486D01*
X291112Y56559D01*
X291178Y56629D01*
X291248Y56697D01*
X291319Y56762D01*
X291394Y56824D01*
X291471Y56882D01*
X291550Y56938D01*
X291631Y56990D01*
X291715Y57039D01*
X291800Y57085D01*
X291887Y57127D01*
X291976Y57165D01*
X292066Y57200D01*
X292158Y57231D01*
X292251Y57258D01*
X292344Y57282D01*
X292439Y57301D01*
X292535Y57317D01*
X292631Y57329D01*
X292727Y57337D01*
X292824Y57341D01*
X292920Y57341D01*
X293017Y57337D01*
X293113Y57329D01*
X293209Y57317D01*
X293305Y57301D01*
X293400Y57282D01*
X293493Y57258D01*
X293586Y57231D01*
X293678Y57200D01*
X293768Y57165D01*
X293857Y57127D01*
X293944Y57085D01*
X294029Y57039D01*
X294113Y56990D01*
X294194Y56938D01*
X294273Y56882D01*
X294350Y56824D01*
X294425Y56762D01*
X294496Y56697D01*
X294566Y56629D01*
X294632Y56559D01*
X294695Y56486D01*
X294755Y56410D01*
X294813Y56332D01*
X294867Y56252D01*
X294917Y56169D01*
X294964Y56085D01*
X295008Y55999D01*
X295048Y55911D01*
X295085Y55821D01*
X295118Y55730D01*
X295147Y55638D01*
X295172Y55545D01*
X295194Y55450D01*
X295211Y55355D01*
X295225Y55259D01*
X295235Y55163D01*
X295241Y55067D01*
X295243Y54970D01*
X295243Y52599D01*
X295241Y52502D01*
X295235Y52406D01*
X295225Y52310D01*
X295211Y52214D01*
X295194Y52119D01*
X295172Y52024D01*
X295147Y51931D01*
X295118Y51839D01*
X295085Y51748D01*
X295048Y51658D01*
X295008Y51570D01*
X294964Y51484D01*
X294917Y51400D01*
X294867Y51317D01*
X294813Y51237D01*
X294755Y51159D01*
X294695Y51083D01*
X294632Y51010D01*
X294566Y50940D01*
X294496Y50872D01*
X294425Y50807D01*
X294350Y50745D01*
X294273Y50687D01*
X294194Y50631D01*
X294113Y50579D01*
X294029Y50530D01*
X293944Y50484D01*
X293857Y50442D01*
X293768Y50404D01*
X293678Y50369D01*
X293586Y50338D01*
X293493Y50311D01*
X293400Y50287D01*
X293305Y50268D01*
X293209Y50252D01*
X293113Y50240D01*
X293017Y50232D01*
X292920Y50228D01*
X292824Y50228D01*
X292727Y50232D01*
X292631Y50240D01*
X292535Y50252D01*
X292439Y50268D01*
X292344Y50287D01*
X292251Y50311D01*
X292158Y50338D01*
X292066Y50369D01*
X291976Y50404D01*
X291887Y50442D01*
X291800Y50484D01*
X291715Y50530D01*
X291631Y50579D01*
X291550Y50631D01*
X291471Y50687D01*
X291394Y50745D01*
X291319Y50807D01*
X291248Y50872D01*
X291178Y50940D01*
X291112Y51010D01*
X291049Y51083D01*
X290989Y51159D01*
X290931Y51237D01*
X290877Y51317D01*
X290827Y51400D01*
X290780Y51484D01*
X290736Y51570D01*
X290696Y51658D01*
X290659Y51748D01*
X290626Y51839D01*
X290597Y51931D01*
X290572Y52024D01*
X290550Y52119D01*
X290533Y52214D01*
X290519Y52310D01*
X290509Y52406D01*
X290503Y52502D01*
X290501Y52599D01*
X300789Y50229D02*
X300789Y57341D01*
X303752Y57341D01*
X303834Y57339D01*
X303916Y57333D01*
X303998Y57324D01*
X304079Y57311D01*
X304159Y57294D01*
X304239Y57273D01*
X304317Y57249D01*
X304394Y57221D01*
X304470Y57190D01*
X304545Y57155D01*
X304617Y57116D01*
X304688Y57075D01*
X304757Y57030D01*
X304823Y56982D01*
X304888Y56931D01*
X304950Y56877D01*
X305009Y56820D01*
X305066Y56761D01*
X305120Y56699D01*
X305171Y56634D01*
X305219Y56568D01*
X305264Y56499D01*
X305305Y56428D01*
X305344Y56356D01*
X305379Y56281D01*
X305410Y56205D01*
X305438Y56128D01*
X305462Y56050D01*
X305483Y55970D01*
X305500Y55890D01*
X305513Y55809D01*
X305522Y55727D01*
X305528Y55645D01*
X305530Y55563D01*
X305530Y50229D01*
X310006Y57341D02*
X313562Y57341D01*
X311191Y60897D02*
X311191Y52007D01*
X311193Y51925D01*
X311199Y51843D01*
X311208Y51761D01*
X311221Y51680D01*
X311238Y51600D01*
X311259Y51520D01*
X311283Y51442D01*
X311311Y51365D01*
X311342Y51289D01*
X311377Y51214D01*
X311416Y51142D01*
X311457Y51071D01*
X311502Y51002D01*
X311550Y50936D01*
X311601Y50871D01*
X311655Y50809D01*
X311712Y50750D01*
X311771Y50693D01*
X311833Y50639D01*
X311898Y50588D01*
X311964Y50540D01*
X312033Y50495D01*
X312104Y50454D01*
X312176Y50415D01*
X312251Y50380D01*
X312327Y50349D01*
X312404Y50321D01*
X312482Y50297D01*
X312562Y50276D01*
X312642Y50259D01*
X312723Y50246D01*
X312805Y50237D01*
X312887Y50231D01*
X312969Y50229D01*
X313562Y50229D01*
X318795Y50229D02*
X318795Y57341D01*
X322351Y57341D01*
X322351Y56155D01*
X326315Y54970D02*
X326315Y52599D01*
X326315Y54970D02*
X326317Y55067D01*
X326323Y55163D01*
X326333Y55259D01*
X326347Y55355D01*
X326364Y55450D01*
X326386Y55545D01*
X326411Y55638D01*
X326440Y55730D01*
X326473Y55821D01*
X326510Y55911D01*
X326550Y55999D01*
X326594Y56085D01*
X326641Y56169D01*
X326691Y56252D01*
X326745Y56332D01*
X326803Y56410D01*
X326863Y56486D01*
X326926Y56559D01*
X326992Y56629D01*
X327062Y56697D01*
X327133Y56762D01*
X327208Y56824D01*
X327285Y56882D01*
X327364Y56938D01*
X327445Y56990D01*
X327529Y57039D01*
X327614Y57085D01*
X327701Y57127D01*
X327790Y57165D01*
X327880Y57200D01*
X327972Y57231D01*
X328065Y57258D01*
X328158Y57282D01*
X328253Y57301D01*
X328349Y57317D01*
X328445Y57329D01*
X328541Y57337D01*
X328638Y57341D01*
X328734Y57341D01*
X328831Y57337D01*
X328927Y57329D01*
X329023Y57317D01*
X329119Y57301D01*
X329214Y57282D01*
X329307Y57258D01*
X329400Y57231D01*
X329492Y57200D01*
X329582Y57165D01*
X329671Y57127D01*
X329758Y57085D01*
X329843Y57039D01*
X329927Y56990D01*
X330008Y56938D01*
X330087Y56882D01*
X330164Y56824D01*
X330239Y56762D01*
X330310Y56697D01*
X330380Y56629D01*
X330446Y56559D01*
X330509Y56486D01*
X330569Y56410D01*
X330627Y56332D01*
X330681Y56252D01*
X330731Y56169D01*
X330778Y56085D01*
X330822Y55999D01*
X330862Y55911D01*
X330899Y55821D01*
X330932Y55730D01*
X330961Y55638D01*
X330986Y55545D01*
X331008Y55450D01*
X331025Y55355D01*
X331039Y55259D01*
X331049Y55163D01*
X331055Y55067D01*
X331057Y54970D01*
X331057Y52599D01*
X331055Y52502D01*
X331049Y52406D01*
X331039Y52310D01*
X331025Y52214D01*
X331008Y52119D01*
X330986Y52024D01*
X330961Y51931D01*
X330932Y51839D01*
X330899Y51748D01*
X330862Y51658D01*
X330822Y51570D01*
X330778Y51484D01*
X330731Y51400D01*
X330681Y51317D01*
X330627Y51237D01*
X330569Y51159D01*
X330509Y51083D01*
X330446Y51010D01*
X330380Y50940D01*
X330310Y50872D01*
X330239Y50807D01*
X330164Y50745D01*
X330087Y50687D01*
X330008Y50631D01*
X329927Y50579D01*
X329843Y50530D01*
X329758Y50484D01*
X329671Y50442D01*
X329582Y50404D01*
X329492Y50369D01*
X329400Y50338D01*
X329307Y50311D01*
X329214Y50287D01*
X329119Y50268D01*
X329023Y50252D01*
X328927Y50240D01*
X328831Y50232D01*
X328734Y50228D01*
X328638Y50228D01*
X328541Y50232D01*
X328445Y50240D01*
X328349Y50252D01*
X328253Y50268D01*
X328158Y50287D01*
X328065Y50311D01*
X327972Y50338D01*
X327880Y50369D01*
X327790Y50404D01*
X327701Y50442D01*
X327614Y50484D01*
X327529Y50530D01*
X327445Y50579D01*
X327364Y50631D01*
X327285Y50687D01*
X327208Y50745D01*
X327133Y50807D01*
X327062Y50872D01*
X326992Y50940D01*
X326926Y51010D01*
X326863Y51083D01*
X326803Y51159D01*
X326745Y51237D01*
X326691Y51317D01*
X326641Y51400D01*
X326594Y51484D01*
X326550Y51570D01*
X326510Y51658D01*
X326473Y51748D01*
X326440Y51839D01*
X326411Y51931D01*
X326386Y52024D01*
X326364Y52119D01*
X326347Y52214D01*
X326333Y52310D01*
X326323Y52406D01*
X326317Y52502D01*
X326315Y52599D01*
X336255Y52007D02*
X336255Y60897D01*
X336255Y52007D02*
X336257Y51925D01*
X336263Y51843D01*
X336272Y51761D01*
X336285Y51680D01*
X336302Y51600D01*
X336323Y51520D01*
X336347Y51442D01*
X336375Y51365D01*
X336406Y51289D01*
X336441Y51214D01*
X336480Y51142D01*
X336521Y51071D01*
X336566Y51002D01*
X336614Y50936D01*
X336665Y50871D01*
X336719Y50809D01*
X336776Y50750D01*
X336835Y50693D01*
X336897Y50639D01*
X336962Y50588D01*
X337028Y50540D01*
X337097Y50495D01*
X337168Y50454D01*
X337240Y50415D01*
X337315Y50380D01*
X337391Y50349D01*
X337468Y50321D01*
X337546Y50297D01*
X337626Y50276D01*
X337706Y50259D01*
X337787Y50246D01*
X337869Y50237D01*
X337951Y50231D01*
X338033Y50229D01*
X342351Y52007D02*
X342351Y60897D01*
X342351Y52007D02*
X342353Y51925D01*
X342359Y51843D01*
X342368Y51761D01*
X342381Y51680D01*
X342398Y51600D01*
X342419Y51520D01*
X342443Y51442D01*
X342471Y51365D01*
X342502Y51289D01*
X342537Y51214D01*
X342576Y51142D01*
X342617Y51071D01*
X342662Y51002D01*
X342710Y50936D01*
X342761Y50871D01*
X342815Y50809D01*
X342872Y50750D01*
X342931Y50693D01*
X342993Y50639D01*
X343058Y50588D01*
X343124Y50540D01*
X343193Y50495D01*
X343264Y50454D01*
X343336Y50415D01*
X343411Y50380D01*
X343487Y50349D01*
X343564Y50321D01*
X343642Y50297D01*
X343722Y50276D01*
X343802Y50259D01*
X343883Y50246D01*
X343965Y50237D01*
X344047Y50231D01*
X344129Y50229D01*
X350191Y50229D02*
X353155Y50229D01*
X350191Y50229D02*
X350109Y50231D01*
X350027Y50237D01*
X349945Y50246D01*
X349864Y50259D01*
X349784Y50276D01*
X349704Y50297D01*
X349626Y50321D01*
X349549Y50349D01*
X349473Y50380D01*
X349398Y50415D01*
X349326Y50454D01*
X349255Y50495D01*
X349186Y50540D01*
X349120Y50588D01*
X349055Y50639D01*
X348993Y50693D01*
X348934Y50750D01*
X348877Y50809D01*
X348823Y50871D01*
X348772Y50936D01*
X348724Y51002D01*
X348679Y51071D01*
X348638Y51142D01*
X348599Y51214D01*
X348564Y51289D01*
X348533Y51365D01*
X348505Y51442D01*
X348481Y51520D01*
X348460Y51600D01*
X348443Y51680D01*
X348430Y51761D01*
X348421Y51843D01*
X348415Y51925D01*
X348413Y52007D01*
X348413Y54970D01*
X348415Y55067D01*
X348421Y55163D01*
X348431Y55259D01*
X348445Y55355D01*
X348462Y55450D01*
X348484Y55545D01*
X348509Y55638D01*
X348538Y55730D01*
X348571Y55821D01*
X348608Y55911D01*
X348648Y55999D01*
X348692Y56085D01*
X348739Y56169D01*
X348789Y56252D01*
X348843Y56332D01*
X348901Y56410D01*
X348961Y56486D01*
X349024Y56559D01*
X349090Y56629D01*
X349160Y56697D01*
X349231Y56762D01*
X349306Y56824D01*
X349383Y56882D01*
X349462Y56938D01*
X349543Y56990D01*
X349627Y57039D01*
X349712Y57085D01*
X349799Y57127D01*
X349888Y57165D01*
X349978Y57200D01*
X350070Y57231D01*
X350163Y57258D01*
X350256Y57282D01*
X350351Y57301D01*
X350447Y57317D01*
X350543Y57329D01*
X350639Y57337D01*
X350736Y57341D01*
X350832Y57341D01*
X350929Y57337D01*
X351025Y57329D01*
X351121Y57317D01*
X351217Y57301D01*
X351312Y57282D01*
X351405Y57258D01*
X351498Y57231D01*
X351590Y57200D01*
X351680Y57165D01*
X351769Y57127D01*
X351856Y57085D01*
X351941Y57039D01*
X352025Y56990D01*
X352106Y56938D01*
X352185Y56882D01*
X352262Y56824D01*
X352337Y56762D01*
X352408Y56697D01*
X352478Y56629D01*
X352544Y56559D01*
X352607Y56486D01*
X352667Y56410D01*
X352725Y56332D01*
X352779Y56252D01*
X352829Y56169D01*
X352876Y56085D01*
X352920Y55999D01*
X352960Y55911D01*
X352997Y55821D01*
X353030Y55730D01*
X353059Y55638D01*
X353084Y55545D01*
X353106Y55450D01*
X353123Y55355D01*
X353137Y55259D01*
X353147Y55163D01*
X353153Y55067D01*
X353155Y54970D01*
X353155Y53785D01*
X348413Y53785D01*
X358800Y50229D02*
X358800Y57341D01*
X362356Y57341D01*
X362356Y56155D01*
X372755Y54377D02*
X379867Y54377D01*
X391043Y60897D02*
X394599Y50229D01*
X398155Y60897D01*
X406325Y60896D02*
X406427Y60894D01*
X406529Y60888D01*
X406631Y60878D01*
X406732Y60865D01*
X406833Y60847D01*
X406933Y60826D01*
X407032Y60801D01*
X407130Y60772D01*
X407226Y60739D01*
X407322Y60703D01*
X407416Y60663D01*
X407508Y60619D01*
X407599Y60572D01*
X407688Y60521D01*
X407775Y60468D01*
X407859Y60410D01*
X407942Y60350D01*
X408022Y60287D01*
X408099Y60220D01*
X408174Y60151D01*
X408247Y60078D01*
X408316Y60003D01*
X408383Y59926D01*
X408446Y59846D01*
X408506Y59763D01*
X408564Y59679D01*
X408617Y59592D01*
X408668Y59503D01*
X408715Y59412D01*
X408759Y59320D01*
X408799Y59226D01*
X408835Y59130D01*
X408868Y59034D01*
X408897Y58936D01*
X408922Y58837D01*
X408943Y58737D01*
X408961Y58636D01*
X408974Y58535D01*
X408984Y58433D01*
X408990Y58331D01*
X408992Y58229D01*
X406325Y60896D02*
X406209Y60894D01*
X406092Y60888D01*
X405976Y60878D01*
X405861Y60864D01*
X405746Y60847D01*
X405631Y60825D01*
X405518Y60799D01*
X405405Y60770D01*
X405293Y60737D01*
X405183Y60700D01*
X405074Y60659D01*
X404966Y60615D01*
X404860Y60567D01*
X404756Y60515D01*
X404653Y60460D01*
X404552Y60402D01*
X404454Y60340D01*
X404357Y60275D01*
X404263Y60206D01*
X404171Y60134D01*
X404082Y60060D01*
X403995Y59982D01*
X403911Y59901D01*
X403830Y59818D01*
X403752Y59732D01*
X403676Y59643D01*
X403604Y59552D01*
X403535Y59458D01*
X403469Y59362D01*
X403406Y59264D01*
X403347Y59164D01*
X403291Y59062D01*
X403239Y58958D01*
X403190Y58852D01*
X403145Y58745D01*
X403103Y58636D01*
X403066Y58526D01*
X408104Y56154D02*
X408179Y56228D01*
X408251Y56305D01*
X408320Y56385D01*
X408387Y56467D01*
X408450Y56551D01*
X408510Y56638D01*
X408567Y56726D01*
X408621Y56817D01*
X408671Y56910D01*
X408718Y57004D01*
X408761Y57100D01*
X408801Y57198D01*
X408837Y57297D01*
X408870Y57397D01*
X408898Y57499D01*
X408923Y57601D01*
X408945Y57705D01*
X408962Y57809D01*
X408976Y57913D01*
X408985Y58018D01*
X408991Y58124D01*
X408993Y58229D01*
X408103Y56155D02*
X403066Y50229D01*
X408992Y50229D01*
X171260Y565372D02*
X167704Y576040D01*
X174816Y576040D02*
X171260Y565372D01*
X182047Y565372D02*
X184418Y565372D01*
X182047Y565372D02*
X181952Y565374D01*
X181856Y565380D01*
X181761Y565389D01*
X181667Y565403D01*
X181573Y565420D01*
X181480Y565441D01*
X181387Y565466D01*
X181296Y565494D01*
X181206Y565526D01*
X181118Y565562D01*
X181031Y565601D01*
X180945Y565644D01*
X180862Y565690D01*
X180780Y565739D01*
X180700Y565792D01*
X180623Y565848D01*
X180547Y565906D01*
X180475Y565968D01*
X180405Y566033D01*
X180337Y566101D01*
X180272Y566171D01*
X180210Y566243D01*
X180152Y566319D01*
X180096Y566396D01*
X180043Y566476D01*
X179994Y566558D01*
X179948Y566641D01*
X179905Y566727D01*
X179866Y566814D01*
X179830Y566902D01*
X179798Y566992D01*
X179770Y567083D01*
X179745Y567176D01*
X179724Y567269D01*
X179707Y567363D01*
X179693Y567457D01*
X179684Y567552D01*
X179678Y567648D01*
X179676Y567743D01*
X179676Y573670D01*
X179678Y573765D01*
X179684Y573861D01*
X179693Y573956D01*
X179707Y574050D01*
X179724Y574144D01*
X179745Y574237D01*
X179770Y574330D01*
X179798Y574421D01*
X179830Y574511D01*
X179866Y574599D01*
X179905Y574686D01*
X179948Y574772D01*
X179994Y574855D01*
X180043Y574937D01*
X180096Y575017D01*
X180152Y575094D01*
X180210Y575170D01*
X180272Y575242D01*
X180337Y575312D01*
X180405Y575380D01*
X180475Y575445D01*
X180547Y575507D01*
X180623Y575565D01*
X180700Y575621D01*
X180780Y575674D01*
X180861Y575723D01*
X180945Y575769D01*
X181031Y575812D01*
X181118Y575851D01*
X181206Y575887D01*
X181296Y575919D01*
X181387Y575947D01*
X181480Y575972D01*
X181573Y575993D01*
X181667Y576010D01*
X181761Y576024D01*
X181856Y576033D01*
X181951Y576039D01*
X182047Y576041D01*
X182047Y576040D02*
X184418Y576040D01*
X191572Y565372D02*
X193943Y565372D01*
X191572Y565372D02*
X191477Y565374D01*
X191381Y565380D01*
X191286Y565389D01*
X191192Y565403D01*
X191098Y565420D01*
X191005Y565441D01*
X190912Y565466D01*
X190821Y565494D01*
X190731Y565526D01*
X190643Y565562D01*
X190556Y565601D01*
X190470Y565644D01*
X190387Y565690D01*
X190305Y565739D01*
X190225Y565792D01*
X190148Y565848D01*
X190072Y565906D01*
X190000Y565968D01*
X189930Y566033D01*
X189862Y566101D01*
X189797Y566171D01*
X189735Y566243D01*
X189677Y566319D01*
X189621Y566396D01*
X189568Y566476D01*
X189519Y566558D01*
X189473Y566641D01*
X189430Y566727D01*
X189391Y566814D01*
X189355Y566902D01*
X189323Y566992D01*
X189295Y567083D01*
X189270Y567176D01*
X189249Y567269D01*
X189232Y567363D01*
X189218Y567457D01*
X189209Y567552D01*
X189203Y567648D01*
X189201Y567743D01*
X189201Y573670D01*
X189203Y573765D01*
X189209Y573861D01*
X189218Y573956D01*
X189232Y574050D01*
X189249Y574144D01*
X189270Y574237D01*
X189295Y574330D01*
X189323Y574421D01*
X189355Y574511D01*
X189391Y574599D01*
X189430Y574686D01*
X189473Y574772D01*
X189519Y574855D01*
X189568Y574937D01*
X189621Y575017D01*
X189677Y575094D01*
X189735Y575170D01*
X189797Y575242D01*
X189862Y575312D01*
X189930Y575380D01*
X190000Y575445D01*
X190072Y575507D01*
X190148Y575565D01*
X190225Y575621D01*
X190305Y575674D01*
X190386Y575723D01*
X190470Y575769D01*
X190556Y575812D01*
X190643Y575851D01*
X190731Y575887D01*
X190821Y575919D01*
X190912Y575947D01*
X191005Y575972D01*
X191098Y575993D01*
X191192Y576010D01*
X191286Y576024D01*
X191381Y576033D01*
X191476Y576039D01*
X191572Y576041D01*
X191572Y576040D02*
X193943Y576040D01*
X112511Y571299D02*
X110733Y571299D01*
X112511Y571299D02*
X112511Y565372D01*
X108955Y565372D01*
X108860Y565374D01*
X108764Y565380D01*
X108669Y565389D01*
X108575Y565403D01*
X108481Y565420D01*
X108388Y565441D01*
X108295Y565466D01*
X108204Y565494D01*
X108114Y565526D01*
X108026Y565562D01*
X107939Y565601D01*
X107853Y565644D01*
X107769Y565690D01*
X107688Y565739D01*
X107608Y565792D01*
X107531Y565848D01*
X107455Y565906D01*
X107383Y565968D01*
X107313Y566033D01*
X107245Y566101D01*
X107180Y566171D01*
X107118Y566243D01*
X107060Y566319D01*
X107004Y566396D01*
X106951Y566476D01*
X106902Y566558D01*
X106856Y566641D01*
X106813Y566727D01*
X106774Y566814D01*
X106738Y566902D01*
X106706Y566992D01*
X106678Y567083D01*
X106653Y567176D01*
X106632Y567269D01*
X106615Y567363D01*
X106601Y567457D01*
X106592Y567552D01*
X106586Y567648D01*
X106584Y567743D01*
X106585Y567743D02*
X106585Y573670D01*
X106584Y573670D02*
X106586Y573765D01*
X106592Y573861D01*
X106601Y573956D01*
X106615Y574050D01*
X106632Y574144D01*
X106653Y574237D01*
X106678Y574330D01*
X106706Y574421D01*
X106738Y574511D01*
X106774Y574599D01*
X106813Y574686D01*
X106856Y574772D01*
X106902Y574855D01*
X106951Y574937D01*
X107004Y575017D01*
X107060Y575094D01*
X107118Y575170D01*
X107180Y575242D01*
X107245Y575312D01*
X107313Y575380D01*
X107383Y575445D01*
X107455Y575507D01*
X107531Y575565D01*
X107608Y575621D01*
X107688Y575674D01*
X107769Y575723D01*
X107853Y575769D01*
X107939Y575812D01*
X108026Y575851D01*
X108114Y575887D01*
X108204Y575919D01*
X108295Y575947D01*
X108388Y575972D01*
X108481Y575993D01*
X108575Y576010D01*
X108669Y576024D01*
X108764Y576033D01*
X108859Y576039D01*
X108955Y576041D01*
X108955Y576040D02*
X112511Y576040D01*
X118777Y576040D02*
X118777Y565372D01*
X124703Y565372D02*
X118777Y576040D01*
X124703Y576040D02*
X124703Y565372D01*
X130969Y565372D02*
X130969Y576040D01*
X133932Y576040D01*
X134038Y576038D01*
X134143Y576032D01*
X134249Y576023D01*
X134354Y576010D01*
X134458Y575993D01*
X134562Y575972D01*
X134665Y575948D01*
X134767Y575920D01*
X134868Y575888D01*
X134967Y575853D01*
X135066Y575814D01*
X135163Y575772D01*
X135258Y575727D01*
X135352Y575678D01*
X135444Y575625D01*
X135534Y575570D01*
X135622Y575511D01*
X135708Y575449D01*
X135791Y575384D01*
X135872Y575316D01*
X135951Y575246D01*
X136027Y575172D01*
X136101Y575096D01*
X136171Y575017D01*
X136239Y574936D01*
X136304Y574853D01*
X136366Y574767D01*
X136425Y574679D01*
X136480Y574589D01*
X136533Y574497D01*
X136582Y574403D01*
X136627Y574308D01*
X136669Y574211D01*
X136708Y574112D01*
X136743Y574013D01*
X136775Y573912D01*
X136803Y573810D01*
X136827Y573707D01*
X136848Y573603D01*
X136865Y573499D01*
X136878Y573394D01*
X136887Y573288D01*
X136893Y573183D01*
X136895Y573077D01*
X136895Y568336D01*
X136893Y568230D01*
X136887Y568125D01*
X136878Y568019D01*
X136865Y567914D01*
X136848Y567810D01*
X136827Y567706D01*
X136803Y567603D01*
X136775Y567501D01*
X136743Y567400D01*
X136708Y567301D01*
X136669Y567202D01*
X136627Y567105D01*
X136582Y567010D01*
X136533Y566916D01*
X136480Y566824D01*
X136425Y566734D01*
X136366Y566646D01*
X136304Y566560D01*
X136239Y566477D01*
X136171Y566396D01*
X136101Y566317D01*
X136027Y566241D01*
X135951Y566167D01*
X135872Y566097D01*
X135791Y566029D01*
X135708Y565964D01*
X135622Y565902D01*
X135534Y565843D01*
X135444Y565788D01*
X135352Y565735D01*
X135258Y565686D01*
X135163Y565641D01*
X135066Y565599D01*
X134967Y565560D01*
X134868Y565525D01*
X134767Y565493D01*
X134665Y565465D01*
X134562Y565441D01*
X134458Y565420D01*
X134354Y565403D01*
X134249Y565390D01*
X134143Y565381D01*
X134038Y565375D01*
X133932Y565373D01*
X133932Y565372D02*
X130969Y565372D01*
X149447Y566166D02*
X149447Y576834D01*
X152411Y576834D01*
X152518Y576832D01*
X152625Y576826D01*
X152731Y576817D01*
X152837Y576803D01*
X152943Y576786D01*
X153048Y576765D01*
X153152Y576740D01*
X153255Y576711D01*
X153357Y576679D01*
X153458Y576643D01*
X153557Y576603D01*
X153655Y576560D01*
X153751Y576513D01*
X153846Y576463D01*
X153939Y576410D01*
X154029Y576353D01*
X154118Y576293D01*
X154204Y576230D01*
X154288Y576164D01*
X154370Y576094D01*
X154449Y576022D01*
X154525Y575947D01*
X154599Y575869D01*
X154669Y575789D01*
X154737Y575706D01*
X154802Y575621D01*
X154863Y575534D01*
X154922Y575444D01*
X154977Y575353D01*
X155029Y575259D01*
X155077Y575163D01*
X155122Y575066D01*
X155164Y574968D01*
X155201Y574868D01*
X155236Y574766D01*
X155266Y574664D01*
X155293Y574560D01*
X155316Y574456D01*
X155335Y574350D01*
X155350Y574244D01*
X155362Y574138D01*
X155370Y574031D01*
X155374Y573924D01*
X155374Y573818D01*
X155370Y573711D01*
X155362Y573604D01*
X155350Y573498D01*
X155335Y573392D01*
X155316Y573286D01*
X155293Y573182D01*
X155266Y573078D01*
X155236Y572976D01*
X155201Y572874D01*
X155164Y572774D01*
X155122Y572676D01*
X155077Y572579D01*
X155029Y572483D01*
X154977Y572390D01*
X154922Y572298D01*
X154863Y572208D01*
X154802Y572121D01*
X154737Y572036D01*
X154669Y571953D01*
X154599Y571873D01*
X154525Y571795D01*
X154449Y571720D01*
X154370Y571648D01*
X154288Y571578D01*
X154204Y571512D01*
X154118Y571449D01*
X154029Y571389D01*
X153939Y571332D01*
X153846Y571279D01*
X153751Y571229D01*
X153655Y571182D01*
X153557Y571139D01*
X153458Y571099D01*
X153357Y571063D01*
X153255Y571031D01*
X153152Y571002D01*
X153048Y570977D01*
X152943Y570956D01*
X152837Y570939D01*
X152731Y570925D01*
X152625Y570916D01*
X152518Y570910D01*
X152411Y570908D01*
X152411Y570907D02*
X149447Y570907D01*
X66897Y551434D02*
X66897Y543729D01*
X66898Y543729D02*
X66900Y543622D01*
X66906Y543515D01*
X66915Y543409D01*
X66929Y543303D01*
X66946Y543197D01*
X66967Y543092D01*
X66992Y542988D01*
X67021Y542885D01*
X67053Y542783D01*
X67089Y542682D01*
X67129Y542583D01*
X67172Y542485D01*
X67219Y542389D01*
X67269Y542294D01*
X67322Y542201D01*
X67379Y542111D01*
X67439Y542022D01*
X67502Y541936D01*
X67568Y541852D01*
X67638Y541770D01*
X67710Y541691D01*
X67785Y541615D01*
X67863Y541541D01*
X67943Y541471D01*
X68026Y541403D01*
X68111Y541338D01*
X68198Y541277D01*
X68288Y541218D01*
X68379Y541163D01*
X68473Y541111D01*
X68569Y541063D01*
X68666Y541018D01*
X68764Y540976D01*
X68864Y540939D01*
X68966Y540904D01*
X69068Y540874D01*
X69172Y540847D01*
X69276Y540824D01*
X69382Y540805D01*
X69488Y540790D01*
X69594Y540778D01*
X69701Y540770D01*
X69808Y540766D01*
X69914Y540766D01*
X70021Y540770D01*
X70128Y540778D01*
X70234Y540790D01*
X70340Y540805D01*
X70446Y540824D01*
X70550Y540847D01*
X70654Y540874D01*
X70756Y540904D01*
X70858Y540939D01*
X70958Y540976D01*
X71056Y541018D01*
X71153Y541063D01*
X71249Y541111D01*
X71342Y541163D01*
X71434Y541218D01*
X71524Y541277D01*
X71611Y541338D01*
X71696Y541403D01*
X71779Y541471D01*
X71859Y541541D01*
X71937Y541615D01*
X72012Y541691D01*
X72084Y541770D01*
X72154Y541852D01*
X72220Y541936D01*
X72283Y542022D01*
X72343Y542111D01*
X72400Y542201D01*
X72453Y542294D01*
X72503Y542389D01*
X72550Y542485D01*
X72593Y542583D01*
X72633Y542682D01*
X72669Y542783D01*
X72701Y542885D01*
X72730Y542988D01*
X72755Y543092D01*
X72776Y543197D01*
X72793Y543303D01*
X72807Y543409D01*
X72816Y543515D01*
X72822Y543622D01*
X72824Y543729D01*
X72824Y551434D01*
X79343Y551434D02*
X79343Y540766D01*
X79343Y551434D02*
X82307Y551434D01*
X82414Y551432D01*
X82521Y551426D01*
X82627Y551417D01*
X82733Y551403D01*
X82839Y551386D01*
X82944Y551365D01*
X83048Y551340D01*
X83151Y551311D01*
X83253Y551279D01*
X83354Y551243D01*
X83453Y551203D01*
X83551Y551160D01*
X83647Y551113D01*
X83742Y551063D01*
X83835Y551010D01*
X83925Y550953D01*
X84014Y550893D01*
X84100Y550830D01*
X84184Y550764D01*
X84266Y550694D01*
X84345Y550622D01*
X84421Y550547D01*
X84495Y550469D01*
X84565Y550389D01*
X84633Y550306D01*
X84698Y550221D01*
X84759Y550134D01*
X84818Y550044D01*
X84873Y549953D01*
X84925Y549859D01*
X84973Y549763D01*
X85018Y549666D01*
X85060Y549568D01*
X85097Y549468D01*
X85132Y549366D01*
X85162Y549264D01*
X85189Y549160D01*
X85212Y549056D01*
X85231Y548950D01*
X85246Y548844D01*
X85258Y548738D01*
X85266Y548631D01*
X85270Y548524D01*
X85270Y548418D01*
X85266Y548311D01*
X85258Y548204D01*
X85246Y548098D01*
X85231Y547992D01*
X85212Y547886D01*
X85189Y547782D01*
X85162Y547678D01*
X85132Y547576D01*
X85097Y547474D01*
X85060Y547374D01*
X85018Y547276D01*
X84973Y547179D01*
X84925Y547083D01*
X84873Y546990D01*
X84818Y546898D01*
X84759Y546808D01*
X84698Y546721D01*
X84633Y546636D01*
X84565Y546553D01*
X84495Y546473D01*
X84421Y546395D01*
X84345Y546320D01*
X84266Y546248D01*
X84184Y546178D01*
X84100Y546112D01*
X84014Y546049D01*
X83925Y545989D01*
X83835Y545932D01*
X83742Y545879D01*
X83647Y545829D01*
X83551Y545782D01*
X83453Y545739D01*
X83354Y545699D01*
X83253Y545663D01*
X83151Y545631D01*
X83048Y545602D01*
X82944Y545577D01*
X82839Y545556D01*
X82733Y545539D01*
X82627Y545525D01*
X82521Y545516D01*
X82414Y545510D01*
X82307Y545508D01*
X82307Y545507D02*
X79343Y545507D01*
X90519Y540766D02*
X90519Y551434D01*
X93483Y551434D01*
X93589Y551432D01*
X93694Y551426D01*
X93800Y551417D01*
X93905Y551404D01*
X94009Y551387D01*
X94113Y551366D01*
X94216Y551342D01*
X94318Y551314D01*
X94419Y551282D01*
X94518Y551247D01*
X94617Y551208D01*
X94714Y551166D01*
X94809Y551121D01*
X94903Y551072D01*
X94995Y551019D01*
X95085Y550964D01*
X95173Y550905D01*
X95259Y550843D01*
X95342Y550778D01*
X95423Y550710D01*
X95502Y550640D01*
X95578Y550566D01*
X95652Y550490D01*
X95722Y550411D01*
X95790Y550330D01*
X95855Y550247D01*
X95917Y550161D01*
X95976Y550073D01*
X96031Y549983D01*
X96084Y549891D01*
X96133Y549797D01*
X96178Y549702D01*
X96220Y549605D01*
X96259Y549506D01*
X96294Y549407D01*
X96326Y549306D01*
X96354Y549204D01*
X96378Y549101D01*
X96399Y548997D01*
X96416Y548893D01*
X96429Y548788D01*
X96438Y548682D01*
X96444Y548577D01*
X96446Y548471D01*
X96446Y543729D01*
X96444Y543623D01*
X96438Y543518D01*
X96429Y543412D01*
X96416Y543307D01*
X96399Y543203D01*
X96378Y543099D01*
X96354Y542996D01*
X96326Y542894D01*
X96294Y542793D01*
X96259Y542694D01*
X96220Y542595D01*
X96178Y542498D01*
X96133Y542403D01*
X96084Y542309D01*
X96031Y542217D01*
X95976Y542127D01*
X95917Y542039D01*
X95855Y541953D01*
X95790Y541870D01*
X95722Y541789D01*
X95652Y541710D01*
X95578Y541634D01*
X95502Y541560D01*
X95423Y541490D01*
X95342Y541422D01*
X95259Y541357D01*
X95173Y541295D01*
X95085Y541236D01*
X94995Y541181D01*
X94903Y541128D01*
X94809Y541079D01*
X94714Y541034D01*
X94617Y540992D01*
X94518Y540953D01*
X94419Y540918D01*
X94318Y540886D01*
X94216Y540858D01*
X94113Y540834D01*
X94009Y540813D01*
X93905Y540796D01*
X93800Y540783D01*
X93694Y540774D01*
X93589Y540768D01*
X93483Y540766D01*
X90519Y540766D01*
X103007Y540766D02*
X103007Y551434D01*
X101822Y540766D02*
X104193Y540766D01*
X104193Y551434D02*
X101822Y551434D01*
D11*
X454025Y511175D02*
X460375Y517525D01*
X454025Y511175D02*
X454025Y498475D01*
X460375Y492125D01*
X454025Y485775D01*
X454025Y473075D01*
X460375Y466725D01*
X454025Y460375D01*
X454025Y447675D01*
X460375Y441325D01*
X454025Y434975D01*
X454025Y422275D01*
X460375Y415925D01*
X454025Y409575D01*
X454025Y396875D01*
X460375Y390525D01*
X454025Y384175D01*
X454025Y371475D01*
X460375Y365125D01*
X460375Y517525D02*
X498475Y517525D01*
X504825Y511175D01*
X504825Y498475D01*
X498475Y492125D01*
X504825Y485775D01*
X504825Y473075D01*
X498475Y466725D01*
X504825Y460375D01*
X504825Y447675D01*
X498475Y441325D01*
X504825Y434975D01*
X504825Y422275D01*
X498475Y415925D01*
X504825Y409575D01*
X504825Y396875D01*
X498475Y390525D01*
X504825Y384175D01*
X504825Y371475D01*
X498475Y365125D01*
X504825Y358775D01*
X504825Y346075D01*
X498475Y339725D01*
X504825Y333375D01*
X504825Y320675D01*
X498475Y314325D01*
X504825Y307975D01*
X504825Y295275D01*
X498475Y288925D01*
X504825Y282575D01*
X504825Y269875D01*
X498475Y263525D01*
X504825Y257175D01*
X504825Y244475D01*
X498475Y238125D01*
X504825Y231775D01*
X504825Y219075D01*
X498475Y212725D01*
X504825Y206375D01*
X504825Y193675D01*
X498475Y187325D01*
X504825Y180975D01*
X504825Y168275D01*
X498475Y161925D01*
X504825Y155575D01*
X504825Y142875D01*
X498475Y136525D01*
X504825Y130175D01*
X504825Y117475D01*
X498475Y111125D01*
X504825Y104775D01*
X504825Y92075D01*
X498475Y85725D01*
X504825Y79375D01*
X504825Y66675D01*
X498475Y60325D01*
X504825Y53975D01*
X504825Y41275D01*
X498475Y34925D01*
X460375Y34925D02*
X454025Y41275D01*
X454025Y53975D01*
X460375Y60325D01*
X454025Y66675D01*
X454025Y79375D01*
X460375Y85725D01*
X454025Y92075D01*
X454025Y104775D01*
X460375Y111125D01*
X454025Y117475D01*
X454025Y130175D01*
X460375Y136525D01*
X454025Y142875D01*
X454025Y155575D01*
X460375Y161925D01*
X454025Y168275D01*
X454025Y180975D01*
X460375Y187325D01*
X454025Y193675D01*
X454025Y206375D01*
X460375Y212725D01*
X454025Y219075D01*
X454025Y231775D01*
X460375Y238125D01*
X454025Y244475D01*
X454025Y257175D01*
X460375Y263525D01*
X454025Y269875D01*
X454025Y282575D01*
X460375Y288925D01*
X454025Y295275D01*
X454025Y307975D01*
X460375Y314325D01*
X454025Y320675D01*
X454025Y333375D01*
X460375Y339725D01*
X454025Y346075D01*
X454025Y358775D01*
X460375Y365125D01*
X460375Y492125D02*
X498475Y492125D01*
X498475Y466725D02*
X460375Y466725D01*
X460375Y441325D02*
X498475Y441325D01*
X498475Y415925D02*
X460375Y415925D01*
X460375Y390525D02*
X498475Y390525D01*
X498475Y365125D02*
X460375Y365125D01*
X460375Y339725D02*
X498475Y339725D01*
X498475Y314325D02*
X460375Y314325D01*
X460375Y288925D02*
X498475Y288925D01*
X498475Y263525D02*
X460375Y263525D01*
X460375Y238125D02*
X498475Y238125D01*
X498475Y212725D02*
X460375Y212725D01*
X460375Y187325D02*
X498475Y187325D01*
X498475Y161925D02*
X460375Y161925D01*
X460375Y136525D02*
X498475Y136525D01*
X498475Y111125D02*
X460375Y111125D01*
X460375Y85725D02*
X498475Y85725D01*
X498475Y60325D02*
X460375Y60325D01*
X460375Y34925D02*
X498475Y34925D01*
X504825Y28575D01*
X504825Y15875D01*
X498475Y9525D01*
X460375Y9525D02*
X454025Y15875D01*
X454025Y28575D01*
X460375Y34925D01*
X460375Y9525D02*
X498475Y9525D01*
X409525Y466725D02*
X34925Y466725D01*
X34618Y466721D01*
X34311Y466710D01*
X34005Y466692D01*
X33699Y466666D01*
X33394Y466632D01*
X33090Y466592D01*
X32787Y466544D01*
X32485Y466488D01*
X32185Y466426D01*
X31886Y466356D01*
X31589Y466279D01*
X31293Y466195D01*
X31000Y466103D01*
X30710Y466005D01*
X30422Y465900D01*
X30136Y465787D01*
X29853Y465668D01*
X29573Y465542D01*
X29296Y465410D01*
X29023Y465270D01*
X28753Y465124D01*
X28487Y464972D01*
X28224Y464813D01*
X27965Y464648D01*
X27711Y464477D01*
X27460Y464300D01*
X27214Y464116D01*
X26972Y463927D01*
X26736Y463732D01*
X26503Y463531D01*
X26276Y463325D01*
X26054Y463113D01*
X25837Y462896D01*
X25625Y462674D01*
X25419Y462447D01*
X25218Y462214D01*
X25023Y461978D01*
X24834Y461736D01*
X24650Y461490D01*
X24473Y461239D01*
X24302Y460985D01*
X24137Y460726D01*
X23978Y460463D01*
X23826Y460197D01*
X23680Y459927D01*
X23540Y459654D01*
X23408Y459377D01*
X23282Y459097D01*
X23163Y458814D01*
X23050Y458528D01*
X22945Y458240D01*
X22847Y457950D01*
X22755Y457657D01*
X22671Y457361D01*
X22594Y457064D01*
X22524Y456765D01*
X22462Y456465D01*
X22406Y456163D01*
X22358Y455860D01*
X22318Y455556D01*
X22284Y455251D01*
X22258Y454945D01*
X22240Y454639D01*
X22229Y454332D01*
X22225Y454025D01*
X22225Y79425D01*
X22229Y79118D01*
X22240Y78811D01*
X22258Y78505D01*
X22284Y78199D01*
X22318Y77894D01*
X22358Y77590D01*
X22406Y77287D01*
X22462Y76985D01*
X22524Y76685D01*
X22594Y76386D01*
X22671Y76089D01*
X22755Y75793D01*
X22847Y75500D01*
X22945Y75210D01*
X23050Y74922D01*
X23163Y74636D01*
X23282Y74353D01*
X23408Y74073D01*
X23540Y73796D01*
X23680Y73523D01*
X23826Y73253D01*
X23978Y72987D01*
X24137Y72724D01*
X24302Y72465D01*
X24473Y72211D01*
X24650Y71960D01*
X24834Y71714D01*
X25023Y71472D01*
X25218Y71236D01*
X25419Y71003D01*
X25625Y70776D01*
X25837Y70554D01*
X26054Y70337D01*
X26276Y70125D01*
X26503Y69919D01*
X26736Y69718D01*
X26972Y69523D01*
X27214Y69334D01*
X27460Y69150D01*
X27711Y68973D01*
X27965Y68802D01*
X28224Y68637D01*
X28487Y68478D01*
X28753Y68326D01*
X29023Y68180D01*
X29296Y68040D01*
X29573Y67908D01*
X29853Y67782D01*
X30136Y67663D01*
X30422Y67550D01*
X30710Y67445D01*
X31000Y67347D01*
X31293Y67255D01*
X31589Y67171D01*
X31886Y67094D01*
X32185Y67024D01*
X32485Y66962D01*
X32787Y66906D01*
X33090Y66858D01*
X33394Y66818D01*
X33699Y66784D01*
X34005Y66758D01*
X34311Y66740D01*
X34618Y66729D01*
X34925Y66725D01*
X409525Y66725D01*
X409832Y66729D01*
X410139Y66740D01*
X410445Y66758D01*
X410751Y66784D01*
X411056Y66818D01*
X411360Y66858D01*
X411663Y66906D01*
X411965Y66962D01*
X412265Y67024D01*
X412564Y67094D01*
X412861Y67171D01*
X413157Y67255D01*
X413450Y67347D01*
X413740Y67445D01*
X414028Y67550D01*
X414314Y67663D01*
X414597Y67782D01*
X414877Y67908D01*
X415154Y68040D01*
X415427Y68180D01*
X415697Y68326D01*
X415963Y68478D01*
X416226Y68637D01*
X416485Y68802D01*
X416739Y68973D01*
X416990Y69150D01*
X417236Y69334D01*
X417478Y69523D01*
X417714Y69718D01*
X417947Y69919D01*
X418174Y70125D01*
X418396Y70337D01*
X418613Y70554D01*
X418825Y70776D01*
X419031Y71003D01*
X419232Y71236D01*
X419427Y71472D01*
X419616Y71714D01*
X419800Y71960D01*
X419977Y72211D01*
X420148Y72465D01*
X420313Y72724D01*
X420472Y72987D01*
X420624Y73253D01*
X420770Y73523D01*
X420910Y73796D01*
X421042Y74073D01*
X421168Y74353D01*
X421287Y74636D01*
X421400Y74922D01*
X421505Y75210D01*
X421603Y75500D01*
X421695Y75793D01*
X421779Y76089D01*
X421856Y76386D01*
X421926Y76685D01*
X421988Y76985D01*
X422044Y77287D01*
X422092Y77590D01*
X422132Y77894D01*
X422166Y78199D01*
X422192Y78505D01*
X422210Y78811D01*
X422221Y79118D01*
X422225Y79425D01*
X422225Y454025D01*
X422221Y454332D01*
X422210Y454639D01*
X422192Y454945D01*
X422166Y455251D01*
X422132Y455556D01*
X422092Y455860D01*
X422044Y456163D01*
X421988Y456465D01*
X421926Y456765D01*
X421856Y457064D01*
X421779Y457361D01*
X421695Y457657D01*
X421603Y457950D01*
X421505Y458240D01*
X421400Y458528D01*
X421287Y458814D01*
X421168Y459097D01*
X421042Y459377D01*
X420910Y459654D01*
X420770Y459927D01*
X420624Y460197D01*
X420472Y460463D01*
X420313Y460726D01*
X420148Y460985D01*
X419977Y461239D01*
X419800Y461490D01*
X419616Y461736D01*
X419427Y461978D01*
X419232Y462214D01*
X419031Y462447D01*
X418825Y462674D01*
X418613Y462896D01*
X418396Y463113D01*
X418174Y463325D01*
X417947Y463531D01*
X417714Y463732D01*
X417478Y463927D01*
X417236Y464116D01*
X416990Y464300D01*
X416739Y464477D01*
X416485Y464648D01*
X416226Y464813D01*
X415963Y464972D01*
X415697Y465124D01*
X415427Y465270D01*
X415154Y465410D01*
X414877Y465542D01*
X414597Y465668D01*
X414314Y465787D01*
X414028Y465900D01*
X413740Y466005D01*
X413450Y466103D01*
X413157Y466195D01*
X412861Y466279D01*
X412564Y466356D01*
X412265Y466426D01*
X411965Y466488D01*
X411663Y466544D01*
X411360Y466592D01*
X411056Y466632D01*
X410751Y466666D01*
X410445Y466692D01*
X410139Y466710D01*
X409832Y466721D01*
X409525Y466725D01*
D10*
X66082Y474641D02*
X66082Y477605D01*
X66083Y477605D02*
X66085Y477712D01*
X66091Y477819D01*
X66100Y477925D01*
X66114Y478031D01*
X66131Y478137D01*
X66152Y478242D01*
X66177Y478346D01*
X66206Y478449D01*
X66238Y478551D01*
X66274Y478652D01*
X66314Y478751D01*
X66357Y478849D01*
X66404Y478945D01*
X66454Y479040D01*
X66507Y479133D01*
X66564Y479223D01*
X66624Y479312D01*
X66687Y479398D01*
X66753Y479482D01*
X66823Y479564D01*
X66895Y479643D01*
X66970Y479719D01*
X67048Y479793D01*
X67128Y479863D01*
X67211Y479931D01*
X67296Y479996D01*
X67383Y480057D01*
X67473Y480116D01*
X67565Y480171D01*
X67658Y480223D01*
X67754Y480271D01*
X67851Y480316D01*
X67949Y480358D01*
X68049Y480395D01*
X68151Y480430D01*
X68253Y480460D01*
X68357Y480487D01*
X68461Y480510D01*
X68567Y480529D01*
X68673Y480544D01*
X68779Y480556D01*
X68886Y480564D01*
X68993Y480568D01*
X69099Y480568D01*
X69206Y480564D01*
X69313Y480556D01*
X69419Y480544D01*
X69525Y480529D01*
X69631Y480510D01*
X69735Y480487D01*
X69839Y480460D01*
X69941Y480430D01*
X70043Y480395D01*
X70143Y480358D01*
X70241Y480316D01*
X70338Y480271D01*
X70434Y480223D01*
X70528Y480171D01*
X70619Y480116D01*
X70709Y480057D01*
X70796Y479996D01*
X70881Y479931D01*
X70964Y479863D01*
X71044Y479793D01*
X71122Y479719D01*
X71197Y479643D01*
X71269Y479564D01*
X71339Y479482D01*
X71405Y479398D01*
X71468Y479312D01*
X71528Y479223D01*
X71585Y479133D01*
X71638Y479040D01*
X71688Y478945D01*
X71735Y478849D01*
X71778Y478751D01*
X71818Y478652D01*
X71854Y478551D01*
X71886Y478449D01*
X71915Y478346D01*
X71940Y478242D01*
X71961Y478137D01*
X71978Y478031D01*
X71992Y477925D01*
X72001Y477819D01*
X72007Y477712D01*
X72009Y477605D01*
X72009Y474641D01*
X61341Y474641D01*
X61341Y477605D01*
X61343Y477702D01*
X61349Y477798D01*
X61359Y477894D01*
X61373Y477990D01*
X61390Y478085D01*
X61412Y478180D01*
X61437Y478273D01*
X61466Y478365D01*
X61499Y478456D01*
X61536Y478546D01*
X61576Y478634D01*
X61620Y478720D01*
X61667Y478804D01*
X61717Y478887D01*
X61771Y478967D01*
X61829Y479045D01*
X61889Y479121D01*
X61952Y479194D01*
X62018Y479264D01*
X62088Y479332D01*
X62159Y479397D01*
X62234Y479459D01*
X62311Y479517D01*
X62390Y479573D01*
X62471Y479625D01*
X62555Y479674D01*
X62640Y479720D01*
X62727Y479762D01*
X62816Y479800D01*
X62906Y479835D01*
X62998Y479866D01*
X63091Y479893D01*
X63184Y479917D01*
X63279Y479936D01*
X63375Y479952D01*
X63471Y479964D01*
X63567Y479972D01*
X63664Y479976D01*
X63760Y479976D01*
X63857Y479972D01*
X63953Y479964D01*
X64049Y479952D01*
X64145Y479936D01*
X64240Y479917D01*
X64333Y479893D01*
X64426Y479866D01*
X64518Y479835D01*
X64608Y479800D01*
X64697Y479762D01*
X64784Y479720D01*
X64869Y479674D01*
X64953Y479625D01*
X65034Y479573D01*
X65113Y479517D01*
X65190Y479459D01*
X65265Y479397D01*
X65336Y479332D01*
X65406Y479264D01*
X65472Y479194D01*
X65535Y479121D01*
X65595Y479045D01*
X65653Y478967D01*
X65707Y478887D01*
X65757Y478804D01*
X65804Y478720D01*
X65848Y478634D01*
X65888Y478546D01*
X65925Y478456D01*
X65958Y478365D01*
X65987Y478273D01*
X66012Y478180D01*
X66034Y478085D01*
X66051Y477990D01*
X66065Y477894D01*
X66075Y477798D01*
X66081Y477702D01*
X66083Y477605D01*
X61341Y485851D02*
X72009Y485851D01*
X72009Y490593D01*
X72009Y494750D02*
X61341Y498306D01*
X72009Y501862D01*
X69342Y500973D02*
X69342Y495639D01*
X72009Y509093D02*
X72009Y511464D01*
X72009Y509093D02*
X72007Y508998D01*
X72001Y508902D01*
X71992Y508807D01*
X71978Y508713D01*
X71961Y508619D01*
X71940Y508526D01*
X71915Y508433D01*
X71887Y508342D01*
X71855Y508252D01*
X71819Y508164D01*
X71780Y508077D01*
X71737Y507991D01*
X71691Y507908D01*
X71642Y507826D01*
X71589Y507746D01*
X71533Y507669D01*
X71475Y507593D01*
X71413Y507521D01*
X71348Y507451D01*
X71280Y507383D01*
X71210Y507318D01*
X71138Y507256D01*
X71062Y507198D01*
X70985Y507142D01*
X70905Y507089D01*
X70824Y507040D01*
X70740Y506994D01*
X70654Y506951D01*
X70567Y506912D01*
X70479Y506876D01*
X70389Y506844D01*
X70298Y506816D01*
X70205Y506791D01*
X70112Y506770D01*
X70018Y506753D01*
X69924Y506739D01*
X69829Y506730D01*
X69734Y506724D01*
X69638Y506722D01*
X69638Y506723D02*
X63712Y506723D01*
X63712Y506722D02*
X63617Y506724D01*
X63521Y506730D01*
X63426Y506739D01*
X63332Y506753D01*
X63238Y506770D01*
X63145Y506791D01*
X63052Y506816D01*
X62961Y506844D01*
X62871Y506876D01*
X62783Y506912D01*
X62696Y506951D01*
X62610Y506994D01*
X62527Y507040D01*
X62445Y507089D01*
X62365Y507142D01*
X62288Y507198D01*
X62212Y507256D01*
X62140Y507318D01*
X62070Y507383D01*
X62002Y507451D01*
X61937Y507521D01*
X61875Y507593D01*
X61817Y507669D01*
X61761Y507746D01*
X61708Y507826D01*
X61659Y507907D01*
X61613Y507991D01*
X61570Y508077D01*
X61531Y508164D01*
X61495Y508252D01*
X61463Y508342D01*
X61435Y508433D01*
X61410Y508526D01*
X61389Y508619D01*
X61372Y508713D01*
X61358Y508807D01*
X61349Y508902D01*
X61343Y508997D01*
X61341Y509093D01*
X61341Y511464D01*
X61341Y516932D02*
X72009Y516932D01*
X67860Y516932D02*
X61341Y522859D01*
X65490Y519303D02*
X72009Y522859D01*
X112141Y469985D02*
X117179Y473541D01*
X112141Y477097D01*
X117179Y473541D02*
X122809Y473541D01*
X122809Y482422D02*
X122809Y487164D01*
X122809Y482422D02*
X112141Y482422D01*
X112141Y487164D01*
X116882Y485978D02*
X116882Y482422D01*
X112141Y492328D02*
X122809Y492328D01*
X122809Y497070D01*
X122809Y502234D02*
X112141Y502234D01*
X122809Y502234D02*
X122809Y506976D01*
X119846Y511725D02*
X115104Y511725D01*
X115104Y511726D02*
X114997Y511728D01*
X114890Y511734D01*
X114784Y511743D01*
X114678Y511757D01*
X114572Y511774D01*
X114467Y511795D01*
X114363Y511820D01*
X114260Y511849D01*
X114158Y511881D01*
X114057Y511917D01*
X113958Y511957D01*
X113860Y512000D01*
X113764Y512047D01*
X113669Y512097D01*
X113576Y512150D01*
X113486Y512207D01*
X113397Y512267D01*
X113311Y512330D01*
X113227Y512396D01*
X113145Y512466D01*
X113066Y512538D01*
X112990Y512613D01*
X112916Y512691D01*
X112846Y512771D01*
X112778Y512854D01*
X112713Y512939D01*
X112652Y513026D01*
X112593Y513116D01*
X112538Y513208D01*
X112486Y513301D01*
X112438Y513397D01*
X112393Y513494D01*
X112351Y513592D01*
X112314Y513692D01*
X112279Y513794D01*
X112249Y513896D01*
X112222Y514000D01*
X112199Y514104D01*
X112180Y514210D01*
X112165Y514316D01*
X112153Y514422D01*
X112145Y514529D01*
X112141Y514636D01*
X112141Y514742D01*
X112145Y514849D01*
X112153Y514956D01*
X112165Y515062D01*
X112180Y515168D01*
X112199Y515274D01*
X112222Y515378D01*
X112249Y515482D01*
X112279Y515584D01*
X112314Y515686D01*
X112351Y515786D01*
X112393Y515884D01*
X112438Y515981D01*
X112486Y516077D01*
X112538Y516171D01*
X112593Y516262D01*
X112652Y516352D01*
X112713Y516439D01*
X112778Y516524D01*
X112846Y516607D01*
X112916Y516687D01*
X112990Y516765D01*
X113066Y516840D01*
X113145Y516912D01*
X113227Y516982D01*
X113311Y517048D01*
X113397Y517111D01*
X113486Y517171D01*
X113576Y517228D01*
X113669Y517281D01*
X113764Y517331D01*
X113860Y517378D01*
X113958Y517421D01*
X114057Y517461D01*
X114158Y517497D01*
X114260Y517529D01*
X114363Y517558D01*
X114467Y517583D01*
X114572Y517604D01*
X114678Y517621D01*
X114784Y517635D01*
X114890Y517644D01*
X114997Y517650D01*
X115104Y517652D01*
X119846Y517652D01*
X119953Y517650D01*
X120060Y517644D01*
X120166Y517635D01*
X120272Y517621D01*
X120378Y517604D01*
X120483Y517583D01*
X120587Y517558D01*
X120690Y517529D01*
X120792Y517497D01*
X120893Y517461D01*
X120992Y517421D01*
X121090Y517378D01*
X121186Y517331D01*
X121281Y517281D01*
X121374Y517228D01*
X121464Y517171D01*
X121553Y517111D01*
X121639Y517048D01*
X121723Y516982D01*
X121805Y516912D01*
X121884Y516840D01*
X121960Y516765D01*
X122034Y516687D01*
X122104Y516607D01*
X122172Y516524D01*
X122237Y516439D01*
X122298Y516352D01*
X122357Y516262D01*
X122412Y516171D01*
X122464Y516077D01*
X122512Y515981D01*
X122557Y515884D01*
X122599Y515786D01*
X122636Y515686D01*
X122671Y515584D01*
X122701Y515482D01*
X122728Y515378D01*
X122751Y515274D01*
X122770Y515168D01*
X122785Y515062D01*
X122797Y514956D01*
X122805Y514849D01*
X122809Y514742D01*
X122809Y514636D01*
X122805Y514529D01*
X122797Y514422D01*
X122785Y514316D01*
X122770Y514210D01*
X122751Y514104D01*
X122728Y514000D01*
X122701Y513896D01*
X122671Y513794D01*
X122636Y513692D01*
X122599Y513592D01*
X122557Y513494D01*
X122512Y513397D01*
X122464Y513301D01*
X122412Y513208D01*
X122357Y513116D01*
X122298Y513026D01*
X122237Y512939D01*
X122172Y512854D01*
X122104Y512771D01*
X122034Y512691D01*
X121960Y512613D01*
X121884Y512538D01*
X121805Y512466D01*
X121723Y512396D01*
X121639Y512330D01*
X121553Y512267D01*
X121464Y512207D01*
X121374Y512150D01*
X121281Y512097D01*
X121186Y512047D01*
X121090Y512000D01*
X120992Y511957D01*
X120893Y511917D01*
X120792Y511881D01*
X120690Y511849D01*
X120587Y511820D01*
X120483Y511795D01*
X120378Y511774D01*
X120272Y511757D01*
X120166Y511743D01*
X120060Y511734D01*
X119953Y511728D01*
X119846Y511726D01*
X112141Y522901D02*
X122809Y525272D01*
X115697Y527643D01*
X122809Y530013D01*
X112141Y532384D01*
X161332Y482219D02*
X161332Y480441D01*
X161332Y482219D02*
X167259Y482219D01*
X167259Y478663D01*
X167257Y478568D01*
X167251Y478472D01*
X167242Y478377D01*
X167228Y478283D01*
X167211Y478189D01*
X167190Y478096D01*
X167165Y478003D01*
X167137Y477912D01*
X167105Y477822D01*
X167069Y477734D01*
X167030Y477647D01*
X166987Y477561D01*
X166941Y477478D01*
X166892Y477396D01*
X166839Y477316D01*
X166783Y477239D01*
X166725Y477163D01*
X166663Y477091D01*
X166598Y477021D01*
X166530Y476953D01*
X166460Y476888D01*
X166388Y476826D01*
X166312Y476768D01*
X166235Y476712D01*
X166155Y476659D01*
X166074Y476610D01*
X165990Y476564D01*
X165904Y476521D01*
X165817Y476482D01*
X165729Y476446D01*
X165639Y476414D01*
X165548Y476386D01*
X165455Y476361D01*
X165362Y476340D01*
X165268Y476323D01*
X165174Y476309D01*
X165079Y476300D01*
X164984Y476294D01*
X164888Y476292D01*
X158962Y476292D01*
X158867Y476294D01*
X158771Y476300D01*
X158676Y476309D01*
X158582Y476323D01*
X158488Y476340D01*
X158395Y476361D01*
X158302Y476386D01*
X158211Y476414D01*
X158121Y476446D01*
X158033Y476482D01*
X157946Y476521D01*
X157860Y476564D01*
X157777Y476610D01*
X157695Y476659D01*
X157615Y476712D01*
X157538Y476768D01*
X157462Y476826D01*
X157390Y476888D01*
X157320Y476953D01*
X157252Y477021D01*
X157187Y477091D01*
X157125Y477163D01*
X157067Y477239D01*
X157011Y477316D01*
X156958Y477396D01*
X156909Y477477D01*
X156863Y477561D01*
X156820Y477647D01*
X156781Y477734D01*
X156745Y477822D01*
X156713Y477912D01*
X156685Y478003D01*
X156660Y478096D01*
X156639Y478189D01*
X156622Y478283D01*
X156608Y478377D01*
X156599Y478472D01*
X156593Y478567D01*
X156591Y478663D01*
X156591Y482219D01*
X156591Y488595D02*
X167259Y488595D01*
X156591Y488595D02*
X156591Y491558D01*
X156593Y491665D01*
X156599Y491772D01*
X156608Y491878D01*
X156622Y491984D01*
X156639Y492090D01*
X156660Y492195D01*
X156685Y492299D01*
X156714Y492402D01*
X156746Y492504D01*
X156782Y492605D01*
X156822Y492704D01*
X156865Y492802D01*
X156912Y492898D01*
X156962Y492993D01*
X157015Y493086D01*
X157072Y493176D01*
X157132Y493265D01*
X157195Y493351D01*
X157261Y493435D01*
X157331Y493517D01*
X157403Y493596D01*
X157478Y493672D01*
X157556Y493746D01*
X157636Y493816D01*
X157719Y493884D01*
X157804Y493949D01*
X157891Y494010D01*
X157981Y494069D01*
X158073Y494124D01*
X158166Y494176D01*
X158262Y494224D01*
X158359Y494269D01*
X158457Y494311D01*
X158557Y494348D01*
X158659Y494383D01*
X158761Y494413D01*
X158865Y494440D01*
X158969Y494463D01*
X159075Y494482D01*
X159181Y494497D01*
X159287Y494509D01*
X159394Y494517D01*
X159501Y494521D01*
X159607Y494521D01*
X159714Y494517D01*
X159821Y494509D01*
X159927Y494497D01*
X160033Y494482D01*
X160139Y494463D01*
X160243Y494440D01*
X160347Y494413D01*
X160449Y494383D01*
X160551Y494348D01*
X160651Y494311D01*
X160749Y494269D01*
X160846Y494224D01*
X160942Y494176D01*
X161036Y494124D01*
X161127Y494069D01*
X161217Y494010D01*
X161304Y493949D01*
X161389Y493884D01*
X161472Y493816D01*
X161552Y493746D01*
X161630Y493672D01*
X161705Y493596D01*
X161777Y493517D01*
X161847Y493435D01*
X161913Y493351D01*
X161976Y493265D01*
X162036Y493176D01*
X162093Y493086D01*
X162146Y492993D01*
X162196Y492898D01*
X162243Y492802D01*
X162286Y492704D01*
X162326Y492605D01*
X162362Y492504D01*
X162394Y492402D01*
X162423Y492299D01*
X162448Y492195D01*
X162469Y492090D01*
X162486Y491984D01*
X162500Y491878D01*
X162509Y491772D01*
X162515Y491665D01*
X162517Y491558D01*
X162518Y491558D02*
X162518Y488595D01*
X162518Y492151D02*
X167259Y494522D01*
X167259Y500329D02*
X167259Y505071D01*
X167259Y500329D02*
X156591Y500329D01*
X156591Y505071D01*
X161332Y503885D02*
X161332Y500329D01*
X167259Y510235D02*
X167259Y514977D01*
X167259Y510235D02*
X156591Y510235D01*
X156591Y514977D01*
X161332Y513791D02*
X161332Y510235D01*
X156591Y520107D02*
X167259Y520107D01*
X167259Y526034D02*
X156591Y520107D01*
X156591Y526034D02*
X167259Y526034D01*
X212132Y481423D02*
X212132Y478460D01*
X212133Y481423D02*
X212135Y481530D01*
X212141Y481637D01*
X212150Y481743D01*
X212164Y481849D01*
X212181Y481955D01*
X212202Y482060D01*
X212227Y482164D01*
X212256Y482267D01*
X212288Y482369D01*
X212324Y482470D01*
X212364Y482569D01*
X212407Y482667D01*
X212454Y482763D01*
X212504Y482858D01*
X212557Y482951D01*
X212614Y483041D01*
X212674Y483130D01*
X212737Y483216D01*
X212803Y483300D01*
X212873Y483382D01*
X212945Y483461D01*
X213020Y483537D01*
X213098Y483611D01*
X213178Y483681D01*
X213261Y483749D01*
X213346Y483814D01*
X213433Y483875D01*
X213523Y483934D01*
X213615Y483989D01*
X213708Y484041D01*
X213804Y484089D01*
X213901Y484134D01*
X213999Y484176D01*
X214099Y484213D01*
X214201Y484248D01*
X214303Y484278D01*
X214407Y484305D01*
X214511Y484328D01*
X214617Y484347D01*
X214723Y484362D01*
X214829Y484374D01*
X214936Y484382D01*
X215043Y484386D01*
X215149Y484386D01*
X215256Y484382D01*
X215363Y484374D01*
X215469Y484362D01*
X215575Y484347D01*
X215681Y484328D01*
X215785Y484305D01*
X215889Y484278D01*
X215991Y484248D01*
X216093Y484213D01*
X216193Y484176D01*
X216291Y484134D01*
X216388Y484089D01*
X216484Y484041D01*
X216578Y483989D01*
X216669Y483934D01*
X216759Y483875D01*
X216846Y483814D01*
X216931Y483749D01*
X217014Y483681D01*
X217094Y483611D01*
X217172Y483537D01*
X217247Y483461D01*
X217319Y483382D01*
X217389Y483300D01*
X217455Y483216D01*
X217518Y483130D01*
X217578Y483041D01*
X217635Y482951D01*
X217688Y482858D01*
X217738Y482763D01*
X217785Y482667D01*
X217828Y482569D01*
X217868Y482470D01*
X217904Y482369D01*
X217936Y482267D01*
X217965Y482164D01*
X217990Y482060D01*
X218011Y481955D01*
X218028Y481849D01*
X218042Y481743D01*
X218051Y481637D01*
X218057Y481530D01*
X218059Y481423D01*
X218059Y478460D01*
X207391Y478460D01*
X207391Y481423D01*
X207393Y481520D01*
X207399Y481616D01*
X207409Y481712D01*
X207423Y481808D01*
X207440Y481903D01*
X207462Y481998D01*
X207487Y482091D01*
X207516Y482183D01*
X207549Y482274D01*
X207586Y482364D01*
X207626Y482452D01*
X207670Y482538D01*
X207717Y482622D01*
X207767Y482705D01*
X207821Y482785D01*
X207879Y482863D01*
X207939Y482939D01*
X208002Y483012D01*
X208068Y483082D01*
X208138Y483150D01*
X208209Y483215D01*
X208284Y483277D01*
X208361Y483335D01*
X208440Y483391D01*
X208521Y483443D01*
X208605Y483492D01*
X208690Y483538D01*
X208777Y483580D01*
X208866Y483618D01*
X208956Y483653D01*
X209048Y483684D01*
X209141Y483711D01*
X209234Y483735D01*
X209329Y483754D01*
X209425Y483770D01*
X209521Y483782D01*
X209617Y483790D01*
X209714Y483794D01*
X209810Y483794D01*
X209907Y483790D01*
X210003Y483782D01*
X210099Y483770D01*
X210195Y483754D01*
X210290Y483735D01*
X210383Y483711D01*
X210476Y483684D01*
X210568Y483653D01*
X210658Y483618D01*
X210747Y483580D01*
X210834Y483538D01*
X210919Y483492D01*
X211003Y483443D01*
X211084Y483391D01*
X211163Y483335D01*
X211240Y483277D01*
X211315Y483215D01*
X211386Y483150D01*
X211456Y483082D01*
X211522Y483012D01*
X211585Y482939D01*
X211645Y482863D01*
X211703Y482785D01*
X211757Y482705D01*
X211807Y482622D01*
X211854Y482538D01*
X211898Y482452D01*
X211938Y482364D01*
X211975Y482274D01*
X212008Y482183D01*
X212037Y482091D01*
X212062Y481998D01*
X212084Y481903D01*
X212101Y481808D01*
X212115Y481712D01*
X212125Y481616D01*
X212131Y481520D01*
X212133Y481423D01*
X207391Y489670D02*
X218059Y489670D01*
X218059Y494411D01*
X215096Y499542D02*
X207391Y499542D01*
X215096Y499542D02*
X215203Y499544D01*
X215310Y499550D01*
X215416Y499559D01*
X215522Y499573D01*
X215628Y499590D01*
X215733Y499611D01*
X215837Y499636D01*
X215940Y499665D01*
X216042Y499697D01*
X216143Y499733D01*
X216242Y499773D01*
X216340Y499816D01*
X216436Y499863D01*
X216531Y499913D01*
X216624Y499966D01*
X216714Y500023D01*
X216803Y500083D01*
X216889Y500146D01*
X216973Y500212D01*
X217055Y500282D01*
X217134Y500354D01*
X217210Y500429D01*
X217284Y500507D01*
X217354Y500587D01*
X217422Y500670D01*
X217487Y500755D01*
X217548Y500842D01*
X217607Y500932D01*
X217662Y501024D01*
X217714Y501117D01*
X217762Y501213D01*
X217807Y501310D01*
X217849Y501408D01*
X217886Y501508D01*
X217921Y501610D01*
X217951Y501712D01*
X217978Y501816D01*
X218001Y501920D01*
X218020Y502026D01*
X218035Y502132D01*
X218047Y502238D01*
X218055Y502345D01*
X218059Y502452D01*
X218059Y502558D01*
X218055Y502665D01*
X218047Y502772D01*
X218035Y502878D01*
X218020Y502984D01*
X218001Y503090D01*
X217978Y503194D01*
X217951Y503298D01*
X217921Y503400D01*
X217886Y503502D01*
X217849Y503602D01*
X217807Y503700D01*
X217762Y503797D01*
X217714Y503893D01*
X217662Y503987D01*
X217607Y504078D01*
X217548Y504168D01*
X217487Y504255D01*
X217422Y504340D01*
X217354Y504423D01*
X217284Y504503D01*
X217210Y504581D01*
X217134Y504656D01*
X217055Y504728D01*
X216973Y504798D01*
X216889Y504864D01*
X216803Y504927D01*
X216714Y504987D01*
X216624Y505044D01*
X216531Y505097D01*
X216436Y505147D01*
X216340Y505194D01*
X216242Y505237D01*
X216143Y505277D01*
X216042Y505313D01*
X215940Y505345D01*
X215837Y505374D01*
X215733Y505399D01*
X215628Y505420D01*
X215522Y505437D01*
X215416Y505451D01*
X215310Y505460D01*
X215203Y505466D01*
X215096Y505468D01*
X215096Y505469D02*
X207391Y505469D01*
X218059Y511768D02*
X218059Y516509D01*
X218059Y511768D02*
X207391Y511768D01*
X207391Y516509D01*
X212132Y515324D02*
X212132Y511768D01*
X289769Y529619D02*
X319594Y529619D01*
X327769Y529619D01*
X327769Y481619D01*
X319594Y481619D01*
X289769Y481619D01*
X289769Y529619D01*
X319594Y529619D02*
X319594Y481619D01*
X385313Y480325D02*
X385313Y529325D01*
X424313Y529325D01*
X424313Y480325D01*
X385313Y480325D01*
D12*
X416243Y485775D02*
X416245Y485875D01*
X416251Y485976D01*
X416261Y486075D01*
X416275Y486175D01*
X416292Y486274D01*
X416314Y486372D01*
X416340Y486469D01*
X416369Y486565D01*
X416402Y486659D01*
X416439Y486753D01*
X416479Y486845D01*
X416523Y486935D01*
X416571Y487023D01*
X416622Y487110D01*
X416676Y487194D01*
X416734Y487276D01*
X416795Y487356D01*
X416859Y487433D01*
X416926Y487508D01*
X416996Y487580D01*
X417069Y487649D01*
X417144Y487715D01*
X417222Y487779D01*
X417302Y487839D01*
X417385Y487896D01*
X417470Y487949D01*
X417557Y487999D01*
X417646Y488046D01*
X417736Y488089D01*
X417828Y488129D01*
X417922Y488165D01*
X418017Y488197D01*
X418113Y488225D01*
X418211Y488250D01*
X418309Y488270D01*
X418408Y488287D01*
X418508Y488300D01*
X418607Y488309D01*
X418708Y488314D01*
X418808Y488315D01*
X418908Y488312D01*
X419009Y488305D01*
X419108Y488294D01*
X419208Y488279D01*
X419306Y488261D01*
X419404Y488238D01*
X419501Y488211D01*
X419596Y488181D01*
X419691Y488147D01*
X419784Y488109D01*
X419875Y488068D01*
X419965Y488023D01*
X420053Y487975D01*
X420139Y487923D01*
X420223Y487868D01*
X420304Y487809D01*
X420383Y487747D01*
X420460Y487683D01*
X420534Y487615D01*
X420605Y487544D01*
X420674Y487471D01*
X420739Y487395D01*
X420802Y487316D01*
X420861Y487235D01*
X420917Y487152D01*
X420970Y487067D01*
X421019Y486979D01*
X421065Y486890D01*
X421107Y486799D01*
X421146Y486706D01*
X421181Y486612D01*
X421212Y486517D01*
X421240Y486420D01*
X421263Y486323D01*
X421283Y486224D01*
X421299Y486125D01*
X421311Y486026D01*
X421319Y485925D01*
X421323Y485825D01*
X421323Y485725D01*
X421319Y485625D01*
X421311Y485524D01*
X421299Y485425D01*
X421283Y485326D01*
X421263Y485227D01*
X421240Y485130D01*
X421212Y485033D01*
X421181Y484938D01*
X421146Y484844D01*
X421107Y484751D01*
X421065Y484660D01*
X421019Y484571D01*
X420970Y484483D01*
X420917Y484398D01*
X420861Y484315D01*
X420802Y484234D01*
X420739Y484155D01*
X420674Y484079D01*
X420605Y484006D01*
X420534Y483935D01*
X420460Y483867D01*
X420383Y483803D01*
X420304Y483741D01*
X420223Y483682D01*
X420139Y483627D01*
X420053Y483575D01*
X419965Y483527D01*
X419875Y483482D01*
X419784Y483441D01*
X419691Y483403D01*
X419596Y483369D01*
X419501Y483339D01*
X419404Y483312D01*
X419306Y483289D01*
X419208Y483271D01*
X419108Y483256D01*
X419009Y483245D01*
X418908Y483238D01*
X418808Y483235D01*
X418708Y483236D01*
X418607Y483241D01*
X418508Y483250D01*
X418408Y483263D01*
X418309Y483280D01*
X418211Y483300D01*
X418113Y483325D01*
X418017Y483353D01*
X417922Y483385D01*
X417828Y483421D01*
X417736Y483461D01*
X417646Y483504D01*
X417557Y483551D01*
X417470Y483601D01*
X417385Y483654D01*
X417302Y483711D01*
X417222Y483771D01*
X417144Y483835D01*
X417069Y483901D01*
X416996Y483970D01*
X416926Y484042D01*
X416859Y484117D01*
X416795Y484194D01*
X416734Y484274D01*
X416676Y484356D01*
X416622Y484440D01*
X416571Y484527D01*
X416523Y484615D01*
X416479Y484705D01*
X416439Y484797D01*
X416402Y484891D01*
X416369Y484985D01*
X416340Y485081D01*
X416314Y485178D01*
X416292Y485276D01*
X416275Y485375D01*
X416261Y485475D01*
X416251Y485574D01*
X416245Y485675D01*
X416243Y485775D01*
D11*
X182563Y534194D02*
X169863Y534194D01*
X163513Y540544D01*
X163513Y553244D01*
X169863Y559594D01*
X163513Y540544D02*
X157163Y534194D01*
X144463Y534194D01*
X138113Y540544D01*
X138113Y553244D01*
X144463Y559594D01*
X157163Y559594D01*
X163513Y553244D01*
X188913Y553244D02*
X188913Y540544D01*
X182563Y534194D01*
X188913Y553244D02*
X182563Y559594D01*
X169863Y559594D01*
X138113Y540544D02*
X131763Y534194D01*
X119063Y534194D01*
X112713Y540544D01*
X112713Y553244D01*
X119063Y559594D01*
X131763Y559594D01*
X138113Y553244D01*
D13*
X454094Y562500D03*
X454094Y548750D03*
D14*
X450219Y555625D03*
M02*
