G04 EAGLE Gerber RS-274X export*
G75*
%MOMM*%
%FSLAX34Y34*%
%LPD*%
%INSilkscreen Bottom*%
%IPPOS*%
%AMOC8*
5,1,8,0,0,1.08239X$1,22.5*%
G01*
%ADD10C,0.203200*%


D10*
X102172Y551434D02*
X102172Y543729D01*
X102171Y543729D02*
X102169Y543622D01*
X102163Y543515D01*
X102154Y543409D01*
X102140Y543303D01*
X102123Y543197D01*
X102102Y543092D01*
X102077Y542988D01*
X102048Y542885D01*
X102016Y542783D01*
X101980Y542682D01*
X101940Y542583D01*
X101897Y542485D01*
X101850Y542389D01*
X101800Y542294D01*
X101747Y542201D01*
X101690Y542111D01*
X101630Y542022D01*
X101567Y541936D01*
X101501Y541852D01*
X101431Y541770D01*
X101359Y541691D01*
X101284Y541615D01*
X101206Y541541D01*
X101126Y541471D01*
X101043Y541403D01*
X100958Y541338D01*
X100871Y541277D01*
X100781Y541218D01*
X100689Y541163D01*
X100596Y541111D01*
X100500Y541063D01*
X100403Y541018D01*
X100305Y540976D01*
X100205Y540939D01*
X100103Y540904D01*
X100001Y540874D01*
X99897Y540847D01*
X99793Y540824D01*
X99687Y540805D01*
X99581Y540790D01*
X99475Y540778D01*
X99368Y540770D01*
X99261Y540766D01*
X99155Y540766D01*
X99048Y540770D01*
X98941Y540778D01*
X98835Y540790D01*
X98729Y540805D01*
X98623Y540824D01*
X98519Y540847D01*
X98415Y540874D01*
X98313Y540904D01*
X98211Y540939D01*
X98111Y540976D01*
X98013Y541018D01*
X97916Y541063D01*
X97820Y541111D01*
X97726Y541163D01*
X97635Y541218D01*
X97545Y541277D01*
X97458Y541338D01*
X97373Y541403D01*
X97290Y541471D01*
X97210Y541541D01*
X97132Y541615D01*
X97057Y541691D01*
X96985Y541770D01*
X96915Y541852D01*
X96849Y541936D01*
X96786Y542022D01*
X96726Y542111D01*
X96669Y542201D01*
X96616Y542294D01*
X96566Y542389D01*
X96519Y542485D01*
X96476Y542583D01*
X96436Y542682D01*
X96400Y542783D01*
X96368Y542885D01*
X96339Y542988D01*
X96314Y543092D01*
X96293Y543197D01*
X96276Y543303D01*
X96262Y543409D01*
X96253Y543515D01*
X96247Y543622D01*
X96245Y543729D01*
X96245Y551434D01*
X89726Y551434D02*
X89726Y540766D01*
X89726Y551434D02*
X86762Y551434D01*
X86655Y551432D01*
X86548Y551426D01*
X86442Y551417D01*
X86336Y551403D01*
X86230Y551386D01*
X86125Y551365D01*
X86021Y551340D01*
X85918Y551311D01*
X85816Y551279D01*
X85715Y551243D01*
X85616Y551203D01*
X85518Y551160D01*
X85422Y551113D01*
X85327Y551063D01*
X85234Y551010D01*
X85144Y550953D01*
X85055Y550893D01*
X84969Y550830D01*
X84885Y550764D01*
X84803Y550694D01*
X84724Y550622D01*
X84648Y550547D01*
X84574Y550469D01*
X84504Y550389D01*
X84436Y550306D01*
X84371Y550221D01*
X84310Y550134D01*
X84251Y550044D01*
X84196Y549953D01*
X84144Y549859D01*
X84096Y549763D01*
X84051Y549666D01*
X84009Y549568D01*
X83972Y549468D01*
X83937Y549366D01*
X83907Y549264D01*
X83880Y549160D01*
X83857Y549056D01*
X83838Y548950D01*
X83823Y548844D01*
X83811Y548738D01*
X83803Y548631D01*
X83799Y548524D01*
X83799Y548418D01*
X83803Y548311D01*
X83811Y548204D01*
X83823Y548098D01*
X83838Y547992D01*
X83857Y547886D01*
X83880Y547782D01*
X83907Y547678D01*
X83937Y547576D01*
X83972Y547474D01*
X84009Y547374D01*
X84051Y547276D01*
X84096Y547179D01*
X84144Y547083D01*
X84196Y546990D01*
X84251Y546898D01*
X84310Y546808D01*
X84371Y546721D01*
X84436Y546636D01*
X84504Y546553D01*
X84574Y546473D01*
X84648Y546395D01*
X84724Y546320D01*
X84803Y546248D01*
X84885Y546178D01*
X84969Y546112D01*
X85055Y546049D01*
X85144Y545989D01*
X85234Y545932D01*
X85327Y545879D01*
X85422Y545829D01*
X85518Y545782D01*
X85616Y545739D01*
X85715Y545699D01*
X85816Y545663D01*
X85918Y545631D01*
X86021Y545602D01*
X86125Y545577D01*
X86230Y545556D01*
X86336Y545539D01*
X86442Y545525D01*
X86548Y545516D01*
X86655Y545510D01*
X86762Y545508D01*
X86762Y545507D02*
X89726Y545507D01*
X78550Y540766D02*
X78550Y551434D01*
X75586Y551434D01*
X75478Y551432D01*
X75370Y551426D01*
X75262Y551416D01*
X75155Y551402D01*
X75048Y551385D01*
X74942Y551363D01*
X74837Y551338D01*
X74732Y551308D01*
X74629Y551275D01*
X74528Y551238D01*
X74427Y551198D01*
X74328Y551154D01*
X74231Y551106D01*
X74136Y551055D01*
X74042Y551000D01*
X73951Y550942D01*
X73862Y550881D01*
X73775Y550816D01*
X73691Y550749D01*
X73609Y550678D01*
X73529Y550604D01*
X73453Y550528D01*
X73379Y550448D01*
X73309Y550366D01*
X73241Y550282D01*
X73176Y550195D01*
X73115Y550106D01*
X73057Y550015D01*
X73002Y549921D01*
X72951Y549826D01*
X72903Y549729D01*
X72859Y549630D01*
X72819Y549529D01*
X72782Y549428D01*
X72749Y549325D01*
X72719Y549220D01*
X72694Y549115D01*
X72672Y549009D01*
X72655Y548902D01*
X72641Y548795D01*
X72631Y548687D01*
X72625Y548579D01*
X72623Y548471D01*
X72623Y543729D01*
X72625Y543623D01*
X72631Y543518D01*
X72640Y543412D01*
X72653Y543307D01*
X72670Y543203D01*
X72691Y543099D01*
X72715Y542996D01*
X72743Y542894D01*
X72775Y542793D01*
X72810Y542694D01*
X72849Y542595D01*
X72891Y542498D01*
X72936Y542403D01*
X72985Y542309D01*
X73038Y542217D01*
X73093Y542127D01*
X73152Y542039D01*
X73214Y541953D01*
X73279Y541870D01*
X73347Y541789D01*
X73417Y541710D01*
X73491Y541634D01*
X73567Y541560D01*
X73646Y541490D01*
X73727Y541422D01*
X73810Y541357D01*
X73896Y541295D01*
X73984Y541236D01*
X74074Y541181D01*
X74166Y541128D01*
X74260Y541079D01*
X74355Y541034D01*
X74452Y540992D01*
X74551Y540953D01*
X74650Y540918D01*
X74751Y540886D01*
X74853Y540858D01*
X74956Y540834D01*
X75060Y540813D01*
X75164Y540796D01*
X75269Y540783D01*
X75375Y540774D01*
X75480Y540768D01*
X75586Y540766D01*
X78550Y540766D01*
X66061Y540766D02*
X66061Y551434D01*
X67247Y540766D02*
X64876Y540766D01*
X64876Y551434D02*
X67247Y551434D01*
X131964Y571299D02*
X133742Y571299D01*
X131964Y571299D02*
X131964Y565372D01*
X135520Y565372D01*
X135615Y565374D01*
X135711Y565380D01*
X135806Y565389D01*
X135900Y565403D01*
X135994Y565420D01*
X136087Y565441D01*
X136180Y565466D01*
X136271Y565494D01*
X136361Y565526D01*
X136449Y565562D01*
X136536Y565601D01*
X136622Y565644D01*
X136706Y565690D01*
X136787Y565739D01*
X136867Y565792D01*
X136944Y565848D01*
X137020Y565906D01*
X137092Y565968D01*
X137162Y566033D01*
X137230Y566101D01*
X137295Y566171D01*
X137357Y566243D01*
X137415Y566319D01*
X137471Y566396D01*
X137524Y566476D01*
X137573Y566558D01*
X137619Y566641D01*
X137662Y566727D01*
X137701Y566814D01*
X137737Y566902D01*
X137769Y566992D01*
X137797Y567083D01*
X137822Y567176D01*
X137843Y567269D01*
X137860Y567363D01*
X137874Y567457D01*
X137883Y567552D01*
X137889Y567648D01*
X137891Y567743D01*
X137890Y567743D02*
X137890Y573670D01*
X137891Y573670D02*
X137889Y573765D01*
X137883Y573861D01*
X137874Y573956D01*
X137860Y574050D01*
X137843Y574144D01*
X137822Y574237D01*
X137797Y574330D01*
X137769Y574421D01*
X137737Y574511D01*
X137701Y574599D01*
X137662Y574686D01*
X137619Y574772D01*
X137573Y574855D01*
X137524Y574937D01*
X137471Y575017D01*
X137415Y575094D01*
X137357Y575170D01*
X137295Y575242D01*
X137230Y575312D01*
X137162Y575380D01*
X137092Y575445D01*
X137020Y575507D01*
X136944Y575565D01*
X136867Y575621D01*
X136787Y575674D01*
X136706Y575723D01*
X136622Y575769D01*
X136536Y575812D01*
X136449Y575851D01*
X136361Y575887D01*
X136271Y575919D01*
X136180Y575947D01*
X136087Y575972D01*
X135994Y575993D01*
X135900Y576010D01*
X135806Y576024D01*
X135711Y576033D01*
X135616Y576039D01*
X135520Y576041D01*
X135520Y576040D02*
X131964Y576040D01*
X125698Y576040D02*
X125698Y565372D01*
X119772Y565372D02*
X125698Y576040D01*
X119772Y576040D02*
X119772Y565372D01*
X113506Y565372D02*
X113506Y576040D01*
X110543Y576040D01*
X110435Y576038D01*
X110327Y576032D01*
X110219Y576022D01*
X110112Y576008D01*
X110005Y575991D01*
X109899Y575969D01*
X109794Y575944D01*
X109689Y575914D01*
X109586Y575881D01*
X109485Y575844D01*
X109384Y575804D01*
X109285Y575760D01*
X109188Y575712D01*
X109093Y575661D01*
X108999Y575606D01*
X108908Y575548D01*
X108819Y575487D01*
X108732Y575422D01*
X108648Y575355D01*
X108566Y575284D01*
X108486Y575210D01*
X108410Y575134D01*
X108336Y575054D01*
X108266Y574972D01*
X108198Y574888D01*
X108133Y574801D01*
X108072Y574712D01*
X108014Y574621D01*
X107959Y574527D01*
X107908Y574432D01*
X107860Y574335D01*
X107816Y574236D01*
X107776Y574135D01*
X107739Y574034D01*
X107706Y573931D01*
X107676Y573826D01*
X107651Y573721D01*
X107629Y573615D01*
X107612Y573508D01*
X107598Y573401D01*
X107588Y573293D01*
X107582Y573185D01*
X107580Y573077D01*
X107580Y568336D01*
X107582Y568230D01*
X107588Y568125D01*
X107597Y568019D01*
X107610Y567914D01*
X107627Y567810D01*
X107648Y567706D01*
X107672Y567603D01*
X107700Y567501D01*
X107732Y567400D01*
X107767Y567301D01*
X107806Y567202D01*
X107848Y567105D01*
X107893Y567010D01*
X107942Y566916D01*
X107995Y566824D01*
X108050Y566734D01*
X108109Y566646D01*
X108171Y566560D01*
X108236Y566477D01*
X108304Y566396D01*
X108374Y566317D01*
X108448Y566241D01*
X108524Y566167D01*
X108603Y566097D01*
X108684Y566029D01*
X108767Y565964D01*
X108853Y565902D01*
X108941Y565843D01*
X109031Y565788D01*
X109123Y565735D01*
X109217Y565686D01*
X109312Y565641D01*
X109409Y565599D01*
X109508Y565560D01*
X109607Y565525D01*
X109708Y565493D01*
X109810Y565465D01*
X109913Y565441D01*
X110017Y565420D01*
X110121Y565403D01*
X110226Y565390D01*
X110332Y565381D01*
X110437Y565375D01*
X110543Y565373D01*
X110543Y565372D02*
X113506Y565372D01*
X154559Y566166D02*
X154559Y576834D01*
X151596Y576834D01*
X151489Y576832D01*
X151382Y576826D01*
X151276Y576817D01*
X151170Y576803D01*
X151064Y576786D01*
X150959Y576765D01*
X150855Y576740D01*
X150752Y576711D01*
X150650Y576679D01*
X150549Y576643D01*
X150450Y576603D01*
X150352Y576560D01*
X150256Y576513D01*
X150161Y576463D01*
X150068Y576410D01*
X149978Y576353D01*
X149889Y576293D01*
X149803Y576230D01*
X149719Y576164D01*
X149637Y576094D01*
X149558Y576022D01*
X149482Y575947D01*
X149408Y575869D01*
X149338Y575789D01*
X149270Y575706D01*
X149205Y575621D01*
X149144Y575534D01*
X149085Y575444D01*
X149030Y575353D01*
X148978Y575259D01*
X148930Y575163D01*
X148885Y575066D01*
X148843Y574968D01*
X148806Y574868D01*
X148771Y574766D01*
X148741Y574664D01*
X148714Y574560D01*
X148691Y574456D01*
X148672Y574350D01*
X148657Y574244D01*
X148645Y574138D01*
X148637Y574031D01*
X148633Y573924D01*
X148633Y573818D01*
X148637Y573711D01*
X148645Y573604D01*
X148657Y573498D01*
X148672Y573392D01*
X148691Y573286D01*
X148714Y573182D01*
X148741Y573078D01*
X148771Y572976D01*
X148806Y572874D01*
X148843Y572774D01*
X148885Y572676D01*
X148930Y572579D01*
X148978Y572483D01*
X149030Y572390D01*
X149085Y572298D01*
X149144Y572208D01*
X149205Y572121D01*
X149270Y572036D01*
X149338Y571953D01*
X149408Y571873D01*
X149482Y571795D01*
X149558Y571720D01*
X149637Y571648D01*
X149719Y571578D01*
X149803Y571512D01*
X149889Y571449D01*
X149978Y571389D01*
X150068Y571332D01*
X150161Y571279D01*
X150256Y571229D01*
X150352Y571182D01*
X150450Y571139D01*
X150549Y571099D01*
X150650Y571063D01*
X150752Y571031D01*
X150855Y571002D01*
X150959Y570977D01*
X151064Y570956D01*
X151170Y570939D01*
X151276Y570925D01*
X151382Y570916D01*
X151489Y570910D01*
X151596Y570908D01*
X151596Y570907D02*
X154559Y570907D01*
X190691Y565372D02*
X194247Y576040D01*
X187135Y576040D02*
X190691Y565372D01*
X179903Y565372D02*
X177532Y565372D01*
X179903Y565372D02*
X179998Y565374D01*
X180094Y565380D01*
X180189Y565389D01*
X180283Y565403D01*
X180377Y565420D01*
X180470Y565441D01*
X180563Y565466D01*
X180654Y565494D01*
X180744Y565526D01*
X180832Y565562D01*
X180919Y565601D01*
X181005Y565644D01*
X181089Y565690D01*
X181170Y565739D01*
X181250Y565792D01*
X181327Y565848D01*
X181403Y565906D01*
X181475Y565968D01*
X181545Y566033D01*
X181613Y566101D01*
X181678Y566171D01*
X181740Y566243D01*
X181798Y566319D01*
X181854Y566396D01*
X181907Y566476D01*
X181956Y566558D01*
X182002Y566641D01*
X182045Y566727D01*
X182084Y566814D01*
X182120Y566902D01*
X182152Y566992D01*
X182180Y567083D01*
X182205Y567176D01*
X182226Y567269D01*
X182243Y567363D01*
X182257Y567457D01*
X182266Y567552D01*
X182272Y567648D01*
X182274Y567743D01*
X182274Y573670D01*
X182272Y573765D01*
X182266Y573861D01*
X182257Y573956D01*
X182243Y574050D01*
X182226Y574144D01*
X182205Y574237D01*
X182180Y574330D01*
X182152Y574421D01*
X182120Y574511D01*
X182084Y574599D01*
X182045Y574686D01*
X182002Y574772D01*
X181956Y574855D01*
X181907Y574937D01*
X181854Y575017D01*
X181798Y575094D01*
X181740Y575170D01*
X181678Y575242D01*
X181613Y575312D01*
X181545Y575380D01*
X181475Y575445D01*
X181403Y575507D01*
X181327Y575565D01*
X181250Y575621D01*
X181170Y575674D01*
X181089Y575723D01*
X181005Y575769D01*
X180919Y575812D01*
X180832Y575851D01*
X180744Y575887D01*
X180654Y575919D01*
X180563Y575947D01*
X180470Y575972D01*
X180377Y575993D01*
X180283Y576010D01*
X180189Y576024D01*
X180094Y576033D01*
X179999Y576039D01*
X179903Y576041D01*
X179903Y576040D02*
X177532Y576040D01*
X170378Y565372D02*
X168007Y565372D01*
X170378Y565372D02*
X170473Y565374D01*
X170569Y565380D01*
X170664Y565389D01*
X170758Y565403D01*
X170852Y565420D01*
X170945Y565441D01*
X171038Y565466D01*
X171129Y565494D01*
X171219Y565526D01*
X171307Y565562D01*
X171394Y565601D01*
X171480Y565644D01*
X171564Y565690D01*
X171645Y565739D01*
X171725Y565792D01*
X171802Y565848D01*
X171878Y565906D01*
X171950Y565968D01*
X172020Y566033D01*
X172088Y566101D01*
X172153Y566171D01*
X172215Y566243D01*
X172273Y566319D01*
X172329Y566396D01*
X172382Y566476D01*
X172431Y566558D01*
X172477Y566641D01*
X172520Y566727D01*
X172559Y566814D01*
X172595Y566902D01*
X172627Y566992D01*
X172655Y567083D01*
X172680Y567176D01*
X172701Y567269D01*
X172718Y567363D01*
X172732Y567457D01*
X172741Y567552D01*
X172747Y567648D01*
X172749Y567743D01*
X172749Y573670D01*
X172747Y573765D01*
X172741Y573861D01*
X172732Y573956D01*
X172718Y574050D01*
X172701Y574144D01*
X172680Y574237D01*
X172655Y574330D01*
X172627Y574421D01*
X172595Y574511D01*
X172559Y574599D01*
X172520Y574686D01*
X172477Y574772D01*
X172431Y574855D01*
X172382Y574937D01*
X172329Y575017D01*
X172273Y575094D01*
X172215Y575170D01*
X172153Y575242D01*
X172088Y575312D01*
X172020Y575380D01*
X171950Y575445D01*
X171878Y575507D01*
X171802Y575565D01*
X171725Y575621D01*
X171645Y575674D01*
X171564Y575723D01*
X171480Y575769D01*
X171394Y575812D01*
X171307Y575851D01*
X171219Y575887D01*
X171129Y575919D01*
X171038Y575947D01*
X170945Y575972D01*
X170852Y575993D01*
X170758Y576010D01*
X170664Y576024D01*
X170569Y576033D01*
X170474Y576039D01*
X170378Y576041D01*
X170378Y576040D02*
X168007Y576040D01*
X410147Y60897D02*
X410147Y50229D01*
X410147Y60897D02*
X407183Y60897D01*
X407183Y60896D02*
X407076Y60894D01*
X406969Y60888D01*
X406863Y60879D01*
X406757Y60865D01*
X406651Y60848D01*
X406546Y60827D01*
X406442Y60802D01*
X406339Y60773D01*
X406237Y60741D01*
X406136Y60705D01*
X406037Y60665D01*
X405939Y60622D01*
X405843Y60575D01*
X405748Y60525D01*
X405655Y60472D01*
X405565Y60415D01*
X405476Y60355D01*
X405390Y60292D01*
X405306Y60226D01*
X405224Y60156D01*
X405145Y60084D01*
X405069Y60009D01*
X404995Y59931D01*
X404925Y59851D01*
X404857Y59768D01*
X404792Y59683D01*
X404731Y59596D01*
X404672Y59506D01*
X404617Y59415D01*
X404565Y59321D01*
X404517Y59225D01*
X404472Y59128D01*
X404430Y59030D01*
X404393Y58930D01*
X404358Y58828D01*
X404328Y58726D01*
X404301Y58622D01*
X404278Y58518D01*
X404259Y58412D01*
X404244Y58306D01*
X404232Y58200D01*
X404224Y58093D01*
X404220Y57986D01*
X404220Y57880D01*
X404224Y57773D01*
X404232Y57666D01*
X404244Y57560D01*
X404259Y57454D01*
X404278Y57348D01*
X404301Y57244D01*
X404328Y57140D01*
X404358Y57038D01*
X404393Y56936D01*
X404430Y56836D01*
X404472Y56738D01*
X404517Y56641D01*
X404565Y56545D01*
X404617Y56452D01*
X404672Y56360D01*
X404731Y56270D01*
X404792Y56183D01*
X404857Y56098D01*
X404925Y56015D01*
X404995Y55935D01*
X405069Y55857D01*
X405145Y55782D01*
X405224Y55710D01*
X405306Y55640D01*
X405390Y55574D01*
X405476Y55511D01*
X405565Y55451D01*
X405655Y55394D01*
X405748Y55341D01*
X405843Y55291D01*
X405939Y55244D01*
X406037Y55201D01*
X406136Y55161D01*
X406237Y55125D01*
X406339Y55093D01*
X406442Y55064D01*
X406546Y55039D01*
X406651Y55018D01*
X406757Y55001D01*
X406863Y54987D01*
X406969Y54978D01*
X407076Y54972D01*
X407183Y54970D01*
X410147Y54970D01*
X398674Y50229D02*
X398674Y60897D01*
X399860Y50229D02*
X397489Y50229D01*
X397489Y60897D02*
X399860Y60897D01*
X390123Y60897D02*
X392494Y52599D01*
X386567Y52599D01*
X388345Y50229D02*
X388345Y54970D01*
X374587Y50229D02*
X374587Y60897D01*
X368660Y50229D01*
X368660Y60897D01*
X362945Y54970D02*
X362945Y52599D01*
X362945Y54970D02*
X362943Y55067D01*
X362937Y55163D01*
X362927Y55259D01*
X362913Y55355D01*
X362896Y55450D01*
X362874Y55545D01*
X362849Y55638D01*
X362820Y55730D01*
X362787Y55821D01*
X362750Y55911D01*
X362710Y55999D01*
X362666Y56085D01*
X362619Y56169D01*
X362569Y56252D01*
X362515Y56332D01*
X362457Y56410D01*
X362397Y56486D01*
X362334Y56559D01*
X362268Y56629D01*
X362198Y56697D01*
X362127Y56762D01*
X362052Y56824D01*
X361975Y56882D01*
X361896Y56938D01*
X361815Y56990D01*
X361731Y57039D01*
X361646Y57085D01*
X361559Y57127D01*
X361470Y57165D01*
X361380Y57200D01*
X361288Y57231D01*
X361195Y57258D01*
X361102Y57282D01*
X361007Y57301D01*
X360911Y57317D01*
X360815Y57329D01*
X360719Y57337D01*
X360622Y57341D01*
X360526Y57341D01*
X360429Y57337D01*
X360333Y57329D01*
X360237Y57317D01*
X360141Y57301D01*
X360046Y57282D01*
X359953Y57258D01*
X359860Y57231D01*
X359768Y57200D01*
X359678Y57165D01*
X359589Y57127D01*
X359502Y57085D01*
X359417Y57039D01*
X359333Y56990D01*
X359252Y56938D01*
X359173Y56882D01*
X359096Y56824D01*
X359021Y56762D01*
X358950Y56697D01*
X358880Y56629D01*
X358814Y56559D01*
X358751Y56486D01*
X358691Y56410D01*
X358633Y56332D01*
X358579Y56252D01*
X358529Y56169D01*
X358482Y56085D01*
X358438Y55999D01*
X358398Y55911D01*
X358361Y55821D01*
X358328Y55730D01*
X358299Y55638D01*
X358274Y55545D01*
X358252Y55450D01*
X358235Y55355D01*
X358221Y55259D01*
X358211Y55163D01*
X358205Y55067D01*
X358203Y54970D01*
X358204Y54970D02*
X358204Y52599D01*
X358203Y52599D02*
X358205Y52502D01*
X358211Y52406D01*
X358221Y52310D01*
X358235Y52214D01*
X358252Y52119D01*
X358274Y52024D01*
X358299Y51931D01*
X358328Y51839D01*
X358361Y51748D01*
X358398Y51658D01*
X358438Y51570D01*
X358482Y51484D01*
X358529Y51400D01*
X358579Y51317D01*
X358633Y51237D01*
X358691Y51159D01*
X358751Y51083D01*
X358814Y51010D01*
X358880Y50940D01*
X358950Y50872D01*
X359021Y50807D01*
X359096Y50745D01*
X359173Y50687D01*
X359252Y50631D01*
X359333Y50579D01*
X359417Y50530D01*
X359502Y50484D01*
X359589Y50442D01*
X359678Y50404D01*
X359768Y50369D01*
X359860Y50338D01*
X359953Y50311D01*
X360046Y50287D01*
X360141Y50268D01*
X360237Y50252D01*
X360333Y50240D01*
X360429Y50232D01*
X360526Y50228D01*
X360622Y50228D01*
X360719Y50232D01*
X360815Y50240D01*
X360911Y50252D01*
X361007Y50268D01*
X361102Y50287D01*
X361195Y50311D01*
X361288Y50338D01*
X361380Y50369D01*
X361470Y50404D01*
X361559Y50442D01*
X361646Y50484D01*
X361731Y50530D01*
X361815Y50579D01*
X361896Y50631D01*
X361975Y50687D01*
X362052Y50745D01*
X362127Y50807D01*
X362198Y50872D01*
X362268Y50940D01*
X362334Y51010D01*
X362397Y51083D01*
X362457Y51159D01*
X362515Y51237D01*
X362569Y51317D01*
X362619Y51400D01*
X362666Y51484D01*
X362710Y51570D01*
X362750Y51658D01*
X362787Y51748D01*
X362820Y51839D01*
X362849Y51931D01*
X362874Y52024D01*
X362896Y52119D01*
X362913Y52214D01*
X362927Y52310D01*
X362937Y52406D01*
X362943Y52502D01*
X362945Y52599D01*
X351241Y50229D02*
X348870Y50229D01*
X351241Y50229D02*
X351323Y50231D01*
X351405Y50237D01*
X351487Y50246D01*
X351568Y50259D01*
X351648Y50276D01*
X351728Y50297D01*
X351806Y50321D01*
X351883Y50349D01*
X351959Y50380D01*
X352034Y50415D01*
X352106Y50454D01*
X352177Y50495D01*
X352246Y50540D01*
X352312Y50588D01*
X352377Y50639D01*
X352439Y50693D01*
X352498Y50750D01*
X352555Y50809D01*
X352609Y50871D01*
X352660Y50936D01*
X352708Y51002D01*
X352753Y51071D01*
X352794Y51142D01*
X352833Y51214D01*
X352868Y51289D01*
X352899Y51365D01*
X352927Y51442D01*
X352951Y51520D01*
X352972Y51600D01*
X352989Y51680D01*
X353002Y51761D01*
X353011Y51843D01*
X353017Y51925D01*
X353019Y52007D01*
X353019Y55563D01*
X353017Y55645D01*
X353011Y55727D01*
X353002Y55809D01*
X352989Y55890D01*
X352972Y55970D01*
X352951Y56050D01*
X352927Y56128D01*
X352899Y56205D01*
X352868Y56281D01*
X352833Y56356D01*
X352794Y56428D01*
X352753Y56499D01*
X352708Y56568D01*
X352660Y56634D01*
X352609Y56699D01*
X352555Y56761D01*
X352498Y56820D01*
X352439Y56877D01*
X352377Y56931D01*
X352312Y56982D01*
X352246Y57030D01*
X352177Y57075D01*
X352106Y57116D01*
X352034Y57155D01*
X351959Y57190D01*
X351883Y57221D01*
X351806Y57249D01*
X351728Y57273D01*
X351648Y57294D01*
X351568Y57311D01*
X351487Y57324D01*
X351405Y57333D01*
X351323Y57339D01*
X351241Y57341D01*
X348870Y57341D01*
X345346Y57341D02*
X341790Y57341D01*
X344161Y60897D02*
X344161Y52007D01*
X344159Y51925D01*
X344153Y51843D01*
X344144Y51761D01*
X344131Y51680D01*
X344114Y51600D01*
X344093Y51520D01*
X344069Y51442D01*
X344041Y51365D01*
X344010Y51289D01*
X343975Y51214D01*
X343936Y51142D01*
X343895Y51071D01*
X343850Y51002D01*
X343802Y50936D01*
X343751Y50871D01*
X343697Y50809D01*
X343640Y50750D01*
X343581Y50693D01*
X343519Y50639D01*
X343454Y50588D01*
X343388Y50540D01*
X343319Y50495D01*
X343248Y50454D01*
X343176Y50415D01*
X343101Y50380D01*
X343025Y50349D01*
X342948Y50321D01*
X342870Y50297D01*
X342790Y50276D01*
X342710Y50259D01*
X342629Y50246D01*
X342547Y50237D01*
X342465Y50231D01*
X342383Y50229D01*
X341790Y50229D01*
X336656Y52007D02*
X336656Y57341D01*
X336656Y52007D02*
X336654Y51925D01*
X336648Y51843D01*
X336639Y51761D01*
X336626Y51680D01*
X336609Y51600D01*
X336588Y51520D01*
X336564Y51442D01*
X336536Y51365D01*
X336505Y51289D01*
X336470Y51214D01*
X336431Y51142D01*
X336390Y51071D01*
X336345Y51002D01*
X336297Y50936D01*
X336246Y50871D01*
X336192Y50809D01*
X336135Y50750D01*
X336076Y50693D01*
X336014Y50639D01*
X335949Y50588D01*
X335883Y50540D01*
X335814Y50495D01*
X335743Y50454D01*
X335671Y50415D01*
X335596Y50380D01*
X335520Y50349D01*
X335443Y50321D01*
X335365Y50297D01*
X335285Y50276D01*
X335205Y50259D01*
X335124Y50246D01*
X335042Y50237D01*
X334960Y50231D01*
X334878Y50229D01*
X331915Y50229D01*
X331915Y57341D01*
X324383Y54377D02*
X321716Y54377D01*
X324383Y54377D02*
X324472Y54375D01*
X324561Y54369D01*
X324650Y54360D01*
X324738Y54346D01*
X324826Y54329D01*
X324913Y54308D01*
X324998Y54284D01*
X325083Y54255D01*
X325166Y54223D01*
X325248Y54188D01*
X325329Y54149D01*
X325407Y54107D01*
X325484Y54061D01*
X325558Y54012D01*
X325631Y53960D01*
X325701Y53904D01*
X325769Y53846D01*
X325834Y53785D01*
X325896Y53721D01*
X325956Y53655D01*
X326012Y53586D01*
X326066Y53515D01*
X326117Y53441D01*
X326164Y53366D01*
X326208Y53288D01*
X326249Y53209D01*
X326286Y53128D01*
X326320Y53045D01*
X326350Y52961D01*
X326376Y52876D01*
X326399Y52789D01*
X326418Y52702D01*
X326434Y52614D01*
X326445Y52526D01*
X326453Y52437D01*
X326457Y52348D01*
X326457Y52258D01*
X326453Y52169D01*
X326445Y52080D01*
X326434Y51992D01*
X326418Y51904D01*
X326399Y51817D01*
X326376Y51730D01*
X326350Y51645D01*
X326320Y51561D01*
X326286Y51478D01*
X326249Y51397D01*
X326208Y51318D01*
X326164Y51240D01*
X326117Y51165D01*
X326066Y51091D01*
X326012Y51020D01*
X325956Y50951D01*
X325896Y50885D01*
X325834Y50821D01*
X325769Y50760D01*
X325701Y50702D01*
X325631Y50646D01*
X325558Y50594D01*
X325484Y50545D01*
X325407Y50499D01*
X325329Y50457D01*
X325248Y50418D01*
X325166Y50383D01*
X325083Y50351D01*
X324998Y50322D01*
X324913Y50298D01*
X324826Y50277D01*
X324738Y50260D01*
X324650Y50246D01*
X324561Y50237D01*
X324472Y50231D01*
X324383Y50229D01*
X321716Y50229D01*
X321716Y55563D01*
X321718Y55645D01*
X321724Y55727D01*
X321733Y55809D01*
X321746Y55890D01*
X321763Y55970D01*
X321784Y56050D01*
X321808Y56128D01*
X321836Y56205D01*
X321867Y56281D01*
X321902Y56356D01*
X321941Y56428D01*
X321982Y56499D01*
X322027Y56568D01*
X322075Y56634D01*
X322126Y56699D01*
X322180Y56761D01*
X322237Y56820D01*
X322296Y56877D01*
X322358Y56931D01*
X322423Y56982D01*
X322489Y57030D01*
X322558Y57075D01*
X322629Y57116D01*
X322701Y57155D01*
X322776Y57190D01*
X322852Y57221D01*
X322929Y57249D01*
X323007Y57273D01*
X323087Y57294D01*
X323167Y57311D01*
X323248Y57324D01*
X323330Y57333D01*
X323412Y57339D01*
X323494Y57341D01*
X325865Y57341D01*
X309817Y52599D02*
X307446Y60897D01*
X309817Y52599D02*
X303890Y52599D01*
X305668Y50229D02*
X305668Y54970D01*
X298217Y54377D02*
X291105Y54377D01*
X285687Y60897D02*
X283316Y50229D01*
X280945Y57341D01*
X278575Y50229D01*
X276204Y60897D01*
X271420Y57341D02*
X271420Y50229D01*
X271717Y60304D02*
X271717Y60897D01*
X271124Y60897D01*
X271124Y60304D01*
X271717Y60304D01*
X266072Y57341D02*
X266072Y50229D01*
X266072Y57341D02*
X262516Y57341D01*
X262516Y56155D01*
X256773Y50229D02*
X253810Y50229D01*
X256773Y50229D02*
X256855Y50231D01*
X256937Y50237D01*
X257019Y50246D01*
X257100Y50259D01*
X257180Y50276D01*
X257260Y50297D01*
X257338Y50321D01*
X257415Y50349D01*
X257491Y50380D01*
X257566Y50415D01*
X257638Y50454D01*
X257709Y50495D01*
X257778Y50540D01*
X257844Y50588D01*
X257909Y50639D01*
X257971Y50693D01*
X258030Y50750D01*
X258087Y50809D01*
X258141Y50871D01*
X258192Y50936D01*
X258240Y51002D01*
X258285Y51071D01*
X258326Y51142D01*
X258365Y51214D01*
X258400Y51289D01*
X258431Y51365D01*
X258459Y51442D01*
X258483Y51520D01*
X258504Y51600D01*
X258521Y51680D01*
X258534Y51761D01*
X258543Y51843D01*
X258549Y51925D01*
X258551Y52007D01*
X258551Y54970D01*
X258552Y54970D02*
X258550Y55067D01*
X258544Y55163D01*
X258534Y55259D01*
X258520Y55355D01*
X258503Y55450D01*
X258481Y55545D01*
X258456Y55638D01*
X258427Y55730D01*
X258394Y55821D01*
X258357Y55911D01*
X258317Y55999D01*
X258273Y56085D01*
X258226Y56169D01*
X258176Y56252D01*
X258122Y56332D01*
X258064Y56410D01*
X258004Y56486D01*
X257941Y56559D01*
X257875Y56629D01*
X257805Y56697D01*
X257734Y56762D01*
X257659Y56824D01*
X257582Y56882D01*
X257503Y56938D01*
X257422Y56990D01*
X257338Y57039D01*
X257253Y57085D01*
X257166Y57127D01*
X257077Y57165D01*
X256987Y57200D01*
X256895Y57231D01*
X256802Y57258D01*
X256709Y57282D01*
X256614Y57301D01*
X256518Y57317D01*
X256422Y57329D01*
X256326Y57337D01*
X256229Y57341D01*
X256133Y57341D01*
X256036Y57337D01*
X255940Y57329D01*
X255844Y57317D01*
X255748Y57301D01*
X255653Y57282D01*
X255560Y57258D01*
X255467Y57231D01*
X255375Y57200D01*
X255285Y57165D01*
X255196Y57127D01*
X255109Y57085D01*
X255024Y57039D01*
X254940Y56990D01*
X254859Y56938D01*
X254780Y56882D01*
X254703Y56824D01*
X254628Y56762D01*
X254557Y56697D01*
X254487Y56629D01*
X254421Y56559D01*
X254358Y56486D01*
X254298Y56410D01*
X254240Y56332D01*
X254186Y56252D01*
X254136Y56169D01*
X254089Y56085D01*
X254045Y55999D01*
X254005Y55911D01*
X253968Y55821D01*
X253935Y55730D01*
X253906Y55638D01*
X253881Y55545D01*
X253859Y55450D01*
X253842Y55355D01*
X253828Y55259D01*
X253818Y55163D01*
X253812Y55067D01*
X253810Y54970D01*
X253810Y53785D01*
X258551Y53785D01*
X241965Y50229D02*
X241965Y60897D01*
X237224Y60897D01*
X237224Y56155D02*
X241965Y56155D01*
X230657Y54377D02*
X227990Y54377D01*
X230657Y54377D02*
X230746Y54375D01*
X230835Y54369D01*
X230924Y54360D01*
X231012Y54346D01*
X231100Y54329D01*
X231187Y54308D01*
X231272Y54284D01*
X231357Y54255D01*
X231440Y54223D01*
X231522Y54188D01*
X231603Y54149D01*
X231681Y54107D01*
X231758Y54061D01*
X231832Y54012D01*
X231905Y53960D01*
X231975Y53904D01*
X232043Y53846D01*
X232108Y53785D01*
X232170Y53721D01*
X232230Y53655D01*
X232286Y53586D01*
X232340Y53515D01*
X232391Y53441D01*
X232438Y53366D01*
X232482Y53288D01*
X232523Y53209D01*
X232560Y53128D01*
X232594Y53045D01*
X232624Y52961D01*
X232650Y52876D01*
X232673Y52789D01*
X232692Y52702D01*
X232708Y52614D01*
X232719Y52526D01*
X232727Y52437D01*
X232731Y52348D01*
X232731Y52258D01*
X232727Y52169D01*
X232719Y52080D01*
X232708Y51992D01*
X232692Y51904D01*
X232673Y51817D01*
X232650Y51730D01*
X232624Y51645D01*
X232594Y51561D01*
X232560Y51478D01*
X232523Y51397D01*
X232482Y51318D01*
X232438Y51240D01*
X232391Y51165D01*
X232340Y51091D01*
X232286Y51020D01*
X232230Y50951D01*
X232170Y50885D01*
X232108Y50821D01*
X232043Y50760D01*
X231975Y50702D01*
X231905Y50646D01*
X231832Y50594D01*
X231758Y50545D01*
X231681Y50499D01*
X231603Y50457D01*
X231522Y50418D01*
X231440Y50383D01*
X231357Y50351D01*
X231272Y50322D01*
X231187Y50298D01*
X231100Y50277D01*
X231012Y50260D01*
X230924Y50246D01*
X230835Y50237D01*
X230746Y50231D01*
X230657Y50229D01*
X227990Y50229D01*
X227990Y55563D01*
X227992Y55645D01*
X227998Y55727D01*
X228007Y55809D01*
X228020Y55890D01*
X228037Y55970D01*
X228058Y56050D01*
X228082Y56128D01*
X228110Y56205D01*
X228141Y56281D01*
X228176Y56356D01*
X228215Y56428D01*
X228256Y56499D01*
X228301Y56568D01*
X228349Y56634D01*
X228400Y56699D01*
X228454Y56761D01*
X228511Y56820D01*
X228570Y56877D01*
X228632Y56931D01*
X228697Y56982D01*
X228763Y57030D01*
X228832Y57075D01*
X228903Y57116D01*
X228975Y57155D01*
X229050Y57190D01*
X229126Y57221D01*
X229203Y57249D01*
X229281Y57273D01*
X229361Y57294D01*
X229441Y57311D01*
X229522Y57324D01*
X229604Y57333D01*
X229686Y57339D01*
X229768Y57341D01*
X232139Y57341D01*
X221975Y57341D02*
X221975Y50229D01*
X221975Y57341D02*
X219012Y57341D01*
X218930Y57339D01*
X218848Y57333D01*
X218766Y57324D01*
X218685Y57311D01*
X218605Y57294D01*
X218525Y57273D01*
X218447Y57249D01*
X218370Y57221D01*
X218294Y57190D01*
X218219Y57155D01*
X218147Y57116D01*
X218076Y57075D01*
X218007Y57030D01*
X217941Y56982D01*
X217876Y56931D01*
X217814Y56877D01*
X217755Y56820D01*
X217698Y56761D01*
X217644Y56699D01*
X217593Y56634D01*
X217545Y56568D01*
X217500Y56499D01*
X217459Y56428D01*
X217420Y56356D01*
X217385Y56281D01*
X217354Y56205D01*
X217326Y56128D01*
X217302Y56050D01*
X217281Y55970D01*
X217264Y55890D01*
X217251Y55809D01*
X217242Y55727D01*
X217236Y55645D01*
X217234Y55563D01*
X217234Y50229D01*
X203102Y50229D02*
X200731Y50229D01*
X203102Y50228D02*
X203197Y50230D01*
X203293Y50236D01*
X203388Y50245D01*
X203482Y50259D01*
X203576Y50276D01*
X203669Y50297D01*
X203762Y50322D01*
X203853Y50350D01*
X203943Y50382D01*
X204031Y50418D01*
X204118Y50457D01*
X204204Y50500D01*
X204288Y50546D01*
X204369Y50595D01*
X204449Y50648D01*
X204526Y50704D01*
X204602Y50762D01*
X204674Y50824D01*
X204744Y50889D01*
X204812Y50957D01*
X204877Y51027D01*
X204939Y51099D01*
X204997Y51175D01*
X205053Y51252D01*
X205106Y51332D01*
X205155Y51414D01*
X205201Y51497D01*
X205244Y51583D01*
X205283Y51670D01*
X205319Y51758D01*
X205351Y51848D01*
X205379Y51939D01*
X205404Y52032D01*
X205425Y52125D01*
X205442Y52219D01*
X205456Y52313D01*
X205465Y52408D01*
X205471Y52504D01*
X205473Y52599D01*
X205473Y58526D01*
X205471Y58621D01*
X205465Y58717D01*
X205456Y58812D01*
X205442Y58906D01*
X205425Y59000D01*
X205404Y59093D01*
X205379Y59186D01*
X205351Y59277D01*
X205319Y59367D01*
X205283Y59455D01*
X205244Y59542D01*
X205201Y59628D01*
X205155Y59711D01*
X205106Y59793D01*
X205053Y59873D01*
X204997Y59950D01*
X204939Y60026D01*
X204877Y60098D01*
X204812Y60168D01*
X204744Y60236D01*
X204674Y60301D01*
X204602Y60363D01*
X204526Y60421D01*
X204449Y60477D01*
X204369Y60530D01*
X204288Y60579D01*
X204204Y60625D01*
X204118Y60668D01*
X204031Y60707D01*
X203943Y60743D01*
X203853Y60775D01*
X203762Y60803D01*
X203669Y60828D01*
X203576Y60849D01*
X203482Y60866D01*
X203388Y60880D01*
X203293Y60889D01*
X203198Y60895D01*
X203102Y60897D01*
X200731Y60897D01*
X196067Y54970D02*
X196067Y52599D01*
X196068Y54970D02*
X196066Y55067D01*
X196060Y55163D01*
X196050Y55259D01*
X196036Y55355D01*
X196019Y55450D01*
X195997Y55545D01*
X195972Y55638D01*
X195943Y55730D01*
X195910Y55821D01*
X195873Y55911D01*
X195833Y55999D01*
X195789Y56085D01*
X195742Y56169D01*
X195692Y56252D01*
X195638Y56332D01*
X195580Y56410D01*
X195520Y56486D01*
X195457Y56559D01*
X195391Y56629D01*
X195321Y56697D01*
X195250Y56762D01*
X195175Y56824D01*
X195098Y56882D01*
X195019Y56938D01*
X194938Y56990D01*
X194854Y57039D01*
X194769Y57085D01*
X194682Y57127D01*
X194593Y57165D01*
X194503Y57200D01*
X194411Y57231D01*
X194318Y57258D01*
X194225Y57282D01*
X194130Y57301D01*
X194034Y57317D01*
X193938Y57329D01*
X193842Y57337D01*
X193745Y57341D01*
X193649Y57341D01*
X193552Y57337D01*
X193456Y57329D01*
X193360Y57317D01*
X193264Y57301D01*
X193169Y57282D01*
X193076Y57258D01*
X192983Y57231D01*
X192891Y57200D01*
X192801Y57165D01*
X192712Y57127D01*
X192625Y57085D01*
X192540Y57039D01*
X192456Y56990D01*
X192375Y56938D01*
X192296Y56882D01*
X192219Y56824D01*
X192144Y56762D01*
X192073Y56697D01*
X192003Y56629D01*
X191937Y56559D01*
X191874Y56486D01*
X191814Y56410D01*
X191756Y56332D01*
X191702Y56252D01*
X191652Y56169D01*
X191605Y56085D01*
X191561Y55999D01*
X191521Y55911D01*
X191484Y55821D01*
X191451Y55730D01*
X191422Y55638D01*
X191397Y55545D01*
X191375Y55450D01*
X191358Y55355D01*
X191344Y55259D01*
X191334Y55163D01*
X191328Y55067D01*
X191326Y54970D01*
X191326Y52599D01*
X191328Y52502D01*
X191334Y52406D01*
X191344Y52310D01*
X191358Y52214D01*
X191375Y52119D01*
X191397Y52024D01*
X191422Y51931D01*
X191451Y51839D01*
X191484Y51748D01*
X191521Y51658D01*
X191561Y51570D01*
X191605Y51484D01*
X191652Y51400D01*
X191702Y51317D01*
X191756Y51237D01*
X191814Y51159D01*
X191874Y51083D01*
X191937Y51010D01*
X192003Y50940D01*
X192073Y50872D01*
X192144Y50807D01*
X192219Y50745D01*
X192296Y50687D01*
X192375Y50631D01*
X192456Y50579D01*
X192540Y50530D01*
X192625Y50484D01*
X192712Y50442D01*
X192801Y50404D01*
X192891Y50369D01*
X192983Y50338D01*
X193076Y50311D01*
X193169Y50287D01*
X193264Y50268D01*
X193360Y50252D01*
X193456Y50240D01*
X193552Y50232D01*
X193649Y50228D01*
X193745Y50228D01*
X193842Y50232D01*
X193938Y50240D01*
X194034Y50252D01*
X194130Y50268D01*
X194225Y50287D01*
X194318Y50311D01*
X194411Y50338D01*
X194503Y50369D01*
X194593Y50404D01*
X194682Y50442D01*
X194769Y50484D01*
X194854Y50530D01*
X194938Y50579D01*
X195019Y50631D01*
X195098Y50687D01*
X195175Y50745D01*
X195250Y50807D01*
X195321Y50872D01*
X195391Y50940D01*
X195457Y51010D01*
X195520Y51083D01*
X195580Y51159D01*
X195638Y51237D01*
X195692Y51317D01*
X195742Y51400D01*
X195789Y51484D01*
X195833Y51570D01*
X195873Y51658D01*
X195910Y51748D01*
X195943Y51839D01*
X195972Y51931D01*
X195997Y52024D01*
X196019Y52119D01*
X196036Y52214D01*
X196050Y52310D01*
X196060Y52406D01*
X196066Y52502D01*
X196068Y52599D01*
X185780Y50229D02*
X185780Y57341D01*
X182817Y57341D01*
X182735Y57339D01*
X182653Y57333D01*
X182571Y57324D01*
X182490Y57311D01*
X182410Y57294D01*
X182330Y57273D01*
X182252Y57249D01*
X182175Y57221D01*
X182099Y57190D01*
X182024Y57155D01*
X181952Y57116D01*
X181881Y57075D01*
X181812Y57030D01*
X181746Y56982D01*
X181681Y56931D01*
X181619Y56877D01*
X181560Y56820D01*
X181503Y56761D01*
X181449Y56699D01*
X181398Y56634D01*
X181350Y56568D01*
X181305Y56499D01*
X181264Y56428D01*
X181225Y56356D01*
X181190Y56281D01*
X181159Y56205D01*
X181131Y56128D01*
X181107Y56050D01*
X181086Y55970D01*
X181069Y55890D01*
X181056Y55809D01*
X181047Y55727D01*
X181041Y55645D01*
X181039Y55563D01*
X181039Y50229D01*
X176563Y57341D02*
X173007Y57341D01*
X175378Y60897D02*
X175378Y52007D01*
X175376Y51925D01*
X175370Y51843D01*
X175361Y51761D01*
X175348Y51680D01*
X175331Y51600D01*
X175310Y51520D01*
X175286Y51442D01*
X175258Y51365D01*
X175227Y51289D01*
X175192Y51214D01*
X175153Y51142D01*
X175112Y51071D01*
X175067Y51002D01*
X175019Y50936D01*
X174968Y50871D01*
X174914Y50809D01*
X174857Y50750D01*
X174798Y50693D01*
X174736Y50639D01*
X174671Y50588D01*
X174605Y50540D01*
X174536Y50495D01*
X174465Y50454D01*
X174393Y50415D01*
X174318Y50380D01*
X174242Y50349D01*
X174165Y50321D01*
X174087Y50297D01*
X174007Y50276D01*
X173927Y50259D01*
X173846Y50246D01*
X173764Y50237D01*
X173682Y50231D01*
X173600Y50229D01*
X173007Y50229D01*
X167774Y50229D02*
X167774Y57341D01*
X164218Y57341D01*
X164218Y56155D01*
X160253Y54970D02*
X160253Y52599D01*
X160254Y54970D02*
X160252Y55067D01*
X160246Y55163D01*
X160236Y55259D01*
X160222Y55355D01*
X160205Y55450D01*
X160183Y55545D01*
X160158Y55638D01*
X160129Y55730D01*
X160096Y55821D01*
X160059Y55911D01*
X160019Y55999D01*
X159975Y56085D01*
X159928Y56169D01*
X159878Y56252D01*
X159824Y56332D01*
X159766Y56410D01*
X159706Y56486D01*
X159643Y56559D01*
X159577Y56629D01*
X159507Y56697D01*
X159436Y56762D01*
X159361Y56824D01*
X159284Y56882D01*
X159205Y56938D01*
X159124Y56990D01*
X159040Y57039D01*
X158955Y57085D01*
X158868Y57127D01*
X158779Y57165D01*
X158689Y57200D01*
X158597Y57231D01*
X158504Y57258D01*
X158411Y57282D01*
X158316Y57301D01*
X158220Y57317D01*
X158124Y57329D01*
X158028Y57337D01*
X157931Y57341D01*
X157835Y57341D01*
X157738Y57337D01*
X157642Y57329D01*
X157546Y57317D01*
X157450Y57301D01*
X157355Y57282D01*
X157262Y57258D01*
X157169Y57231D01*
X157077Y57200D01*
X156987Y57165D01*
X156898Y57127D01*
X156811Y57085D01*
X156726Y57039D01*
X156642Y56990D01*
X156561Y56938D01*
X156482Y56882D01*
X156405Y56824D01*
X156330Y56762D01*
X156259Y56697D01*
X156189Y56629D01*
X156123Y56559D01*
X156060Y56486D01*
X156000Y56410D01*
X155942Y56332D01*
X155888Y56252D01*
X155838Y56169D01*
X155791Y56085D01*
X155747Y55999D01*
X155707Y55911D01*
X155670Y55821D01*
X155637Y55730D01*
X155608Y55638D01*
X155583Y55545D01*
X155561Y55450D01*
X155544Y55355D01*
X155530Y55259D01*
X155520Y55163D01*
X155514Y55067D01*
X155512Y54970D01*
X155512Y52599D01*
X155514Y52502D01*
X155520Y52406D01*
X155530Y52310D01*
X155544Y52214D01*
X155561Y52119D01*
X155583Y52024D01*
X155608Y51931D01*
X155637Y51839D01*
X155670Y51748D01*
X155707Y51658D01*
X155747Y51570D01*
X155791Y51484D01*
X155838Y51400D01*
X155888Y51317D01*
X155942Y51237D01*
X156000Y51159D01*
X156060Y51083D01*
X156123Y51010D01*
X156189Y50940D01*
X156259Y50872D01*
X156330Y50807D01*
X156405Y50745D01*
X156482Y50687D01*
X156561Y50631D01*
X156642Y50579D01*
X156726Y50530D01*
X156811Y50484D01*
X156898Y50442D01*
X156987Y50404D01*
X157077Y50369D01*
X157169Y50338D01*
X157262Y50311D01*
X157355Y50287D01*
X157450Y50268D01*
X157546Y50252D01*
X157642Y50240D01*
X157738Y50232D01*
X157835Y50228D01*
X157931Y50228D01*
X158028Y50232D01*
X158124Y50240D01*
X158220Y50252D01*
X158316Y50268D01*
X158411Y50287D01*
X158504Y50311D01*
X158597Y50338D01*
X158689Y50369D01*
X158779Y50404D01*
X158868Y50442D01*
X158955Y50484D01*
X159040Y50530D01*
X159124Y50579D01*
X159205Y50631D01*
X159284Y50687D01*
X159361Y50745D01*
X159436Y50807D01*
X159507Y50872D01*
X159577Y50940D01*
X159643Y51010D01*
X159706Y51083D01*
X159766Y51159D01*
X159824Y51237D01*
X159878Y51317D01*
X159928Y51400D01*
X159975Y51484D01*
X160019Y51570D01*
X160059Y51658D01*
X160096Y51748D01*
X160129Y51839D01*
X160158Y51931D01*
X160183Y52024D01*
X160205Y52119D01*
X160222Y52214D01*
X160236Y52310D01*
X160246Y52406D01*
X160252Y52502D01*
X160254Y52599D01*
X150313Y52007D02*
X150313Y60897D01*
X150313Y52007D02*
X150311Y51925D01*
X150305Y51843D01*
X150296Y51761D01*
X150283Y51680D01*
X150266Y51600D01*
X150245Y51520D01*
X150221Y51442D01*
X150193Y51365D01*
X150162Y51289D01*
X150127Y51214D01*
X150088Y51142D01*
X150047Y51071D01*
X150002Y51002D01*
X149954Y50936D01*
X149903Y50871D01*
X149849Y50809D01*
X149792Y50750D01*
X149733Y50693D01*
X149671Y50639D01*
X149606Y50588D01*
X149540Y50540D01*
X149471Y50495D01*
X149400Y50454D01*
X149328Y50415D01*
X149253Y50380D01*
X149177Y50349D01*
X149100Y50321D01*
X149022Y50297D01*
X148942Y50276D01*
X148862Y50259D01*
X148781Y50246D01*
X148699Y50237D01*
X148617Y50231D01*
X148535Y50229D01*
X144217Y52007D02*
X144217Y60897D01*
X144217Y52007D02*
X144215Y51925D01*
X144209Y51843D01*
X144200Y51761D01*
X144187Y51680D01*
X144170Y51600D01*
X144149Y51520D01*
X144125Y51442D01*
X144097Y51365D01*
X144066Y51289D01*
X144031Y51214D01*
X143992Y51142D01*
X143951Y51071D01*
X143906Y51002D01*
X143858Y50936D01*
X143807Y50871D01*
X143753Y50809D01*
X143696Y50750D01*
X143637Y50693D01*
X143575Y50639D01*
X143510Y50588D01*
X143444Y50540D01*
X143375Y50495D01*
X143304Y50454D01*
X143232Y50415D01*
X143157Y50380D01*
X143081Y50349D01*
X143004Y50321D01*
X142926Y50297D01*
X142846Y50276D01*
X142766Y50259D01*
X142685Y50246D01*
X142603Y50237D01*
X142521Y50231D01*
X142439Y50229D01*
X136377Y50229D02*
X133414Y50229D01*
X136377Y50229D02*
X136459Y50231D01*
X136541Y50237D01*
X136623Y50246D01*
X136704Y50259D01*
X136784Y50276D01*
X136864Y50297D01*
X136942Y50321D01*
X137019Y50349D01*
X137095Y50380D01*
X137170Y50415D01*
X137242Y50454D01*
X137313Y50495D01*
X137382Y50540D01*
X137448Y50588D01*
X137513Y50639D01*
X137575Y50693D01*
X137634Y50750D01*
X137691Y50809D01*
X137745Y50871D01*
X137796Y50936D01*
X137844Y51002D01*
X137889Y51071D01*
X137930Y51142D01*
X137969Y51214D01*
X138004Y51289D01*
X138035Y51365D01*
X138063Y51442D01*
X138087Y51520D01*
X138108Y51600D01*
X138125Y51680D01*
X138138Y51761D01*
X138147Y51843D01*
X138153Y51925D01*
X138155Y52007D01*
X138155Y54970D01*
X138156Y54970D02*
X138154Y55067D01*
X138148Y55163D01*
X138138Y55259D01*
X138124Y55355D01*
X138107Y55450D01*
X138085Y55545D01*
X138060Y55638D01*
X138031Y55730D01*
X137998Y55821D01*
X137961Y55911D01*
X137921Y55999D01*
X137877Y56085D01*
X137830Y56169D01*
X137780Y56252D01*
X137726Y56332D01*
X137668Y56410D01*
X137608Y56486D01*
X137545Y56559D01*
X137479Y56629D01*
X137409Y56697D01*
X137338Y56762D01*
X137263Y56824D01*
X137186Y56882D01*
X137107Y56938D01*
X137026Y56990D01*
X136942Y57039D01*
X136857Y57085D01*
X136770Y57127D01*
X136681Y57165D01*
X136591Y57200D01*
X136499Y57231D01*
X136406Y57258D01*
X136313Y57282D01*
X136218Y57301D01*
X136122Y57317D01*
X136026Y57329D01*
X135930Y57337D01*
X135833Y57341D01*
X135737Y57341D01*
X135640Y57337D01*
X135544Y57329D01*
X135448Y57317D01*
X135352Y57301D01*
X135257Y57282D01*
X135164Y57258D01*
X135071Y57231D01*
X134979Y57200D01*
X134889Y57165D01*
X134800Y57127D01*
X134713Y57085D01*
X134628Y57039D01*
X134544Y56990D01*
X134463Y56938D01*
X134384Y56882D01*
X134307Y56824D01*
X134232Y56762D01*
X134161Y56697D01*
X134091Y56629D01*
X134025Y56559D01*
X133962Y56486D01*
X133902Y56410D01*
X133844Y56332D01*
X133790Y56252D01*
X133740Y56169D01*
X133693Y56085D01*
X133649Y55999D01*
X133609Y55911D01*
X133572Y55821D01*
X133539Y55730D01*
X133510Y55638D01*
X133485Y55545D01*
X133463Y55450D01*
X133446Y55355D01*
X133432Y55259D01*
X133422Y55163D01*
X133416Y55067D01*
X133414Y54970D01*
X133414Y53785D01*
X138155Y53785D01*
X127769Y50229D02*
X127769Y57341D01*
X124213Y57341D01*
X124213Y56155D01*
X113814Y54377D02*
X106702Y54377D01*
X95526Y60897D02*
X91970Y50229D01*
X88414Y60897D01*
X80243Y60896D02*
X80141Y60894D01*
X80039Y60888D01*
X79937Y60878D01*
X79836Y60865D01*
X79735Y60847D01*
X79635Y60826D01*
X79536Y60801D01*
X79438Y60772D01*
X79341Y60739D01*
X79246Y60703D01*
X79152Y60663D01*
X79060Y60619D01*
X78969Y60572D01*
X78880Y60521D01*
X78793Y60468D01*
X78709Y60410D01*
X78626Y60350D01*
X78546Y60287D01*
X78469Y60220D01*
X78394Y60151D01*
X78321Y60078D01*
X78252Y60003D01*
X78185Y59926D01*
X78122Y59846D01*
X78062Y59763D01*
X78004Y59679D01*
X77951Y59592D01*
X77900Y59503D01*
X77853Y59412D01*
X77809Y59320D01*
X77769Y59226D01*
X77733Y59130D01*
X77700Y59034D01*
X77671Y58936D01*
X77646Y58837D01*
X77625Y58737D01*
X77607Y58636D01*
X77594Y58535D01*
X77584Y58433D01*
X77578Y58331D01*
X77576Y58229D01*
X80243Y60896D02*
X80359Y60894D01*
X80476Y60888D01*
X80592Y60878D01*
X80707Y60864D01*
X80822Y60847D01*
X80937Y60825D01*
X81050Y60799D01*
X81163Y60770D01*
X81275Y60737D01*
X81385Y60700D01*
X81494Y60659D01*
X81602Y60615D01*
X81708Y60567D01*
X81812Y60515D01*
X81915Y60460D01*
X82016Y60402D01*
X82114Y60340D01*
X82211Y60275D01*
X82305Y60206D01*
X82397Y60134D01*
X82486Y60060D01*
X82573Y59982D01*
X82657Y59901D01*
X82738Y59818D01*
X82816Y59732D01*
X82892Y59643D01*
X82964Y59552D01*
X83033Y59458D01*
X83099Y59362D01*
X83162Y59264D01*
X83221Y59164D01*
X83277Y59062D01*
X83329Y58958D01*
X83378Y58852D01*
X83423Y58744D01*
X83465Y58636D01*
X83502Y58525D01*
X78465Y56154D02*
X78390Y56228D01*
X78318Y56305D01*
X78249Y56385D01*
X78182Y56467D01*
X78119Y56551D01*
X78059Y56638D01*
X78002Y56726D01*
X77948Y56817D01*
X77898Y56910D01*
X77851Y57004D01*
X77808Y57100D01*
X77768Y57198D01*
X77732Y57297D01*
X77699Y57397D01*
X77671Y57499D01*
X77646Y57601D01*
X77624Y57705D01*
X77607Y57809D01*
X77593Y57913D01*
X77584Y58018D01*
X77578Y58124D01*
X77576Y58229D01*
X78465Y56155D02*
X83503Y50229D01*
X77576Y50229D01*
X213318Y477266D02*
X213318Y480229D01*
X213317Y480229D02*
X213315Y480336D01*
X213309Y480443D01*
X213300Y480549D01*
X213286Y480655D01*
X213269Y480761D01*
X213248Y480866D01*
X213223Y480970D01*
X213194Y481073D01*
X213162Y481175D01*
X213126Y481276D01*
X213086Y481375D01*
X213043Y481473D01*
X212996Y481569D01*
X212946Y481664D01*
X212893Y481757D01*
X212836Y481847D01*
X212776Y481936D01*
X212713Y482022D01*
X212647Y482106D01*
X212577Y482188D01*
X212505Y482267D01*
X212430Y482343D01*
X212352Y482417D01*
X212272Y482487D01*
X212189Y482555D01*
X212104Y482620D01*
X212017Y482681D01*
X211927Y482740D01*
X211836Y482795D01*
X211742Y482847D01*
X211646Y482895D01*
X211549Y482940D01*
X211451Y482982D01*
X211351Y483019D01*
X211249Y483054D01*
X211147Y483084D01*
X211043Y483111D01*
X210939Y483134D01*
X210833Y483153D01*
X210727Y483168D01*
X210621Y483180D01*
X210514Y483188D01*
X210407Y483192D01*
X210301Y483192D01*
X210194Y483188D01*
X210087Y483180D01*
X209981Y483168D01*
X209875Y483153D01*
X209769Y483134D01*
X209665Y483111D01*
X209561Y483084D01*
X209459Y483054D01*
X209357Y483019D01*
X209257Y482982D01*
X209159Y482940D01*
X209062Y482895D01*
X208966Y482847D01*
X208873Y482795D01*
X208781Y482740D01*
X208691Y482681D01*
X208604Y482620D01*
X208519Y482555D01*
X208436Y482487D01*
X208356Y482417D01*
X208278Y482343D01*
X208203Y482267D01*
X208131Y482188D01*
X208061Y482106D01*
X207995Y482022D01*
X207932Y481936D01*
X207872Y481847D01*
X207815Y481757D01*
X207762Y481664D01*
X207712Y481569D01*
X207665Y481473D01*
X207622Y481375D01*
X207582Y481276D01*
X207546Y481175D01*
X207514Y481073D01*
X207485Y480970D01*
X207460Y480866D01*
X207439Y480761D01*
X207422Y480655D01*
X207408Y480549D01*
X207399Y480443D01*
X207393Y480336D01*
X207391Y480229D01*
X207391Y477266D01*
X218059Y477266D01*
X218059Y480229D01*
X218057Y480326D01*
X218051Y480422D01*
X218041Y480518D01*
X218027Y480614D01*
X218010Y480709D01*
X217988Y480804D01*
X217963Y480897D01*
X217934Y480989D01*
X217901Y481080D01*
X217864Y481170D01*
X217824Y481258D01*
X217780Y481344D01*
X217733Y481428D01*
X217683Y481511D01*
X217629Y481591D01*
X217571Y481669D01*
X217511Y481745D01*
X217448Y481818D01*
X217382Y481888D01*
X217312Y481956D01*
X217241Y482021D01*
X217166Y482083D01*
X217089Y482141D01*
X217010Y482197D01*
X216929Y482249D01*
X216845Y482298D01*
X216760Y482344D01*
X216673Y482386D01*
X216584Y482424D01*
X216494Y482459D01*
X216402Y482490D01*
X216309Y482517D01*
X216216Y482541D01*
X216121Y482560D01*
X216025Y482576D01*
X215929Y482588D01*
X215833Y482596D01*
X215736Y482600D01*
X215640Y482600D01*
X215543Y482596D01*
X215447Y482588D01*
X215351Y482576D01*
X215255Y482560D01*
X215160Y482541D01*
X215067Y482517D01*
X214974Y482490D01*
X214882Y482459D01*
X214792Y482424D01*
X214703Y482386D01*
X214616Y482344D01*
X214531Y482298D01*
X214447Y482249D01*
X214366Y482197D01*
X214287Y482141D01*
X214210Y482083D01*
X214135Y482021D01*
X214064Y481956D01*
X213994Y481888D01*
X213928Y481818D01*
X213865Y481745D01*
X213805Y481669D01*
X213747Y481591D01*
X213693Y481511D01*
X213643Y481428D01*
X213596Y481344D01*
X213552Y481258D01*
X213512Y481170D01*
X213475Y481080D01*
X213442Y480989D01*
X213413Y480897D01*
X213388Y480804D01*
X213366Y480709D01*
X213349Y480614D01*
X213335Y480518D01*
X213325Y480422D01*
X213319Y480326D01*
X213317Y480229D01*
X218059Y488476D02*
X207391Y488476D01*
X207391Y493217D01*
X210354Y498348D02*
X218059Y498348D01*
X210354Y498348D02*
X210247Y498350D01*
X210140Y498356D01*
X210034Y498365D01*
X209928Y498379D01*
X209822Y498396D01*
X209717Y498417D01*
X209613Y498442D01*
X209510Y498471D01*
X209408Y498503D01*
X209307Y498539D01*
X209208Y498579D01*
X209110Y498622D01*
X209014Y498669D01*
X208919Y498719D01*
X208826Y498772D01*
X208736Y498829D01*
X208647Y498889D01*
X208561Y498952D01*
X208477Y499018D01*
X208395Y499088D01*
X208316Y499160D01*
X208240Y499235D01*
X208166Y499313D01*
X208096Y499393D01*
X208028Y499476D01*
X207963Y499561D01*
X207902Y499648D01*
X207843Y499738D01*
X207788Y499830D01*
X207736Y499923D01*
X207688Y500019D01*
X207643Y500116D01*
X207601Y500214D01*
X207564Y500314D01*
X207529Y500416D01*
X207499Y500518D01*
X207472Y500622D01*
X207449Y500726D01*
X207430Y500832D01*
X207415Y500938D01*
X207403Y501044D01*
X207395Y501151D01*
X207391Y501258D01*
X207391Y501364D01*
X207395Y501471D01*
X207403Y501578D01*
X207415Y501684D01*
X207430Y501790D01*
X207449Y501896D01*
X207472Y502000D01*
X207499Y502104D01*
X207529Y502206D01*
X207564Y502308D01*
X207601Y502408D01*
X207643Y502506D01*
X207688Y502603D01*
X207736Y502699D01*
X207788Y502793D01*
X207843Y502884D01*
X207902Y502974D01*
X207963Y503061D01*
X208028Y503146D01*
X208096Y503229D01*
X208166Y503309D01*
X208240Y503387D01*
X208316Y503462D01*
X208395Y503534D01*
X208477Y503604D01*
X208561Y503670D01*
X208647Y503733D01*
X208736Y503793D01*
X208826Y503850D01*
X208919Y503903D01*
X209014Y503953D01*
X209110Y504000D01*
X209208Y504043D01*
X209307Y504083D01*
X209408Y504119D01*
X209510Y504151D01*
X209613Y504180D01*
X209717Y504205D01*
X209822Y504226D01*
X209928Y504243D01*
X210034Y504257D01*
X210140Y504266D01*
X210247Y504272D01*
X210354Y504274D01*
X210354Y504275D02*
X218059Y504275D01*
X207391Y510574D02*
X207391Y515315D01*
X207391Y510574D02*
X218059Y510574D01*
X218059Y515315D01*
X213318Y514130D02*
X213318Y510574D01*
X162518Y483193D02*
X162518Y481415D01*
X162518Y483193D02*
X156591Y483193D01*
X156591Y479637D01*
X156593Y479542D01*
X156599Y479446D01*
X156608Y479351D01*
X156622Y479257D01*
X156639Y479163D01*
X156660Y479070D01*
X156685Y478977D01*
X156713Y478886D01*
X156745Y478796D01*
X156781Y478708D01*
X156820Y478621D01*
X156863Y478535D01*
X156909Y478452D01*
X156958Y478370D01*
X157011Y478290D01*
X157067Y478213D01*
X157125Y478137D01*
X157187Y478065D01*
X157252Y477995D01*
X157320Y477927D01*
X157390Y477862D01*
X157462Y477800D01*
X157538Y477742D01*
X157615Y477686D01*
X157695Y477633D01*
X157777Y477584D01*
X157860Y477538D01*
X157946Y477495D01*
X158033Y477456D01*
X158121Y477420D01*
X158211Y477388D01*
X158302Y477360D01*
X158395Y477335D01*
X158488Y477314D01*
X158582Y477297D01*
X158676Y477283D01*
X158771Y477274D01*
X158867Y477268D01*
X158962Y477266D01*
X164888Y477266D01*
X164983Y477268D01*
X165079Y477274D01*
X165174Y477283D01*
X165268Y477297D01*
X165362Y477314D01*
X165455Y477335D01*
X165548Y477360D01*
X165639Y477388D01*
X165729Y477420D01*
X165817Y477456D01*
X165904Y477495D01*
X165990Y477538D01*
X166073Y477584D01*
X166155Y477633D01*
X166235Y477686D01*
X166312Y477742D01*
X166388Y477800D01*
X166460Y477862D01*
X166530Y477927D01*
X166598Y477995D01*
X166663Y478065D01*
X166725Y478137D01*
X166783Y478213D01*
X166839Y478290D01*
X166892Y478370D01*
X166941Y478451D01*
X166987Y478535D01*
X167030Y478621D01*
X167069Y478708D01*
X167105Y478796D01*
X167137Y478886D01*
X167165Y478977D01*
X167190Y479070D01*
X167211Y479163D01*
X167228Y479257D01*
X167242Y479351D01*
X167251Y479446D01*
X167257Y479541D01*
X167259Y479637D01*
X167259Y483193D01*
X167259Y489568D02*
X156591Y489568D01*
X167259Y489568D02*
X167259Y492532D01*
X167257Y492639D01*
X167251Y492746D01*
X167242Y492852D01*
X167228Y492958D01*
X167211Y493064D01*
X167190Y493169D01*
X167165Y493273D01*
X167136Y493376D01*
X167104Y493478D01*
X167068Y493579D01*
X167028Y493678D01*
X166985Y493776D01*
X166938Y493872D01*
X166888Y493967D01*
X166835Y494060D01*
X166778Y494150D01*
X166718Y494239D01*
X166655Y494325D01*
X166589Y494409D01*
X166519Y494491D01*
X166447Y494570D01*
X166372Y494646D01*
X166294Y494720D01*
X166214Y494790D01*
X166131Y494858D01*
X166046Y494923D01*
X165959Y494984D01*
X165869Y495043D01*
X165778Y495098D01*
X165684Y495150D01*
X165588Y495198D01*
X165491Y495243D01*
X165393Y495285D01*
X165293Y495322D01*
X165191Y495357D01*
X165089Y495387D01*
X164985Y495414D01*
X164881Y495437D01*
X164775Y495456D01*
X164669Y495471D01*
X164563Y495483D01*
X164456Y495491D01*
X164349Y495495D01*
X164243Y495495D01*
X164136Y495491D01*
X164029Y495483D01*
X163923Y495471D01*
X163817Y495456D01*
X163711Y495437D01*
X163607Y495414D01*
X163503Y495387D01*
X163401Y495357D01*
X163299Y495322D01*
X163199Y495285D01*
X163101Y495243D01*
X163004Y495198D01*
X162908Y495150D01*
X162815Y495098D01*
X162723Y495043D01*
X162633Y494984D01*
X162546Y494923D01*
X162461Y494858D01*
X162378Y494790D01*
X162298Y494720D01*
X162220Y494646D01*
X162145Y494570D01*
X162073Y494491D01*
X162003Y494409D01*
X161937Y494325D01*
X161874Y494239D01*
X161814Y494150D01*
X161757Y494060D01*
X161704Y493967D01*
X161654Y493872D01*
X161607Y493776D01*
X161564Y493678D01*
X161524Y493579D01*
X161488Y493478D01*
X161456Y493376D01*
X161427Y493273D01*
X161402Y493169D01*
X161381Y493064D01*
X161364Y492958D01*
X161350Y492852D01*
X161341Y492746D01*
X161335Y492639D01*
X161333Y492532D01*
X161332Y492532D02*
X161332Y489568D01*
X161332Y493124D02*
X156591Y495495D01*
X156591Y501303D02*
X156591Y506044D01*
X156591Y501303D02*
X167259Y501303D01*
X167259Y506044D01*
X162518Y504859D02*
X162518Y501303D01*
X156591Y511209D02*
X156591Y515950D01*
X156591Y511209D02*
X167259Y511209D01*
X167259Y515950D01*
X162518Y514765D02*
X162518Y511209D01*
X167259Y521081D02*
X156591Y521081D01*
X156591Y527008D02*
X167259Y521081D01*
X167259Y527008D02*
X156591Y527008D01*
X117771Y474472D02*
X122809Y470916D01*
X117771Y474472D02*
X122809Y478028D01*
X117771Y474472D02*
X112141Y474472D01*
X112141Y483354D02*
X112141Y488095D01*
X112141Y483354D02*
X122809Y483354D01*
X122809Y488095D01*
X118068Y486910D02*
X118068Y483354D01*
X122809Y493260D02*
X112141Y493260D01*
X112141Y498001D01*
X112141Y503165D02*
X122809Y503165D01*
X112141Y503165D02*
X112141Y507907D01*
X115104Y512657D02*
X119846Y512657D01*
X119953Y512659D01*
X120060Y512665D01*
X120166Y512674D01*
X120272Y512688D01*
X120378Y512705D01*
X120483Y512726D01*
X120587Y512751D01*
X120690Y512780D01*
X120792Y512812D01*
X120893Y512848D01*
X120992Y512888D01*
X121090Y512931D01*
X121186Y512978D01*
X121281Y513028D01*
X121374Y513081D01*
X121464Y513138D01*
X121553Y513198D01*
X121639Y513261D01*
X121723Y513327D01*
X121805Y513397D01*
X121884Y513469D01*
X121960Y513544D01*
X122034Y513622D01*
X122104Y513702D01*
X122172Y513785D01*
X122237Y513870D01*
X122298Y513957D01*
X122357Y514047D01*
X122412Y514139D01*
X122464Y514232D01*
X122512Y514328D01*
X122557Y514425D01*
X122599Y514523D01*
X122636Y514623D01*
X122671Y514725D01*
X122701Y514827D01*
X122728Y514931D01*
X122751Y515035D01*
X122770Y515141D01*
X122785Y515247D01*
X122797Y515353D01*
X122805Y515460D01*
X122809Y515567D01*
X122809Y515673D01*
X122805Y515780D01*
X122797Y515887D01*
X122785Y515993D01*
X122770Y516099D01*
X122751Y516205D01*
X122728Y516309D01*
X122701Y516413D01*
X122671Y516515D01*
X122636Y516617D01*
X122599Y516717D01*
X122557Y516815D01*
X122512Y516912D01*
X122464Y517008D01*
X122412Y517102D01*
X122357Y517193D01*
X122298Y517283D01*
X122237Y517370D01*
X122172Y517455D01*
X122104Y517538D01*
X122034Y517618D01*
X121960Y517696D01*
X121884Y517771D01*
X121805Y517843D01*
X121723Y517913D01*
X121639Y517979D01*
X121553Y518042D01*
X121464Y518102D01*
X121374Y518159D01*
X121281Y518212D01*
X121186Y518262D01*
X121090Y518309D01*
X120992Y518352D01*
X120893Y518392D01*
X120792Y518428D01*
X120690Y518460D01*
X120587Y518489D01*
X120483Y518514D01*
X120378Y518535D01*
X120272Y518552D01*
X120166Y518566D01*
X120060Y518575D01*
X119953Y518581D01*
X119846Y518583D01*
X115104Y518583D01*
X114997Y518581D01*
X114890Y518575D01*
X114784Y518566D01*
X114678Y518552D01*
X114572Y518535D01*
X114467Y518514D01*
X114363Y518489D01*
X114260Y518460D01*
X114158Y518428D01*
X114057Y518392D01*
X113958Y518352D01*
X113860Y518309D01*
X113764Y518262D01*
X113669Y518212D01*
X113576Y518159D01*
X113486Y518102D01*
X113397Y518042D01*
X113311Y517979D01*
X113227Y517913D01*
X113145Y517843D01*
X113066Y517771D01*
X112990Y517696D01*
X112916Y517618D01*
X112846Y517538D01*
X112778Y517455D01*
X112713Y517370D01*
X112652Y517283D01*
X112593Y517193D01*
X112538Y517102D01*
X112486Y517008D01*
X112438Y516912D01*
X112393Y516815D01*
X112351Y516717D01*
X112314Y516617D01*
X112279Y516515D01*
X112249Y516413D01*
X112222Y516309D01*
X112199Y516205D01*
X112180Y516099D01*
X112165Y515993D01*
X112153Y515887D01*
X112145Y515780D01*
X112141Y515673D01*
X112141Y515567D01*
X112145Y515460D01*
X112153Y515353D01*
X112165Y515247D01*
X112180Y515141D01*
X112199Y515035D01*
X112222Y514931D01*
X112249Y514827D01*
X112279Y514725D01*
X112314Y514623D01*
X112351Y514523D01*
X112393Y514425D01*
X112438Y514328D01*
X112486Y514232D01*
X112538Y514139D01*
X112593Y514047D01*
X112652Y513957D01*
X112713Y513870D01*
X112778Y513785D01*
X112846Y513702D01*
X112916Y513622D01*
X112990Y513544D01*
X113066Y513469D01*
X113145Y513397D01*
X113227Y513327D01*
X113311Y513261D01*
X113397Y513198D01*
X113486Y513138D01*
X113576Y513081D01*
X113669Y513028D01*
X113764Y512978D01*
X113860Y512931D01*
X113958Y512888D01*
X114057Y512848D01*
X114158Y512812D01*
X114260Y512780D01*
X114363Y512751D01*
X114467Y512726D01*
X114572Y512705D01*
X114678Y512688D01*
X114784Y512674D01*
X114890Y512665D01*
X114997Y512659D01*
X115104Y512657D01*
X122809Y523833D02*
X112141Y526203D01*
X119253Y528574D01*
X112141Y530945D01*
X122809Y533315D01*
X67268Y480229D02*
X67268Y477266D01*
X67267Y480229D02*
X67265Y480336D01*
X67259Y480443D01*
X67250Y480549D01*
X67236Y480655D01*
X67219Y480761D01*
X67198Y480866D01*
X67173Y480970D01*
X67144Y481073D01*
X67112Y481175D01*
X67076Y481276D01*
X67036Y481375D01*
X66993Y481473D01*
X66946Y481569D01*
X66896Y481664D01*
X66843Y481757D01*
X66786Y481847D01*
X66726Y481936D01*
X66663Y482022D01*
X66597Y482106D01*
X66527Y482188D01*
X66455Y482267D01*
X66380Y482343D01*
X66302Y482417D01*
X66222Y482487D01*
X66139Y482555D01*
X66054Y482620D01*
X65967Y482681D01*
X65877Y482740D01*
X65786Y482795D01*
X65692Y482847D01*
X65596Y482895D01*
X65499Y482940D01*
X65401Y482982D01*
X65301Y483019D01*
X65199Y483054D01*
X65097Y483084D01*
X64993Y483111D01*
X64889Y483134D01*
X64783Y483153D01*
X64677Y483168D01*
X64571Y483180D01*
X64464Y483188D01*
X64357Y483192D01*
X64251Y483192D01*
X64144Y483188D01*
X64037Y483180D01*
X63931Y483168D01*
X63825Y483153D01*
X63719Y483134D01*
X63615Y483111D01*
X63511Y483084D01*
X63409Y483054D01*
X63307Y483019D01*
X63207Y482982D01*
X63109Y482940D01*
X63012Y482895D01*
X62916Y482847D01*
X62822Y482795D01*
X62731Y482740D01*
X62641Y482681D01*
X62554Y482620D01*
X62469Y482555D01*
X62386Y482487D01*
X62306Y482417D01*
X62228Y482343D01*
X62153Y482267D01*
X62081Y482188D01*
X62011Y482106D01*
X61945Y482022D01*
X61882Y481936D01*
X61822Y481847D01*
X61765Y481757D01*
X61712Y481664D01*
X61662Y481569D01*
X61615Y481473D01*
X61572Y481375D01*
X61532Y481276D01*
X61496Y481175D01*
X61464Y481073D01*
X61435Y480970D01*
X61410Y480866D01*
X61389Y480761D01*
X61372Y480655D01*
X61358Y480549D01*
X61349Y480443D01*
X61343Y480336D01*
X61341Y480229D01*
X61341Y477266D01*
X72009Y477266D01*
X72009Y480229D01*
X72007Y480326D01*
X72001Y480422D01*
X71991Y480518D01*
X71977Y480614D01*
X71960Y480709D01*
X71938Y480804D01*
X71913Y480897D01*
X71884Y480989D01*
X71851Y481080D01*
X71814Y481170D01*
X71774Y481258D01*
X71730Y481344D01*
X71683Y481428D01*
X71633Y481511D01*
X71579Y481591D01*
X71521Y481669D01*
X71461Y481745D01*
X71398Y481818D01*
X71332Y481888D01*
X71262Y481956D01*
X71191Y482021D01*
X71116Y482083D01*
X71039Y482141D01*
X70960Y482197D01*
X70879Y482249D01*
X70795Y482298D01*
X70710Y482344D01*
X70623Y482386D01*
X70534Y482424D01*
X70444Y482459D01*
X70352Y482490D01*
X70259Y482517D01*
X70166Y482541D01*
X70071Y482560D01*
X69975Y482576D01*
X69879Y482588D01*
X69783Y482596D01*
X69686Y482600D01*
X69590Y482600D01*
X69493Y482596D01*
X69397Y482588D01*
X69301Y482576D01*
X69205Y482560D01*
X69110Y482541D01*
X69017Y482517D01*
X68924Y482490D01*
X68832Y482459D01*
X68742Y482424D01*
X68653Y482386D01*
X68566Y482344D01*
X68481Y482298D01*
X68397Y482249D01*
X68316Y482197D01*
X68237Y482141D01*
X68160Y482083D01*
X68085Y482021D01*
X68014Y481956D01*
X67944Y481888D01*
X67878Y481818D01*
X67815Y481745D01*
X67755Y481669D01*
X67697Y481591D01*
X67643Y481511D01*
X67593Y481428D01*
X67546Y481344D01*
X67502Y481258D01*
X67462Y481170D01*
X67425Y481080D01*
X67392Y480989D01*
X67363Y480897D01*
X67338Y480804D01*
X67316Y480709D01*
X67299Y480614D01*
X67285Y480518D01*
X67275Y480422D01*
X67269Y480326D01*
X67267Y480229D01*
X72009Y488476D02*
X61341Y488476D01*
X61341Y493217D01*
X61341Y497374D02*
X72009Y500930D01*
X61341Y504486D01*
X64008Y503597D02*
X64008Y498263D01*
X61341Y511718D02*
X61341Y514088D01*
X61341Y511718D02*
X61343Y511623D01*
X61349Y511527D01*
X61358Y511432D01*
X61372Y511338D01*
X61389Y511244D01*
X61410Y511151D01*
X61435Y511058D01*
X61463Y510967D01*
X61495Y510877D01*
X61531Y510789D01*
X61570Y510702D01*
X61613Y510616D01*
X61659Y510533D01*
X61708Y510451D01*
X61761Y510371D01*
X61817Y510294D01*
X61875Y510218D01*
X61937Y510146D01*
X62002Y510076D01*
X62070Y510008D01*
X62140Y509943D01*
X62212Y509881D01*
X62288Y509823D01*
X62365Y509767D01*
X62445Y509714D01*
X62526Y509665D01*
X62610Y509619D01*
X62696Y509576D01*
X62783Y509537D01*
X62871Y509501D01*
X62961Y509469D01*
X63052Y509441D01*
X63145Y509416D01*
X63238Y509395D01*
X63332Y509378D01*
X63426Y509364D01*
X63521Y509355D01*
X63617Y509349D01*
X63712Y509347D01*
X69638Y509347D01*
X69733Y509349D01*
X69829Y509355D01*
X69924Y509364D01*
X70018Y509378D01*
X70112Y509395D01*
X70205Y509416D01*
X70298Y509441D01*
X70389Y509469D01*
X70479Y509501D01*
X70567Y509537D01*
X70654Y509576D01*
X70740Y509619D01*
X70823Y509665D01*
X70905Y509714D01*
X70985Y509767D01*
X71062Y509823D01*
X71138Y509881D01*
X71210Y509943D01*
X71280Y510008D01*
X71348Y510076D01*
X71413Y510146D01*
X71475Y510218D01*
X71533Y510294D01*
X71589Y510371D01*
X71642Y510451D01*
X71691Y510532D01*
X71737Y510616D01*
X71780Y510702D01*
X71819Y510789D01*
X71855Y510877D01*
X71887Y510967D01*
X71915Y511058D01*
X71940Y511151D01*
X71961Y511244D01*
X71978Y511338D01*
X71992Y511432D01*
X72001Y511527D01*
X72007Y511622D01*
X72009Y511718D01*
X72009Y514088D01*
X72009Y519557D02*
X61341Y519557D01*
X65490Y519557D02*
X72009Y525484D01*
X67860Y521928D02*
X61341Y525484D01*
M02*
