G04 EAGLE Gerber RS-274X export*
G75*
%MOMM*%
%FSLAX34Y34*%
%LPD*%
%INSoldermask Top*%
%IPPOS*%
%AMOC8*
5,1,8,0,0,1.08239X$1,22.5*%
G01*
%ADD10P,1.869504X8X292.500000*%
%ADD11R,1.503200X1.703200*%
%ADD12R,2.108200X2.108200*%
%ADD13C,4.013200*%
%ADD14R,2.403200X0.803200*%
%ADD15R,1.753200X0.803200*%
%ADD16C,1.727200*%
%ADD17R,1.703200X1.703200*%
%ADD18C,0.959600*%


D10*
X466725Y504825D03*
X492125Y504825D03*
X466725Y479425D03*
X492125Y479425D03*
X466725Y454025D03*
X492125Y454025D03*
X466725Y428625D03*
X492125Y428625D03*
X466725Y403225D03*
X492125Y403225D03*
X466725Y377825D03*
X492125Y377825D03*
X466725Y352425D03*
X492125Y352425D03*
X466725Y327025D03*
X492125Y327025D03*
X466725Y301625D03*
X492125Y301625D03*
X466725Y276225D03*
X492125Y276225D03*
X466725Y250825D03*
X492125Y250825D03*
X466725Y225425D03*
X492125Y225425D03*
X466725Y200025D03*
X492125Y200025D03*
X466725Y174625D03*
X492125Y174625D03*
X466725Y149225D03*
X492125Y149225D03*
X466725Y123825D03*
X492125Y123825D03*
X466725Y98425D03*
X492125Y98425D03*
X466725Y73025D03*
X492125Y73025D03*
X466725Y47625D03*
X492125Y47625D03*
X466725Y22225D03*
X492125Y22225D03*
D11*
X348431Y555625D03*
X329431Y555625D03*
D12*
X234950Y504825D03*
X184150Y504825D03*
X139700Y504825D03*
X88900Y504825D03*
D13*
X382225Y426725D03*
X62225Y426725D03*
X62225Y106725D03*
X382225Y106725D03*
D11*
X379438Y555625D03*
X398438Y555625D03*
X245244Y556419D03*
X226244Y556419D03*
D14*
X334769Y499269D03*
X282769Y499269D03*
X334769Y486569D03*
X334769Y511969D03*
X334769Y524669D03*
X282769Y486569D03*
X282769Y511969D03*
X282769Y524669D03*
D11*
X246038Y528638D03*
X227038Y528638D03*
D15*
X431513Y485775D03*
X431513Y498475D03*
X431513Y511175D03*
X431513Y523875D03*
X377513Y523875D03*
X377513Y511175D03*
X377513Y498475D03*
X377513Y485775D03*
D11*
X297631Y556419D03*
X278631Y556419D03*
D16*
X176213Y546894D03*
X150813Y546894D03*
X125413Y546894D03*
D17*
X465969Y555625D03*
X430969Y555625D03*
D11*
X465163Y532606D03*
X484163Y532606D03*
D18*
X313277Y556641D03*
X296767Y542925D03*
X398907Y541433D03*
X356362Y499491D03*
X362522Y512064D03*
X418338Y532638D03*
X410845Y514985D03*
M02*
